<svg width="130" height="130" viewBox="0 0 130 130" fill="none" xmlns="http://www.w3.org/2000/svg">
<path d="M64.9416 53.8899H87.0375V31.7939C74.8353 31.7939 64.9416 41.6876 64.9416 53.8899ZM64.9416 75.9858H42.8457V98.0817C55.048 98.0817 64.9416 88.1881 64.9416 75.9858ZM64.9416 53.8899V31.7939C52.7393 31.7939 42.8457 41.6876 42.8457 53.8899C42.8457 66.0921 52.7393 75.9858 64.9416 75.9858V98.0817C77.1439 98.0817 87.0375 88.1881 87.0375 75.9858C87.0375 63.7835 77.1439 53.8899 64.9416 53.8899Z" fill="#C0DDCE"/>
<path d="M16.2005 99.7352L15.3018 100.326L12.8453 96.5917L13.744 96.0006L16.2005 99.7352ZM26.3777 106.697L22.02 111.438L24.0611 112.281L23.2662 113.144L19.983 111.802L19.9231 111.746L25.3951 105.794L26.3817 106.701L26.3777 106.697ZM31.5781 110.975L27.6958 116.111L29.8047 116.754L29.0978 117.689L25.7027 116.667L25.6348 116.619L30.5077 110.168L31.5742 110.975H31.5781ZM40.4453 119.107C40.4613 119.271 40.5092 119.435 40.5931 119.594C40.6849 119.75 40.8087 119.91 40.9605 120.07C41.1123 120.229 41.288 120.393 41.4838 120.553C41.7913 120.801 42.0589 121.064 42.2906 121.336C42.5223 121.607 42.702 121.875 42.8298 122.147C42.9576 122.418 43.0295 122.698 43.0455 122.981C43.0615 123.265 43.0095 123.553 42.8817 123.844C42.7459 124.16 42.5542 124.415 42.3066 124.611C42.0629 124.807 41.7833 124.943 41.4758 125.022C41.1682 125.098 40.8407 125.118 40.4932 125.078C40.1457 125.038 39.8022 124.947 39.4627 124.799C39.1032 124.643 38.7917 124.443 38.5281 124.196C38.2644 123.952 38.0607 123.68 37.9129 123.385C37.7692 123.085 37.6893 122.766 37.6733 122.43C37.6573 122.095 37.7252 121.759 37.869 121.424L39.0833 121.947C39.0193 122.143 38.9874 122.33 38.9834 122.51C38.9794 122.694 39.0074 122.866 39.0713 123.025C39.1392 123.185 39.243 123.329 39.3788 123.465C39.5186 123.597 39.6904 123.712 39.9061 123.804C40.0938 123.884 40.2775 123.936 40.4533 123.952C40.633 123.972 40.7968 123.96 40.9525 123.924C41.1083 123.88 41.2441 123.812 41.3639 123.708C41.4838 123.609 41.5796 123.477 41.6475 123.317C41.7194 123.145 41.7354 122.977 41.7074 122.814C41.6795 122.65 41.6116 122.49 41.5117 122.33C41.4079 122.171 41.2761 122.019 41.1203 121.863C40.9605 121.711 40.7928 121.559 40.613 121.408C40.3854 121.22 40.1697 121.016 39.966 120.801C39.7623 120.581 39.5905 120.349 39.4467 120.102C39.271 119.79 39.1631 119.467 39.1232 119.123C39.0832 118.784 39.1392 118.432 39.2949 118.077C39.4387 117.749 39.6305 117.485 39.8781 117.294C40.1257 117.102 40.3973 116.974 40.7009 116.906C41.0085 116.834 41.336 116.822 41.6835 116.87C42.031 116.918 42.3745 117.014 42.718 117.162C43.0814 117.318 43.413 117.533 43.7205 117.797C44.0281 118.061 44.2597 118.36 44.4275 118.692C44.5793 118.999 44.6671 119.323 44.6911 119.658C44.7151 119.994 44.6472 120.341 44.4994 120.701L43.2772 120.174C43.357 119.938 43.397 119.718 43.389 119.518C43.381 119.315 43.3331 119.131 43.2412 118.959C43.1533 118.788 43.0295 118.636 42.8658 118.504C42.706 118.368 42.5143 118.256 42.2906 118.156C42.1029 118.077 41.9191 118.025 41.7394 117.997C41.5597 117.969 41.3919 117.977 41.2321 118.013C41.0804 118.049 40.9406 118.113 40.8167 118.208C40.6929 118.304 40.5971 118.432 40.5252 118.596C40.4493 118.768 40.4213 118.935 40.4333 119.099M44.5233 126.636L44.8389 125.578L46.4925 126.069L48.1661 120.433L46.5125 119.942L46.824 118.887L51.3894 120.245L51.0778 121.3L49.4602 120.821L47.7866 126.456L49.4043 126.936L49.0887 127.994L44.5233 126.64V126.636ZM54.8404 125.214C54.6047 125.178 54.389 125.178 54.1893 125.214C53.9896 125.25 53.8139 125.322 53.6621 125.426C53.5263 125.518 53.4104 125.638 53.3186 125.785C53.2267 125.933 53.1628 126.113 53.1269 126.317C53.0869 126.548 53.0909 126.756 53.1309 126.94C53.1708 127.123 53.2547 127.287 53.3705 127.427C53.4823 127.559 53.6221 127.667 53.7939 127.754C53.9656 127.842 54.1653 127.906 54.389 127.946L55.6033 128.154L56.0666 125.422L54.8364 125.214H54.8404ZM56.2543 124.351L56.7776 121.26L58.0917 121.484L56.7416 129.452L54.2133 129.025C53.8019 128.953 53.4304 128.833 53.1029 128.673C52.7714 128.513 52.4998 128.31 52.2801 128.074C52.0644 127.83 51.9126 127.551 51.8248 127.227C51.7369 126.908 51.7249 126.548 51.7928 126.149C51.8367 125.873 51.9166 125.634 52.0245 125.422C52.1323 125.21 52.2681 125.026 52.4239 124.871C52.5837 124.715 52.7594 124.583 52.9631 124.479C53.1628 124.375 53.3825 124.292 53.6181 124.232L52.4798 120.609L52.4918 120.537L53.8977 120.777L54.9003 124.128L56.2463 124.355L56.2543 124.351ZM60.9954 124.727L61.7743 127.962L62.8607 124.811L60.9914 124.727H60.9954ZM63.2522 123.684L63.8872 121.851L65.2732 121.915L62.2736 129.871L61.0913 129.816L58.8745 121.623L60.2565 121.687L60.7158 123.573L63.2482 123.688L63.2522 123.684ZM68.868 125.893C68.6443 125.909 68.4406 125.957 68.2649 126.033C68.0891 126.109 67.9413 126.213 67.8215 126.341C67.7017 126.468 67.6138 126.62 67.5579 126.788C67.502 126.96 67.478 127.139 67.49 127.335C67.502 127.551 67.5459 127.743 67.6178 127.914C67.6937 128.086 67.7936 128.234 67.9254 128.358C68.0572 128.481 68.2169 128.573 68.4007 128.633C68.5844 128.693 68.7881 128.721 69.0158 128.713L70.3858 128.641L70.234 125.817L68.864 125.889L68.868 125.893ZM70.0143 121.659L71.3444 121.587L71.7758 129.66L69.0757 129.804C68.6683 129.824 68.2928 129.78 67.9453 129.68C67.5978 129.58 67.2943 129.428 67.0347 129.22C66.775 129.017 66.5713 128.761 66.4156 128.457C66.2638 128.154 66.1759 127.81 66.1559 127.423C66.136 127.052 66.1839 126.708 66.3077 126.4C66.4275 126.093 66.6073 125.825 66.8429 125.598C67.0786 125.366 67.3662 125.182 67.7017 125.046C68.0372 124.911 68.4087 124.831 68.8161 124.811L70.1861 124.739L70.0223 121.663L70.0143 121.659ZM84.6371 121.563L84.9606 122.59L80.6988 123.932L80.3753 122.906L84.6371 121.563ZM96.8394 116.439L95.5573 114.262L92.1941 116.243L91.6349 115.297L96.1524 112.636L100.25 119.602L95.757 122.246L95.1978 121.296L98.5369 119.331L97.3826 117.37L94.5028 119.067L93.9556 118.136L96.8354 116.443L96.8394 116.439ZM106.897 114.709L105.738 115.6L101.105 112.105L100.706 111.806L100.893 112.277L103.078 117.653L101.924 118.54L98.9603 110.619L99.9908 109.829L106.893 114.717L106.897 114.709ZM108.379 113.359L107.624 112.557L108.882 111.374L104.856 107.088L103.598 108.271L102.847 107.468L106.318 104.205L107.073 105.008L105.842 106.162L109.868 110.448L111.099 109.293L111.854 110.1L108.383 113.363L108.379 113.359ZM110.068 103.773C110.228 103.805 110.4 103.805 110.575 103.773C110.751 103.729 110.939 103.657 111.135 103.558C111.33 103.458 111.534 103.338 111.75 103.19C112.077 102.966 112.401 102.783 112.728 102.635C113.056 102.491 113.363 102.395 113.659 102.347C113.959 102.303 114.246 102.311 114.522 102.375C114.797 102.439 115.057 102.575 115.305 102.779C115.568 102.998 115.76 103.254 115.876 103.546C115.992 103.837 116.048 104.141 116.036 104.46C116.024 104.776 115.948 105.095 115.812 105.419C115.676 105.742 115.488 106.046 115.253 106.33C115.001 106.629 114.721 106.873 114.41 107.057C114.098 107.24 113.783 107.36 113.455 107.416C113.128 107.468 112.8 107.456 112.473 107.376C112.149 107.296 111.846 107.136 111.562 106.901L112.409 105.886C112.577 106.002 112.748 106.09 112.92 106.142C113.092 106.198 113.268 106.218 113.439 106.202C113.611 106.182 113.779 106.126 113.947 106.03C114.114 105.934 114.274 105.798 114.422 105.619C114.554 105.463 114.654 105.299 114.721 105.135C114.789 104.968 114.829 104.808 114.833 104.648C114.837 104.488 114.809 104.337 114.745 104.189C114.681 104.045 114.586 103.917 114.45 103.805C114.306 103.689 114.15 103.622 113.982 103.606C113.815 103.59 113.643 103.606 113.463 103.657C113.28 103.713 113.096 103.793 112.904 103.901C112.712 104.009 112.521 104.129 112.325 104.261C112.081 104.428 111.822 104.576 111.558 104.708C111.29 104.84 111.019 104.94 110.743 105.008C110.396 105.087 110.052 105.099 109.713 105.043C109.373 104.988 109.054 104.832 108.758 104.584C108.482 104.352 108.287 104.093 108.171 103.805C108.055 103.514 108.011 103.214 108.031 102.907C108.051 102.591 108.131 102.271 108.271 101.952C108.415 101.632 108.606 101.329 108.846 101.045C109.102 100.742 109.397 100.482 109.741 100.262C110.084 100.047 110.436 99.9029 110.799 99.839C111.139 99.7791 111.47 99.7871 111.798 99.863C112.125 99.9389 112.441 100.099 112.74 100.342L111.886 101.365C111.682 101.221 111.482 101.125 111.286 101.073C111.091 101.021 110.899 101.017 110.711 101.057C110.524 101.093 110.34 101.169 110.164 101.285C109.992 101.401 109.825 101.553 109.673 101.736C109.541 101.892 109.437 102.056 109.361 102.22C109.285 102.383 109.245 102.547 109.233 102.711C109.225 102.867 109.249 103.018 109.305 103.166C109.361 103.31 109.457 103.442 109.597 103.554C109.741 103.673 109.892 103.753 110.056 103.785M113.727 99.2878C113.375 99.0602 113.092 98.8005 112.872 98.505C112.652 98.2094 112.505 97.9018 112.429 97.5743C112.353 97.2428 112.349 96.8993 112.417 96.5518C112.485 96.2003 112.632 95.8528 112.852 95.5093C113.072 95.1698 113.323 94.9022 113.615 94.6985C113.903 94.4948 114.21 94.367 114.542 94.3071C114.873 94.2431 115.217 94.2551 115.576 94.335C115.936 94.4149 116.291 94.5667 116.643 94.7904L121.172 97.7421L120.457 98.8445L115.916 95.9127C115.7 95.7769 115.484 95.6771 115.277 95.6092C115.069 95.5413 114.865 95.5173 114.681 95.5333C114.502 95.5493 114.334 95.6052 114.182 95.697C114.026 95.7889 113.895 95.9247 113.775 96.1044C113.655 96.2882 113.583 96.4719 113.559 96.6556C113.535 96.8394 113.551 97.0191 113.615 97.1989C113.679 97.3786 113.783 97.5504 113.927 97.7101C114.07 97.8739 114.246 98.0257 114.454 98.1695L118.983 101.121L118.268 102.224L113.727 99.2878ZM115.96 92.7294L114.973 92.2461L117.262 87.5808L124.519 91.1397L123.928 92.3419L117.657 89.2664L115.96 92.7294ZM119.203 86.5863C118.947 86.3426 118.756 86.067 118.624 85.7635C118.488 85.4559 118.416 85.1244 118.408 84.7689C118.4 84.4134 118.464 84.042 118.6 83.6585C118.712 83.343 118.855 83.0714 119.031 82.8357C119.207 82.6001 119.415 82.4083 119.642 82.2566C119.858 82.1088 120.098 81.9969 120.357 81.9211C120.617 81.8452 120.888 81.8012 121.172 81.7852C121.452 81.7693 121.743 81.7852 122.047 81.8372C122.35 81.8851 122.658 81.965 122.969 82.0728L124.012 82.4363C124.307 82.5401 124.587 82.664 124.843 82.8117C125.102 82.9595 125.338 83.1233 125.546 83.303C125.781 83.5027 125.981 83.7264 126.145 83.9701C126.309 84.2137 126.432 84.4733 126.512 84.741C126.584 84.9966 126.616 85.2642 126.608 85.5438C126.6 85.8234 126.544 86.107 126.44 86.4065C126.301 86.8099 126.117 87.1455 125.885 87.4211C125.654 87.6967 125.394 87.9083 125.098 88.0561C124.799 88.2039 124.471 88.2918 124.112 88.3158C123.756 88.3397 123.381 88.3038 122.985 88.2079L123.425 86.9497C123.66 87.0097 123.88 87.0376 124.084 87.0376C124.292 87.0376 124.475 87.0057 124.647 86.9378C124.815 86.8659 124.963 86.762 125.09 86.6182C125.218 86.4744 125.322 86.2867 125.402 86.051C125.462 85.8873 125.49 85.7315 125.49 85.5837C125.49 85.4359 125.466 85.3001 125.418 85.1683C125.366 84.9926 125.274 84.8328 125.146 84.681C125.014 84.5333 124.863 84.3935 124.683 84.2616C124.523 84.1538 124.351 84.0539 124.16 83.9661C123.968 83.8742 123.772 83.7943 123.565 83.7184L122.51 83.351C122.254 83.2631 122.011 83.1912 121.775 83.1433C121.54 83.0953 121.32 83.0714 121.112 83.0674C120.94 83.0634 120.781 83.0754 120.629 83.1073C120.477 83.1393 120.337 83.1912 120.209 83.2631C120.074 83.339 119.958 83.4349 119.858 83.5587C119.758 83.6825 119.674 83.8343 119.61 84.018C119.534 84.2337 119.498 84.4374 119.502 84.6291C119.506 84.8168 119.55 84.9966 119.63 85.1564C119.71 85.3121 119.826 85.4559 119.978 85.5917C120.134 85.7235 120.321 85.8394 120.545 85.9432L120.102 87.2054C119.746 87.0416 119.439 86.8339 119.187 86.5903M120.261 78.5619L126.257 77.1919L120.825 75.9897L121.116 74.6716L129.009 76.4051L128.717 77.7271L122.746 79.0852L128.154 80.2834L127.866 81.5975L119.97 79.864L120.257 78.5579L120.261 78.5619ZM129.424 73.8887L128.326 73.7849L128.489 72.0674L122.638 71.5122L122.474 73.2297L121.38 73.1258L121.831 68.3847L122.926 68.4885L122.766 70.1701L128.617 70.7253L128.777 69.0437L129.875 69.1476L129.424 73.8887ZM124.128 55.08L125.194 54.9442L125.765 59.3778L124.699 59.5136L124.128 55.08ZM121.092 42.2027L118.724 43.0814L120.082 46.7401L119.051 47.1236L117.226 42.2107L124.803 39.3988L126.616 44.2877L125.582 44.6711L124.232 41.0364L122.099 41.8273L123.265 44.9587L122.254 45.3342L121.088 42.2027H121.092ZM118.999 39.6824C118.628 39.8741 118.264 39.9939 117.901 40.0419C117.537 40.0858 117.194 40.0658 116.87 39.97C116.543 39.8741 116.247 39.7103 115.976 39.4787C115.704 39.247 115.472 38.9474 115.285 38.584C115.097 38.2285 114.985 37.873 114.953 37.5215C114.917 37.17 114.953 36.8385 115.065 36.523C115.173 36.2034 115.353 35.9079 115.596 35.6363C115.844 35.3647 116.147 35.129 116.519 34.9293L121.316 32.4329L121.927 33.5992L117.142 36.1156C116.918 36.2394 116.723 36.3752 116.563 36.523C116.403 36.6747 116.283 36.8345 116.203 37.0063C116.131 37.17 116.095 37.3418 116.099 37.5215C116.103 37.7013 116.155 37.885 116.255 38.0767C116.355 38.2684 116.483 38.4242 116.631 38.536C116.778 38.6479 116.946 38.7198 117.13 38.7557C117.318 38.7877 117.517 38.7797 117.729 38.7358C117.941 38.6918 118.16 38.6119 118.388 38.5041L123.185 36.0077L123.796 37.174L119.007 39.6864L118.999 39.6824ZM117.122 31.2346C117.282 31.0948 117.421 30.9551 117.545 30.8073C117.677 30.6595 117.785 30.4997 117.869 30.3359C117.953 30.1722 118.009 30.0044 118.037 29.8367C118.065 29.6809 118.057 29.5171 118.017 29.3494C117.981 29.1816 117.901 29.0139 117.785 28.8461C117.669 28.6824 117.545 28.5545 117.406 28.4667C117.266 28.3788 117.122 28.3189 116.962 28.2869C116.774 28.251 116.579 28.251 116.371 28.2869C116.163 28.3229 115.956 28.3868 115.748 28.4826C115.588 28.5505 115.428 28.6264 115.269 28.7183C115.109 28.8062 114.957 28.906 114.805 29.0059L113.883 29.645C113.747 29.7408 113.611 29.8447 113.479 29.9605C113.347 30.0763 113.228 30.1962 113.116 30.324C112.972 30.4797 112.852 30.6475 112.76 30.8193C112.664 30.991 112.604 31.1667 112.581 31.3465C112.553 31.4983 112.557 31.658 112.589 31.8178C112.624 31.9776 112.696 32.1373 112.808 32.3011C112.92 32.4649 113.052 32.5927 113.192 32.6805C113.331 32.7724 113.483 32.8363 113.639 32.8723C113.815 32.9122 113.998 32.9202 114.19 32.8922C114.382 32.8643 114.574 32.8203 114.769 32.7564C114.933 32.6925 115.093 32.6166 115.249 32.5328C115.404 32.4489 115.552 32.357 115.696 32.2612L116.619 31.6221C116.79 31.5023 116.958 31.3744 117.118 31.2346M115.724 33.7829C115.464 33.8988 115.201 33.9906 114.937 34.0506C114.705 34.1025 114.47 34.1344 114.23 34.1424C113.99 34.1504 113.759 34.1264 113.531 34.0745L113.331 35.8679L112.173 35.6003L112.429 33.5233C112.329 33.4394 112.233 33.3476 112.145 33.2517C112.057 33.1559 111.973 33.048 111.894 32.9362C111.702 32.6606 111.57 32.385 111.494 32.1054C111.418 31.8258 111.386 31.5502 111.398 31.2746C111.414 30.999 111.47 30.7234 111.57 30.4558C111.67 30.1882 111.802 29.9325 111.965 29.6969C112.113 29.4772 112.289 29.2695 112.485 29.0738C112.68 28.8781 112.896 28.7023 113.124 28.5426L114.034 27.9115C114.286 27.7397 114.542 27.5879 114.809 27.4641C115.077 27.3403 115.341 27.2404 115.608 27.1686C115.904 27.0847 116.199 27.0407 116.495 27.0367C116.79 27.0327 117.074 27.0767 117.35 27.1646C117.609 27.2484 117.857 27.3762 118.093 27.548C118.324 27.7158 118.536 27.9354 118.724 28.207C118.911 28.4786 119.043 28.7542 119.123 29.0338C119.203 29.3134 119.239 29.593 119.227 29.8686C119.211 30.1682 119.151 30.4598 119.043 30.7514C118.935 31.0389 118.784 31.3185 118.592 31.5821C118.436 31.7978 118.256 32.0055 118.049 32.1972C117.845 32.393 117.621 32.5727 117.39 32.7405L116.479 33.3715C116.243 33.5313 115.996 33.6711 115.732 33.7869M115.572 24.129L114.729 24.8439L113.611 23.5298L109.134 27.3403L110.252 28.6544L109.417 29.3654L106.33 25.7386L107.164 25.0277L108.259 26.3138L112.736 22.5033L111.642 21.2172L112.485 20.5022L115.572 24.129ZM108.439 18.1456L103.713 23.2822L102.739 22.3835L107.464 17.247L105.643 15.5694L106.39 14.7546L111.023 19.0164L110.276 19.8312L108.439 18.1456ZM105.631 11.691L103.518 12.0385L102.687 11.4434L104.404 10.8123L105.631 11.695V11.691ZM99.2279 15.0541L97.7541 17.1032L100.925 19.3799L100.282 20.2746L96.0286 17.215L100.746 10.6485L104.98 13.6921L104.337 14.5908L101.189 12.3301L99.859 14.1794L102.575 16.1286L101.948 17.0033L99.2319 15.0541H99.2279ZM93.6201 15.8011L95.3575 12.6456L92.977 11.3315L91.2395 14.487L90.1012 13.8599L93.9995 6.77816L95.1379 7.40524L93.5082 10.3649L95.8928 11.679L97.5224 8.71934L98.6647 9.35042L94.7664 16.4321L93.6241 15.8011H93.6201ZM89.6898 6.07518L87.0736 12.5458L85.8434 12.0465L88.4596 5.5759L86.1629 4.64925L86.5783 3.62274L92.4138 5.98331L91.9984 7.00982L89.6858 6.07518H89.6898ZM82.3245 8.0563C82.2885 7.89653 82.2166 7.74476 82.1088 7.59697C81.9929 7.45318 81.8492 7.31338 81.6774 7.17758C81.5057 7.04178 81.3099 6.90597 81.0863 6.77416C80.7467 6.57046 80.4432 6.35078 80.1756 6.11512C79.908 5.87946 79.6883 5.63981 79.5245 5.38818C79.3568 5.13654 79.2489 4.87292 79.193 4.59333C79.1371 4.31374 79.1491 4.02216 79.233 3.71461C79.3208 3.38309 79.4766 3.10349 79.6923 2.87582C79.908 2.64815 80.1636 2.47241 80.4552 2.34859C80.7507 2.22877 81.0703 2.16486 81.4218 2.15287C81.7733 2.14089 82.1247 2.18482 82.4842 2.28068C82.8637 2.38453 83.1992 2.53632 83.4948 2.74002C83.7903 2.94373 84.03 3.18338 84.2177 3.45498C84.4014 3.73058 84.5253 4.03414 84.5892 4.36167C84.6491 4.69318 84.6331 5.03269 84.5373 5.38818L83.2631 5.04068C83.299 4.84097 83.307 4.64925 83.2831 4.46951C83.2591 4.28977 83.2072 4.12201 83.1193 3.97423C83.0274 3.82644 82.9076 3.69863 82.7518 3.5828C82.5961 3.47096 82.4044 3.38308 82.1807 3.32317C81.985 3.26725 81.7972 3.24728 81.6175 3.25527C81.4378 3.26326 81.274 3.29521 81.1262 3.35513C80.9784 3.41903 80.8506 3.50691 80.7468 3.62673C80.6429 3.74257 80.567 3.88635 80.5191 4.05411C80.4752 4.23385 80.4791 4.40161 80.5311 4.56138C80.583 4.72114 80.6709 4.86893 80.7947 5.00872C80.9185 5.15252 81.0743 5.28433 81.25 5.41214C81.4298 5.53996 81.6175 5.66777 81.8172 5.79159C82.0688 5.94337 82.3125 6.11512 82.5442 6.30285C82.7758 6.49057 82.9795 6.69428 83.1553 6.92195C83.3749 7.20554 83.5267 7.51309 83.6146 7.84461C83.7025 8.17613 83.6945 8.53161 83.5946 8.90707C83.4988 9.25456 83.343 9.53815 83.1273 9.76582C82.9116 9.98949 82.656 10.1572 82.3684 10.2691C82.0728 10.3849 81.7493 10.4448 81.3978 10.4448C81.0463 10.4448 80.6948 10.4009 80.3314 10.301C79.9479 10.1972 79.5884 10.0334 79.2489 9.81375C78.9094 9.59407 78.6338 9.33045 78.4181 9.02689C78.2224 8.74331 78.0906 8.43975 78.0187 8.10823C77.9468 7.7807 77.9628 7.42522 78.0627 7.04976L79.3488 7.39726C79.3009 7.64091 79.2969 7.86458 79.3328 8.06429C79.3688 8.264 79.4446 8.43975 79.5605 8.59552C79.6723 8.75129 79.8161 8.8871 79.9958 8.99494C80.1756 9.10678 80.3793 9.19065 80.6149 9.25456C80.8107 9.30649 81.0024 9.33444 81.1821 9.33444C81.3659 9.33444 81.5296 9.30648 81.6814 9.24657C81.8292 9.19065 81.953 9.10678 82.0648 8.99494C82.1727 8.8831 82.2526 8.73931 82.2965 8.56756C82.3444 8.38782 82.3524 8.21607 82.3165 8.0563M73.0579 4.9608L72.6345 7.45318L76.4809 8.10423L76.2972 9.18666L71.1287 8.31193L72.4788 0.343501L77.6193 1.21423L77.4356 2.30466L73.6171 1.65759L73.2377 3.90234L76.5329 4.46152L76.3531 5.52398L73.0579 4.96479V4.9608ZM58.9504 4.7491L59.1501 7.26545L63.0405 6.96189L63.1283 8.0563L57.9039 8.4677L57.2728 0.40741L62.4693 0L62.5572 1.1024L58.6948 1.40596L58.8705 3.67466L62.2017 3.41504L62.2856 4.48948L58.9544 4.7491H58.9504ZM55.1359 8.93502L51.4373 4.01816L52.5557 9.46625L51.2336 9.73786L49.596 1.82135L50.9221 1.54575L54.6007 6.44265L53.4903 1.01452L54.8044 0.742921L56.442 8.65942L55.132 8.93103L55.1359 8.93502ZM47.2154 2.48039L47.547 3.53487L45.9013 4.05411L47.6668 9.66197L49.3124 9.14272L49.6439 10.1892L45.0985 11.6191L44.767 10.5726L46.3767 10.0654L44.6112 4.45753L43.0016 4.96479L42.67 3.91032L47.2114 2.48039H47.2154ZM42.9896 10.9361C42.9896 11.2876 42.9257 11.6191 42.8018 11.9227C42.674 12.2342 42.4863 12.5138 42.2347 12.7695C41.983 13.0251 41.6715 13.2328 41.3 13.4045C40.9965 13.5443 40.7009 13.6322 40.4093 13.6642C40.1177 13.6961 39.8382 13.6841 39.5705 13.6242C39.3149 13.5723 39.0673 13.4764 38.8316 13.3446C38.596 13.2088 38.3763 13.0451 38.1686 12.8533C37.9609 12.6616 37.7732 12.4419 37.5974 12.1863C37.4217 11.9307 37.2659 11.6551 37.1261 11.3595L36.6628 10.357C36.531 10.0734 36.4271 9.78579 36.3512 9.49821C36.2753 9.21063 36.2314 8.92704 36.2194 8.64744C36.1994 8.33989 36.2194 8.04033 36.2793 7.75274C36.3432 7.46516 36.4431 7.19755 36.5789 6.94991C36.7147 6.72224 36.8824 6.51055 37.0901 6.32282C37.2938 6.13509 37.5415 5.97533 37.8251 5.84352C38.2125 5.66378 38.584 5.56392 38.9395 5.53995C39.2949 5.51199 39.6305 5.55593 39.942 5.66377C40.2575 5.77561 40.5491 5.95136 40.8127 6.19101C41.0764 6.43466 41.312 6.72623 41.5157 7.07772L40.3055 7.63691C40.1856 7.42522 40.0538 7.24947 39.91 7.10169C39.7663 6.9539 39.6145 6.84207 39.4467 6.76618C39.279 6.69428 39.0992 6.66232 38.9075 6.67031C38.7158 6.6783 38.5081 6.73422 38.2844 6.83807C38.1246 6.90996 37.9928 6.99784 37.889 7.10169C37.7811 7.20154 37.7013 7.31738 37.6374 7.4412C37.5495 7.60097 37.4936 7.7807 37.4776 7.97642C37.4616 8.17613 37.4656 8.38383 37.4976 8.59951C37.5335 8.78724 37.5814 8.98296 37.6453 9.18267C37.7092 9.38238 37.7891 9.58209 37.881 9.7818L38.3483 10.7963C38.4602 11.04 38.58 11.2636 38.7078 11.4673C38.8356 11.6671 38.9714 11.8468 39.1152 11.9946C39.231 12.1224 39.3509 12.2262 39.4787 12.3141C39.6065 12.402 39.7423 12.4659 39.8821 12.5058C40.0299 12.5538 40.1856 12.5697 40.3414 12.5538C40.5012 12.5378 40.665 12.4939 40.8407 12.41C41.0484 12.3141 41.2201 12.1983 41.352 12.0665C41.4838 11.9307 41.5836 11.7789 41.6435 11.6071C41.6995 11.4434 41.7234 11.2557 41.7114 11.0559C41.6995 10.8522 41.6515 10.6366 41.5716 10.4049L42.7859 9.8457C42.9177 10.2172 42.9816 10.5806 42.9816 10.9321M32.4768 13.9517L33.8109 16.0966L37.1261 14.0356L37.7053 14.9663L33.2557 17.7382L28.9819 10.8762L33.4075 8.12021L33.9906 9.05884L30.7034 11.1079L31.9057 13.0411L34.7416 11.2756L35.3127 12.1903L32.4768 13.9557V13.9517ZM28.1791 20.1747L28.7303 19.7513C28.918 19.6075 29.0738 19.4518 29.1936 19.284C29.3174 19.1202 29.4053 18.9445 29.4692 18.7608C29.5291 18.573 29.5611 18.3733 29.5611 18.1616C29.5611 17.9499 29.5251 17.7342 29.4572 17.5106C29.3973 17.3189 29.3174 17.1271 29.2136 16.9314C29.1097 16.7357 28.9819 16.54 28.8301 16.3443L28.4387 15.833C28.2909 15.6373 28.1351 15.4695 27.9714 15.3178C27.8076 15.166 27.6439 15.0422 27.4721 14.9383C27.2644 14.8145 27.0447 14.7226 26.8171 14.6667C26.5894 14.6108 26.3577 14.6028 26.1261 14.6347C25.9583 14.6587 25.7866 14.7066 25.6108 14.7825C25.4351 14.8584 25.2633 14.9623 25.0916 15.0901L24.5763 15.4855L28.1831 20.1707L28.1791 20.1747ZM22.8388 15.4496L24.4245 14.2313C24.7001 14.0196 24.9837 13.8519 25.2753 13.7281C25.5669 13.6042 25.8545 13.5204 26.142 13.4764C26.4456 13.4245 26.7492 13.4205 27.0527 13.4605C27.3563 13.5044 27.6439 13.5883 27.9235 13.7161C28.211 13.8479 28.4906 14.0236 28.7622 14.2393C29.0299 14.459 29.2855 14.7186 29.5171 15.0182L29.9046 15.5215C30.1283 15.813 30.308 16.1086 30.4478 16.4162C30.5876 16.7237 30.6834 17.0233 30.7394 17.3268C30.7913 17.6184 30.8033 17.91 30.7833 18.1976C30.7593 18.4852 30.7034 18.7648 30.6076 19.0284C30.4997 19.3239 30.3439 19.6035 30.1402 19.8711C29.9405 20.1388 29.6889 20.3864 29.3973 20.6101L27.7797 21.8563L22.8468 15.4536L22.8388 15.4496ZM19.292 15.9968L19.276 18.1417L18.5491 18.8606L18.2175 17.0592L19.292 15.9968ZM21.5327 22.8748L23.3062 24.6722L26.0861 21.9322L26.857 22.715L23.1264 26.3977L17.4507 20.642L21.1613 16.9793L21.9361 17.7662L19.1802 20.4902L20.7778 22.1079L23.1584 19.7593L23.9133 20.5262L21.5327 22.8748ZM16.8755 26.6972L14.8544 23.6816L15.8849 22.3795L22.2157 27.4042L21.4369 28.3868L19.288 26.6813L16.508 24.3766L18.7568 27.7517L18.3254 28.2949L14.7066 26.861L17.4746 28.9659L19.6235 30.6715L18.8446 31.65L12.5138 26.6253L13.5403 25.3312L16.8715 26.7012L16.8755 26.6972ZM9.74185 40.3774L12.0345 41.4358L13.6682 37.893L14.6667 38.3523L12.4739 43.1134L5.13255 39.7303L7.31738 34.9972L8.31992 35.4605L6.69828 38.9794L8.76727 39.934L10.1652 36.8984L11.1438 37.3498L9.74585 40.3854L9.74185 40.3774ZM9.63402 47.8865L9.84571 47.2274C9.9176 47.0037 9.95754 46.7841 9.96553 46.5804C9.96952 46.3727 9.94955 46.1769 9.89364 45.9932C9.83772 45.8055 9.74984 45.6257 9.63002 45.45C9.51019 45.2743 9.35841 45.1185 9.17468 44.9747C9.0189 44.8509 8.84316 44.739 8.64745 44.6352C8.45173 44.5313 8.23604 44.4435 7.99639 44.3676L7.38528 44.1719C7.15361 44.096 6.92595 44.044 6.70627 44.0121C6.48658 43.9801 6.27888 43.9682 6.07917 43.9801C5.83553 43.9961 5.60387 44.044 5.38419 44.1319C5.16451 44.2158 4.96879 44.3356 4.79704 44.4954C4.66922 44.6112 4.55738 44.747 4.45753 44.9108C4.35767 45.0746 4.2698 45.2543 4.2019 45.458L4.00219 46.0771L9.63002 47.8945L9.63402 47.8865ZM2.55629 47.0197L3.1714 45.1185C3.27924 44.787 3.41505 44.4874 3.5868 44.2198C3.75855 43.9522 3.94627 43.7205 4.15796 43.5248C4.37765 43.3091 4.62529 43.1334 4.90089 42.9976C5.17249 42.8618 5.46007 42.7659 5.76363 42.714C6.07518 42.6581 6.4067 42.6461 6.7502 42.67C7.0937 42.698 7.44918 42.7659 7.81265 42.8857L8.41578 43.0814C8.76328 43.1933 9.08281 43.3371 9.3704 43.5088C9.65798 43.6806 9.90961 43.8763 10.1253 44.092C10.333 44.3037 10.5087 44.5353 10.6525 44.783C10.7963 45.0346 10.9042 45.2942 10.9761 45.5658C11.052 45.8694 11.0839 46.1929 11.0679 46.5244C11.052 46.86 10.988 47.2035 10.8762 47.5549L10.2491 49.5001L2.55629 47.0157V47.0197ZM5.93938 57.125C6.35478 57.165 6.73023 57.2648 7.05775 57.4246C7.38528 57.5844 7.66088 57.7921 7.88056 58.0477C8.10024 58.3073 8.264 58.6069 8.36386 58.9504C8.46371 59.2939 8.49566 59.6694 8.45572 60.0768C8.41578 60.4762 8.31592 60.8357 8.15616 61.1472C7.99239 61.4588 7.7807 61.7184 7.51709 61.9221C7.25347 62.1298 6.94192 62.2816 6.58644 62.3774C6.23095 62.4733 5.84751 62.5012 5.42812 62.4653L0.0479345 61.9421L0.171754 60.632L5.55593 61.1312C5.81156 61.1512 6.04722 61.1432 6.26291 61.1033C6.48259 61.0633 6.67032 60.9954 6.82609 60.8956C6.97787 60.7997 7.0977 60.6719 7.19356 60.5201C7.28942 60.3683 7.34534 60.1846 7.36531 59.9729C7.38528 59.7532 7.3653 59.5575 7.3014 59.3858C7.23749 59.21 7.13764 59.0582 7.00183 58.9304C6.86204 58.8026 6.69029 58.6988 6.48658 58.6189C6.28288 58.539 6.05921 58.4871 5.80757 58.4551L0.427382 57.9319L0.551202 56.6218L5.93538 57.129L5.93938 57.125ZM4.56937 67.9333L7.0937 67.8615L6.98187 63.9591L8.08027 63.9272L8.22806 69.1676L0.14779 69.3992L0 64.1868L1.1064 64.1548L1.21823 68.0292L3.49493 67.9653L3.39907 64.6222L4.4735 64.5902L4.56937 67.9333ZM0.395428 72.1233L1.48584 71.9555L1.74946 73.661L7.56102 72.7624L7.29741 71.0568L8.38383 70.8891L9.11077 75.5982L8.02435 75.766L7.76473 74.0964L1.95316 74.9951L2.20879 76.6647L1.11838 76.8324L0.391436 72.1233H0.395428ZM8.37185 77.4475L9.43431 77.1719L10.7404 82.2006L2.91577 84.2337L2.58026 82.9396L9.33844 81.1821L8.36785 77.4475H8.37185Z" fill="#C0DDCE"/>
</svg>
