<svg width="12" height="12" viewBox="0 0 12 12" fill="none" xmlns="http://www.w3.org/2000/svg">
<path d="M7.95902 6.97132L6.42531 5.82104V3.47791C6.42531 3.24232 6.23487 3.05188 5.99928 3.05188C5.76368 3.05188 5.57324 3.24232 5.57324 3.47791V6.03408C5.57324 6.16827 5.6363 6.29482 5.74366 6.37491L7.44775 7.653C7.5213 7.70838 7.61088 7.73829 7.70295 7.7382C7.83288 7.7382 7.96069 7.67983 8.0442 7.56736C8.18568 7.37946 8.14733 7.11234 7.95902 6.97132Z" fill="black"/>
<path d="M6 0.5C2.96712 0.5 0.5 2.96712 0.5 6C0.5 9.03288 2.96712 11.5 6 11.5C9.03288 11.5 11.5 9.03288 11.5 6C11.5 2.96712 9.03288 0.5 6 0.5ZM6 10.648C3.43745 10.648 1.35205 8.56255 1.35205 6C1.35205 3.43745 3.43745 1.35205 6 1.35205C8.56298 1.35205 10.648 3.43745 10.648 6C10.648 8.56255 8.56255 10.648 6 10.648Z" fill="black"/>
</svg>
