<svg width="40" height="40" viewBox="0 0 40 40" fill="none" xmlns="http://www.w3.org/2000/svg">
<rect x="0.5" y="0.5" width="39" height="39" rx="5.5" fill="#C0DDCE"/>
<rect x="0.5" y="0.5" width="39" height="39" rx="5.5" stroke="#C0DDCE"/>
<path fill-rule="evenodd" clip-rule="evenodd" d="M25.4 20.0043C26.0733 20.0041 26.733 19.817 27.3043 19.4642C27.8756 19.1114 28.3355 18.607 28.6318 18.0084C28.928 17.4097 29.0489 16.7408 28.9805 16.0776C28.9121 15.4143 28.6572 14.7834 28.2449 14.2564C27.8325 13.7294 27.2791 13.3275 26.6476 13.0963C26.0161 12.865 25.3318 12.8138 24.6724 12.9484C24.013 13.083 23.4049 13.3979 22.9172 13.8575C22.4295 14.3172 22.0817 14.903 21.9134 15.5485H11.9C11.6613 15.5485 11.4324 15.6424 11.2636 15.8095C11.0948 15.9766 11 16.2033 11 16.4397C11 16.676 11.0948 16.9027 11.2636 17.0698C11.4324 17.2369 11.6613 17.3308 11.9 17.3308H21.9134C22.313 18.8681 23.7224 20.0043 25.4 20.0043ZM23.6 16.4397C23.6 16.9124 23.7896 17.3657 24.1272 17.6999C24.4648 18.0342 24.9226 18.222 25.4 18.222C25.8774 18.222 26.3352 18.0342 26.6728 17.6999C27.0104 17.3657 27.2 16.9124 27.2 16.4397C27.2 15.967 27.0104 15.5136 26.6728 15.1794C26.3352 14.8451 25.8774 14.6573 25.4 14.6573C24.9226 14.6573 24.4648 14.8451 24.1272 15.1794C23.7896 15.5136 23.6 15.967 23.6 16.4397ZM11 23.569C10.9991 22.7007 11.3183 21.862 11.8976 21.2103C12.477 20.5586 13.2766 20.1386 14.1464 20.0292C15.0163 19.9198 15.8966 20.1285 16.622 20.6162C17.3475 21.1038 17.8683 21.8369 18.0866 22.6778H28.1C28.3387 22.6778 28.5676 22.7717 28.7364 22.9388C28.9052 23.1059 29 23.3326 29 23.569C29 23.8053 28.9052 24.032 28.7364 24.1991C28.5676 24.3662 28.3387 24.4601 28.1 24.4601H18.0866C17.8654 25.2983 17.3438 26.028 16.619 26.5132C15.8942 26.9983 15.0159 27.2057 14.148 27.0966C13.2801 26.9874 12.482 26.5692 11.9027 25.9201C11.3234 25.271 11.0026 24.4352 11 23.569ZM16.4 23.569C16.4 23.0963 16.2104 22.6429 15.8728 22.3087C15.5352 21.9744 15.0774 21.7866 14.6 21.7866C14.1226 21.7866 13.6648 21.9744 13.3272 22.3087C12.9896 22.6429 12.8 23.0963 12.8 23.569C12.8 24.0417 12.9896 24.495 13.3272 24.8293C13.6648 25.1635 14.1226 25.3513 14.6 25.3513C15.0774 25.3513 15.5352 25.1635 15.8728 24.8293C16.2104 24.495 16.4 24.0417 16.4 23.569Z" fill="black"/>
</svg>
