<svg width="229" height="215" viewBox="0 0 229 215" fill="none" xmlns="http://www.w3.org/2000/svg">
<path d="M141.656 116.011H141.343C137.216 116.011 134.488 117.944 133.244 120.726H132.622C131.609 117.824 128.727 116.011 124.909 116.011H124.6C120.55 116.011 117.903 117.944 116.968 120.726H116.269V116.614H110.816V146.114H116.269V126.104C116.269 121.269 119.619 119.999 122.733 119.999H123.043C125.77 119.999 127.637 121.208 127.637 124.774V146.111H133.089V126.101C133.089 121.265 136.517 119.995 139.554 119.995H139.867C142.672 119.995 144.539 121.205 144.539 124.77V146.107H149.991V123.802C149.991 118.906 146.563 116.004 141.656 116.004V116.011Z" fill="black"/>
<path d="M181.33 141.356V127.591C181.33 119.491 177.621 115.553 169.997 115.553H169.877C162.618 115.553 158.076 119.558 157.419 126.544L157.387 126.874H162.555L162.583 126.601C163.026 122.24 165.346 120.115 169.677 120.108C173.403 120.101 176.458 123.17 176.458 126.931V128.637L167.35 129.801C159.925 130.73 156.47 133.413 156.47 138.245V138.603C156.47 144.106 160.85 146.568 165.191 146.568H165.427C170.742 146.568 173.744 143.23 175.305 140.352C175.589 139.827 175.8 139.263 175.948 138.681L176.067 138.22L176.651 138.241L176.894 145.968H186.49V141.353H181.33V141.356ZM166.084 142.076H165.845C163.026 142.076 161.342 140.735 161.342 138.486V138.128C161.342 135.566 163.216 134.342 168.017 133.757L176.458 132.721C176.335 138.862 171.178 142.073 166.084 142.073V142.076Z" fill="black"/>
<path d="M88.751 115.524C79.5234 115.524 72.8232 122.06 72.8232 131.064C72.8232 140.068 79.5234 146.604 88.751 146.604C97.9787 146.604 104.623 140.068 104.623 131.064C104.623 122.06 97.947 115.524 88.751 115.524ZM88.751 141.754C82.4094 141.754 77.9802 137.358 77.9802 131.064C77.9802 124.77 82.4094 120.314 88.751 120.314C95.0926 120.314 99.4621 124.735 99.4621 131.064C99.4621 137.393 95.0574 141.754 88.751 141.754Z" fill="black"/>
<path d="M62.0522 129.954L61.5074 129.801C59.8903 129.351 57.862 129.525 56.9621 130.926L56.5684 131.629L56.0587 131.519C56.0165 130.678 55.7107 129.897 55.215 129.276C54.7158 128.655 54.0233 128.191 53.2113 127.981C50.1952 127.204 48.1844 126.147 48.1844 123.497C48.1844 121.773 49.1265 118.885 55.4294 118.885H55.8091C61.2261 118.885 63.7325 120.921 63.9435 125.491V125.562H68.7418V125.484C68.4782 118.523 63.8626 114.688 55.7458 114.688H55.4294C48.0825 114.688 43.5196 118.086 43.5196 123.561C43.5196 130.117 49.8507 131.426 55.9743 132.686L55.9673 132.696L56.0692 132.718C60.9062 133.693 64.7239 134.467 64.7239 138.178C64.7239 141.541 62.0839 143.177 56.6528 143.177H56.3329C50.1354 143.177 47.5235 141.208 47.3091 136.379V136.308H42.5107V136.386C42.7779 143.62 47.5552 147.441 56.3329 147.441H56.6528C60.5196 147.441 63.7396 146.586 65.9612 144.972C68.204 143.344 69.3886 140.974 69.3886 138.121C69.3886 135.843 68.6926 134.059 67.2619 132.672C66.0808 131.526 64.4251 130.663 62.0557 129.957L62.0522 129.954Z" fill="black"/>
<path d="M71.4199 159.065H72.348L73.6838 161.825L75.0196 159.065H75.9476V163.446H75.2481V160.09L74.0564 162.574H73.3182L72.1265 160.09V163.446H71.427V159.065H71.4199Z" fill="black"/>
<path d="M77.7578 159.065H80.8091V159.714H78.4574V160.956H80.44V161.569H78.4574V162.797H80.8091V163.446H77.7578V159.065ZM78.4117 158.32L79.6174 157.507L79.9232 158.043L78.6612 158.742L78.4152 158.316L78.4117 158.32Z" fill="black"/>
<path d="M82.3877 163.446V159.065H83.9872C84.3211 159.065 84.6234 159.118 84.8941 159.221C85.1648 159.324 85.4003 159.476 85.5936 159.668C85.787 159.863 85.9381 160.094 86.0471 160.36C86.1561 160.626 86.2088 160.924 86.2088 161.254C86.2088 161.584 86.1561 161.878 86.0471 162.151C85.9381 162.425 85.787 162.652 85.5936 162.843C85.4003 163.035 85.1648 163.184 84.8941 163.287C84.6234 163.39 84.3211 163.443 83.9872 163.443H82.3877V163.446ZM83.0908 162.772H83.9907C84.2156 162.772 84.4195 162.737 84.5988 162.666C84.7816 162.595 84.9363 162.492 85.0663 162.361C85.1964 162.229 85.2948 162.07 85.3687 161.882C85.4425 161.694 85.4741 161.484 85.4741 161.254C85.4741 161.023 85.439 160.814 85.3687 160.626C85.2984 160.438 85.1964 160.278 85.0663 160.147C84.9363 160.016 84.7816 159.916 84.5988 159.842C84.416 159.771 84.2156 159.735 83.9907 159.735H83.0908V162.769V162.772Z" fill="black"/>
<path d="M87.7344 159.065H90.7856V159.714H88.4339V160.956H90.4165V161.569H88.4339V162.797H90.7856V163.446H87.7344V159.065Z" fill="black"/>
<path d="M92.0127 161.254C92.0127 160.945 92.0725 160.65 92.1885 160.377C92.3045 160.104 92.4662 159.863 92.6665 159.657C92.8704 159.451 93.106 159.292 93.3801 159.174C93.6508 159.057 93.9426 158.997 94.2555 158.997C94.5261 158.997 94.7792 159.036 95.0148 159.107C95.2468 159.182 95.4577 159.288 95.6405 159.423C95.8233 159.561 95.9779 159.728 96.108 159.923C96.2346 160.118 96.326 160.338 96.3822 160.583H95.5913C95.4928 160.31 95.3241 160.093 95.0921 159.934C94.8601 159.774 94.5789 159.7 94.2555 159.7C94.048 159.7 93.8547 159.739 93.6719 159.82C93.4891 159.902 93.3309 160.012 93.1973 160.154C93.0638 160.296 92.9548 160.459 92.8739 160.647C92.7931 160.835 92.7544 161.034 92.7544 161.25C92.7544 161.466 92.7931 161.665 92.8739 161.853C92.9548 162.041 93.0602 162.204 93.1973 162.343C93.3344 162.481 93.4926 162.595 93.6719 162.676C93.8512 162.758 94.048 162.8 94.2555 162.8C94.5789 162.8 94.8566 162.722 95.0921 162.566C95.3276 162.41 95.4928 162.194 95.5913 161.917H96.3822C96.326 162.162 96.2346 162.382 96.108 162.577C95.9815 162.772 95.8233 162.939 95.6405 163.077C95.4577 163.215 95.2468 163.322 95.0148 163.393C94.7827 163.464 94.5296 163.503 94.2555 163.503C93.9461 163.503 93.6543 163.443 93.3801 163.325C93.1095 163.208 92.8704 163.045 92.6665 162.843C92.4626 162.637 92.3045 162.399 92.1885 162.126C92.0725 161.853 92.0127 161.562 92.0127 161.246V161.254Z" fill="black"/>
<path d="M97.8691 159.065H98.5687V163.446H97.8691V159.065Z" fill="black"/>
<path d="M100.375 159.065H101.268L103.335 162.446V159.065H104.034V163.446H103.142L101.075 160.065V163.446H100.375V159.065Z" fill="black"/>
<path d="M105.845 159.065H108.896V159.714H106.544V160.956H108.527V161.569H106.544V162.797H108.896V163.446H105.845V159.065Z" fill="black"/>
<path d="M112.746 159.065H115.797V159.714H113.446V160.956H115.428V161.569H113.446V162.797H115.797V163.446H112.746V159.065Z" fill="black"/>
<path d="M117.234 160.288C117.234 159.877 117.375 159.561 117.656 159.337C117.937 159.114 118.331 159 118.841 159C119.351 159 119.755 159.121 120.036 159.362C120.317 159.603 120.468 159.93 120.479 160.341H119.727C119.723 160.249 119.702 160.16 119.667 160.072C119.632 159.983 119.576 159.908 119.502 159.841C119.428 159.777 119.333 159.724 119.221 159.685C119.104 159.646 118.967 159.625 118.809 159.625C118.549 159.625 118.345 159.681 118.191 159.795C118.036 159.908 117.962 160.065 117.962 160.267C117.962 160.387 117.99 160.49 118.046 160.572C118.103 160.654 118.18 160.721 118.275 160.774C118.37 160.827 118.482 160.874 118.609 160.909C118.735 160.944 118.865 160.976 119.003 161.008C119.185 161.047 119.368 161.09 119.554 161.133C119.741 161.175 119.91 161.242 120.061 161.328C120.212 161.416 120.335 161.53 120.43 161.679C120.525 161.824 120.574 162.016 120.574 162.25C120.574 162.647 120.437 162.956 120.163 163.18C119.888 163.403 119.481 163.513 118.943 163.513C118.405 163.513 117.937 163.392 117.621 163.151C117.305 162.91 117.146 162.58 117.146 162.168H117.899C117.934 162.399 118.039 162.576 118.215 162.701C118.391 162.825 118.633 162.889 118.936 162.889C119.217 162.889 119.435 162.839 119.597 162.736C119.755 162.633 119.836 162.495 119.836 162.321C119.836 162.2 119.808 162.098 119.748 162.019C119.688 161.941 119.611 161.878 119.516 161.828C119.421 161.778 119.305 161.736 119.178 161.704C119.052 161.672 118.918 161.643 118.781 161.615C118.598 161.58 118.419 161.541 118.236 161.491C118.053 161.441 117.888 161.374 117.741 161.278C117.593 161.186 117.47 161.062 117.378 160.905C117.287 160.749 117.238 160.547 117.238 160.295L117.234 160.288Z" fill="black"/>
<path d="M123.13 159.707H121.625V159.065H125.33V159.707H123.826V163.446H123.126V159.707H123.13Z" fill="black"/>
<path d="M126.624 159.065H127.324V161.034H129.584V159.065H130.283V163.446H129.584V161.687H127.324V163.446H126.624V159.065Z" fill="black"/>
<path d="M132.098 159.065H135.149V159.714H132.797V160.956H134.78V161.569H132.797V162.797H135.149V163.446H132.098V159.065ZM132.752 158.32L133.957 157.507L134.263 158.043L133.001 158.742L132.755 158.316L132.752 158.32Z" fill="black"/>
<path d="M137.712 159.707H136.207V159.065H139.912V159.707H138.408V163.446H137.708V159.707H137.712Z" fill="black"/>
<path d="M141.202 159.065H141.902V163.446H141.202V159.065Z" fill="black"/>
<path d="M146.989 163.968L146.475 163.347C146.212 163.457 145.941 163.51 145.66 163.51C145.35 163.51 145.059 163.45 144.784 163.333C144.51 163.216 144.275 163.053 144.071 162.85C143.867 162.645 143.709 162.407 143.593 162.134C143.477 161.86 143.417 161.57 143.417 161.254C143.417 160.938 143.477 160.651 143.593 160.377C143.709 160.104 143.87 159.863 144.071 159.657C144.275 159.451 144.51 159.292 144.784 159.175C145.059 159.058 145.347 158.997 145.66 158.997C145.973 158.997 146.261 159.058 146.535 159.175C146.809 159.292 147.045 159.455 147.249 159.657C147.453 159.859 147.611 160.101 147.727 160.377C147.843 160.651 147.902 160.945 147.902 161.254C147.902 161.616 147.829 161.949 147.678 162.251C147.526 162.552 147.322 162.811 147.062 163.021L147.832 163.968H146.989ZM144.155 161.254C144.155 161.467 144.194 161.669 144.275 161.857C144.356 162.045 144.465 162.208 144.598 162.346C144.735 162.485 144.893 162.598 145.073 162.68C145.255 162.762 145.449 162.804 145.656 162.804C145.864 162.804 146.06 162.762 146.243 162.68C146.426 162.598 146.588 162.485 146.721 162.346C146.858 162.208 146.964 162.045 147.041 161.857C147.119 161.669 147.157 161.47 147.157 161.254C147.157 161.037 147.119 160.839 147.038 160.651C146.957 160.463 146.848 160.299 146.714 160.157C146.577 160.016 146.419 159.906 146.24 159.824C146.057 159.742 145.864 159.703 145.656 159.703C145.449 159.703 145.255 159.742 145.073 159.824C144.89 159.906 144.732 160.016 144.598 160.157C144.465 160.299 144.356 160.463 144.275 160.651C144.194 160.839 144.155 161.037 144.155 161.254Z" fill="black"/>
<path d="M151.178 163.51C150.598 163.51 150.152 163.354 149.832 163.038C149.512 162.723 149.357 162.283 149.357 161.711V159.065H150.057V161.687C150.057 162.052 150.159 162.336 150.366 162.542C150.57 162.744 150.841 162.847 151.178 162.847C151.516 162.847 151.79 162.744 151.99 162.542C152.191 162.339 152.293 162.056 152.293 161.687V159.065H152.992V161.711C152.992 162.283 152.834 162.726 152.521 163.038C152.205 163.351 151.758 163.51 151.178 163.51Z" fill="black"/>
<path d="M154.743 159.065H157.794V159.714H155.443V160.956H157.425V161.569H155.443V162.797H157.794V163.446H154.743V159.065Z" fill="black"/>
<path d="M95.8477 172.319V171.723H97.2538V168.909H96.0269V168.313H97.9041V171.723H99.2399V172.319H95.8477ZM97.5069 167.593C97.3487 167.593 97.2221 167.551 97.1307 167.469C97.0393 167.387 96.9936 167.274 96.9936 167.136C96.9936 166.997 97.0393 166.873 97.1307 166.788C97.2221 166.703 97.3487 166.66 97.5069 166.66C97.6651 166.66 97.7916 166.703 97.883 166.788C97.9744 166.873 98.0201 166.987 98.0201 167.136C98.0201 167.285 97.9744 167.387 97.883 167.469C97.7916 167.551 97.6651 167.593 97.5069 167.593Z" fill="black"/>
<path d="M100.228 172.319V168.313H100.878V169.079H101.016L100.878 169.232C100.878 168.916 100.973 168.671 101.16 168.501C101.346 168.327 101.606 168.242 101.94 168.242C102.341 168.242 102.657 168.366 102.893 168.615C103.128 168.863 103.248 169.2 103.248 169.626V172.322H102.597V169.7C102.597 169.413 102.524 169.193 102.369 169.04C102.218 168.888 102.01 168.81 101.75 168.81C101.49 168.81 101.269 168.891 101.11 169.058C100.956 169.225 100.875 169.463 100.875 169.771V172.322H100.225L100.228 172.319Z" fill="black"/>
<path d="M106.088 172.393C105.772 172.393 105.494 172.333 105.255 172.212C105.016 172.092 104.833 171.914 104.703 171.684C104.573 171.453 104.51 171.18 104.51 170.864V169.771C104.51 169.452 104.577 169.175 104.703 168.948C104.833 168.721 105.016 168.544 105.255 168.423C105.494 168.303 105.772 168.242 106.088 168.242C106.545 168.242 106.914 168.366 107.192 168.615C107.47 168.863 107.617 169.2 107.631 169.626H106.981C106.967 169.367 106.879 169.172 106.724 169.033C106.566 168.895 106.355 168.828 106.085 168.828C105.8 168.828 105.575 168.909 105.406 169.072C105.237 169.236 105.153 169.466 105.153 169.768V170.868C105.153 171.169 105.237 171.403 105.406 171.567C105.575 171.733 105.8 171.815 106.085 171.815C106.369 171.815 106.566 171.744 106.724 171.602C106.879 171.46 106.967 171.265 106.981 171.013H107.631C107.617 171.442 107.47 171.779 107.192 172.024C106.914 172.269 106.545 172.397 106.088 172.397V172.393Z" fill="black"/>
<path d="M110.932 172.319C110.7 172.319 110.5 172.272 110.328 172.18C110.155 172.088 110.018 171.957 109.923 171.786C109.828 171.616 109.779 171.417 109.779 171.19V167.6H108.443V167.004H110.43V171.194C110.43 171.361 110.475 171.488 110.567 171.584C110.658 171.68 110.781 171.726 110.936 171.726H112.198V172.322H110.936L110.932 172.319Z" fill="black"/>
<path d="M114.714 172.394C114.257 172.394 113.892 172.255 113.617 171.982C113.343 171.709 113.206 171.336 113.206 170.864V168.313H113.856V170.864C113.856 171.166 113.934 171.4 114.088 171.567C114.243 171.734 114.45 171.819 114.718 171.819C114.985 171.819 115.199 171.734 115.357 171.567C115.512 171.4 115.593 171.166 115.593 170.864V168.313H116.243V170.864C116.243 171.336 116.103 171.709 115.825 171.982C115.547 172.255 115.178 172.394 114.721 172.394H114.714Z" fill="black"/>
<path d="M118.929 172.379C118.658 172.379 118.426 172.337 118.226 172.251C118.026 172.166 117.868 172.046 117.752 171.89C117.632 171.733 117.562 171.549 117.537 171.336H118.187C118.216 171.478 118.293 171.588 118.423 171.673C118.55 171.755 118.722 171.797 118.933 171.797H119.235C119.492 171.797 119.681 171.744 119.804 171.641C119.931 171.538 119.991 171.396 119.991 171.223C119.991 171.049 119.935 170.917 119.822 170.818C119.71 170.719 119.541 170.651 119.319 170.619L118.785 170.531C118.395 170.463 118.107 170.339 117.917 170.162C117.727 169.984 117.632 169.725 117.632 169.385C117.632 169.026 117.745 168.746 117.969 168.551C118.194 168.356 118.535 168.257 118.989 168.257H119.263C119.643 168.257 119.949 168.345 120.181 168.526C120.413 168.707 120.55 168.948 120.599 169.254H119.949C119.92 169.126 119.847 169.026 119.731 168.952C119.615 168.877 119.46 168.838 119.263 168.838H118.989C118.743 168.838 118.564 168.885 118.451 168.977C118.339 169.069 118.282 169.207 118.282 169.392C118.282 169.559 118.332 169.679 118.426 169.757C118.521 169.835 118.676 169.892 118.88 169.924L119.414 170.013C119.843 170.08 120.156 170.208 120.349 170.392C120.543 170.577 120.641 170.843 120.641 171.194C120.641 171.563 120.525 171.854 120.29 172.063C120.058 172.273 119.703 172.379 119.231 172.379H118.929Z" fill="black"/>
<path d="M121.833 172.319V171.723H123.239V168.909H122.012V168.313H123.889V171.723H125.225V172.319H121.833ZM123.492 167.593C123.334 167.593 123.207 167.551 123.116 167.469C123.025 167.387 122.979 167.274 122.979 167.136C122.979 166.997 123.025 166.873 123.116 166.788C123.207 166.703 123.334 166.66 123.492 166.66C123.65 166.66 123.777 166.703 123.868 166.788C123.96 166.873 124.005 166.987 124.005 167.136C124.005 167.285 123.96 167.387 123.868 167.469C123.777 167.551 123.65 167.593 123.492 167.593Z" fill="black"/>
<path d="M127.274 172.319L125.945 168.313H126.61L127.489 171.01C127.541 171.17 127.59 171.326 127.633 171.471C127.675 171.62 127.706 171.734 127.728 171.819C127.752 171.737 127.784 171.62 127.83 171.471C127.872 171.322 127.917 171.17 127.967 171.01L128.824 168.313H129.482L128.153 172.319H127.271H127.274Z" fill="black"/>
<path d="M132.044 172.393C131.732 172.393 131.457 172.329 131.225 172.205C130.99 172.077 130.811 171.9 130.684 171.669C130.557 171.439 130.494 171.169 130.494 170.864V169.771C130.494 169.459 130.557 169.189 130.684 168.962C130.811 168.735 130.993 168.558 131.225 168.43C131.457 168.303 131.732 168.242 132.044 168.242C132.357 168.242 132.631 168.306 132.863 168.43C133.095 168.558 133.278 168.735 133.405 168.962C133.531 169.189 133.595 169.459 133.595 169.771V170.477H131.127V170.864C131.127 171.18 131.208 171.421 131.366 171.588C131.524 171.755 131.749 171.84 132.044 171.84C132.294 171.84 132.498 171.794 132.649 171.705C132.804 171.616 132.899 171.481 132.93 171.3H133.581C133.538 171.634 133.377 171.9 133.092 172.099C132.811 172.294 132.459 172.393 132.041 172.393H132.044ZM132.962 170.041V169.771C132.962 169.456 132.885 169.214 132.726 169.044C132.568 168.874 132.343 168.789 132.044 168.789C131.746 168.789 131.524 168.874 131.366 169.044C131.208 169.214 131.127 169.456 131.127 169.771V169.981H133.011L132.962 170.041Z" fill="black"/>
<path d="M114.5 61.0872H132.811V42.6064C122.697 42.6064 114.5 50.88 114.5 61.0872ZM114.5 79.568H96.1885V98.0488C106.302 98.0488 114.5 89.7752 114.5 79.568ZM114.5 61.0872V42.6064C104.386 42.6064 96.1885 50.88 96.1885 61.0872C96.1885 71.2944 104.386 79.568 114.5 79.568V98.0488C124.613 98.0488 132.811 89.7752 132.811 79.568C132.811 69.3608 124.613 61.0872 114.5 61.0872Z" fill="white"/>
</svg>
