<svg width="26" height="26" viewBox="0 0 26 26" fill="none" xmlns="http://www.w3.org/2000/svg">
<g clip-path="url(#clip0_89_1959)">
<path d="M25.9874 13.2432C25.9874 12.178 25.899 11.4007 25.7075 10.5946H13.2588V15.4024H20.5659C20.4186 16.5972 19.6231 18.3966 17.8552 19.6057L17.8304 19.7666L21.7665 22.746L22.0392 22.7726C24.5436 20.5126 25.9874 17.1874 25.9874 13.2432Z" fill="#587365"/>
<path d="M13.2588 25.9107C16.8387 25.9107 19.844 24.759 22.0392 22.7726L17.8552 19.6057C16.7356 20.3686 15.2329 20.9012 13.2588 20.9012C9.75255 20.9012 6.77666 18.6413 5.71584 15.5176L5.56035 15.5305L1.46759 18.6254L1.41406 18.7708C3.59441 23.0029 8.07301 25.9107 13.2588 25.9107Z" fill="#6D9982"/>
<path d="M5.71604 15.518C5.43613 14.7119 5.27414 13.8482 5.27414 12.9557C5.27414 12.0632 5.43613 11.1995 5.70131 10.3934L5.6939 10.2218L1.54984 7.07715L1.41426 7.14016C0.515633 8.89635 0 10.8685 0 12.9557C0 15.043 0.515633 17.015 1.41426 18.7712L5.71604 15.518Z" fill="#C0DDCE"/>
<path d="M13.2588 5.00937C15.7485 5.00937 17.4279 6.06018 18.3856 6.93833L22.1275 3.36839C19.8294 1.28114 16.8387 0 13.2588 0C8.07301 0 3.59441 2.90773 1.41406 7.13978L5.70112 10.3931C6.77666 7.26938 9.75255 5.00937 13.2588 5.00937Z" fill="#D1EFE0"/>
</g>
<defs>
<clipPath id="clip0_89_1959">
<rect width="26" height="26" fill="white"/>
</clipPath>
</defs>
</svg>
