<svg width="14" height="14" viewBox="0 0 14 14" fill="none" xmlns="http://www.w3.org/2000/svg">
<path d="M6.41423 1.01979C6.62227 0.601078 7.21956 0.601078 7.4276 1.01979L9.12663 4.43936C9.20901 4.60517 9.36731 4.72018 9.55046 4.7473L13.3277 5.30646C13.7902 5.37493 13.9748 5.94299 13.6408 6.27023L10.9137 8.94281C10.7814 9.0724 10.721 9.25849 10.7518 9.44106L11.3872 13.2062C11.465 13.6672 10.9818 14.0183 10.5674 13.8019L7.18286 12.034C7.01875 11.9483 6.82308 11.9483 6.65897 12.034L3.27445 13.8019C2.86003 14.0183 2.37681 13.6672 2.45462 13.2062L3.09005 9.44106C3.12086 9.25849 3.0604 9.0724 2.92816 8.94281L0.200977 6.27023C-0.132951 5.94299 0.0516236 5.37493 0.514126 5.30646L4.29137 4.7473C4.47452 4.72018 4.63282 4.60517 4.7152 4.43936L6.41423 1.01979Z" fill="#C0DDCE"/>
</svg>
