<svg width="28" height="28" viewBox="0 0 28 28" fill="none" xmlns="http://www.w3.org/2000/svg">
<mask id="mask0_89_2124" style="mask-type:alpha" maskUnits="userSpaceOnUse" x="0" y="0" width="28" height="28">
<circle cx="14" cy="14" r="14" fill="#D9D9D9"/>
</mask>
<g mask="url(#mask0_89_2124)">
<mask id="mask1_89_2124" style="mask-type:luminance" maskUnits="userSpaceOnUse" x="0" y="0" width="28" height="28">
<path d="M28 0H0V28H28V0Z" fill="white"/>
</mask>
<g mask="url(#mask1_89_2124)">
<mask id="mask2_89_2124" style="mask-type:luminance" maskUnits="userSpaceOnUse" x="-1" y="0" width="29" height="29">
<path d="M13.9993 0H18.5555C21.9023 0.006098 22.0324 0.03354 22.6859 0.128059C24.0356 0.323195 25.1688 0.860834 26.0947 1.74606C26.5919 2.21505 26.9981 2.77186 27.2929 3.38846C27.6853 4.1873 27.8784 4.94345 27.9668 6.06853C27.9861 6.3094 27.9942 10.1491 27.9942 13.9959C27.9942 17.8428 27.9861 21.6835 27.9678 21.9233C27.8804 23.0301 27.6883 23.7924 27.3072 24.576C26.9363 25.3445 26.4021 26.0228 25.7418 26.5635C25.0816 27.1042 24.3113 27.4942 23.4847 27.7063C22.8749 27.8638 22.3261 27.937 21.3789 27.9817C21.0405 27.999 17.5046 28.0031 13.9688 28.0031C10.433 28.0031 6.89919 27.9919 6.54958 27.9776C5.86455 27.9581 5.18337 27.8679 4.51691 27.7083C3.69189 27.495 2.92294 27.1053 2.26304 26.5661C1.60314 26.0269 1.068 25.3511 0.694475 24.5851C0.307251 23.7822 0.124311 23.0474 0.0267425 21.8796C-0.00171487 21.5483 -0.0078125 19.8399 -0.0078125 13.998C-0.0078125 12.0303 -0.0078125 10.5628 -0.0078125 9.44784C-0.0017145 6.10308 0.0257275 5.96995 0.120247 5.31441C0.315383 3.9654 0.857427 2.83015 1.74638 1.90868C2.20774 1.42278 2.75269 1.02379 3.35524 0.730744C4.1683 0.324211 4.91429 0.137205 6.11458 0.0376039C6.44998 0.00609751 8.15945 0 13.9993 0Z" fill="white"/>
</mask>
<g mask="url(#mask2_89_2124)">
<rect width="28.0996" height="28.0996" fill="#C0DDCE"/>
<path d="M14.0043 6.58838C11.9916 6.58838 11.7389 6.59713 10.9449 6.63286C10.1509 6.66858 9.61695 6.79399 9.14638 6.977C8.654 7.16716 8.20675 7.45821 7.83331 7.83149C7.45988 8.20478 7.16849 8.65205 6.97785 9.14464C6.79429 9.61637 6.669 10.1552 6.6333 10.9434C6.59761 11.7315 6.58887 11.9867 6.58887 13.9998C6.58887 16.0128 6.59761 16.2644 6.6333 17.0555C6.669 17.8466 6.79429 18.3832 6.97785 18.8549C7.16825 19.3475 7.45937 19.7948 7.83255 20.1682C8.20573 20.5416 8.65274 20.8329 9.14493 21.0233C9.61622 21.2063 10.1553 21.3317 10.9441 21.3674C11.733 21.4032 11.9873 21.4119 13.9999 21.4119C16.0126 21.4119 16.2646 21.4032 17.0557 21.3674C17.8467 21.3317 18.3836 21.2063 18.8556 21.0233C19.3477 20.8325 19.7946 20.5412 20.1679 20.1678C20.5411 19.7945 20.8325 19.3473 21.0234 18.8549C21.2055 18.3832 21.3308 17.8444 21.368 17.0562C21.4051 16.268 21.4124 16.0136 21.4124 14.0005C21.4124 11.9874 21.4029 11.7352 21.368 10.9441C21.333 10.153 21.2055 9.61637 21.0234 9.14537C20.8329 8.65285 20.5416 8.20562 20.1683 7.83234C19.795 7.45906 19.3479 7.16797 18.8556 6.97772C18.3829 6.79472 17.8446 6.66931 17.0549 6.63358C16.2653 6.59786 16.0126 6.58911 13.9955 6.58911L14.0043 6.58838ZM13.3414 7.92411H14.0065C15.9856 7.92411 16.2202 7.9314 17.0018 7.9664C17.7244 7.99921 18.1163 8.12024 18.3778 8.22158C18.6965 8.34492 18.986 8.53354 19.2277 8.77536C19.4695 9.01717 19.6581 9.30686 19.7814 9.62585C19.8827 9.88687 20.0036 10.282 20.0364 11.0017C20.0721 11.7833 20.0794 12.0181 20.0794 13.9961C20.0794 15.9742 20.0714 16.209 20.0364 16.9906C20.0036 17.7131 19.8827 18.1054 19.7814 18.3664C19.6581 18.6864 19.4693 18.9771 19.227 19.2197C18.9848 19.4623 18.6945 19.6515 18.3748 19.7751C18.1141 19.8771 17.7193 19.9974 16.9988 20.0302C16.2172 20.066 15.9827 20.0733 14.0035 20.0733C12.0244 20.0733 11.7899 20.0652 11.0082 20.0302C10.2856 19.9967 9.89375 19.8764 9.63224 19.7751C9.31273 19.6518 9.02252 19.463 8.78028 19.2208C8.53803 18.9786 8.3491 18.6883 8.22565 18.3686C8.1244 18.1076 8.00348 17.7124 7.9707 16.9928C7.935 16.2112 7.92845 15.9764 7.92845 13.9969C7.92845 12.0173 7.93573 11.784 7.9707 11.0024C8.00348 10.2799 8.1244 9.8876 8.22565 9.62585C8.34906 9.30606 8.53796 9.01565 8.78021 8.7733C9.02245 8.53095 9.31268 8.34203 9.63224 8.21867C9.89375 8.11659 10.2878 7.99994 11.0082 7.96275C11.6922 7.93213 11.9552 7.92265 13.3392 7.92119L13.3414 7.92411ZM17.9626 9.15485C17.7868 9.15499 17.6151 9.20728 17.469 9.30511C17.323 9.40294 17.2092 9.54191 17.142 9.70446C17.0749 9.86701 17.0574 10.0458 17.0918 10.2183C17.1261 10.3908 17.2108 10.5493 17.3352 10.6736C17.4595 10.7979 17.6178 10.8826 17.7902 10.9168C17.9625 10.9511 18.1412 10.9334 18.3035 10.8661C18.4659 10.7987 18.6046 10.6847 18.7022 10.5385C18.7999 10.3922 18.852 10.2203 18.852 10.0444C18.852 9.92748 18.829 9.81176 18.7843 9.70379C18.7395 9.59582 18.674 9.49773 18.5914 9.41512C18.5088 9.33251 18.4108 9.267 18.3029 9.22235C18.195 9.17769 18.0793 9.15475 17.9626 9.15485ZM14.0043 10.1938C13.2524 10.1944 12.5175 10.4181 11.8926 10.8366C11.2677 11.2551 10.7808 11.8497 10.4935 12.5452C10.2061 13.2406 10.1312 14.0057 10.2782 14.7438C10.4251 15.4819 10.7874 16.1598 11.3193 16.6918C11.8511 17.2238 12.5285 17.586 13.266 17.7327C14.0035 17.8794 14.7678 17.804 15.4625 17.5159C16.1571 17.2279 16.7508 16.7402 17.1686 16.1145C17.5864 15.4888 17.8094 14.7531 17.8096 14.0005C17.8094 13.5004 17.7108 13.0053 17.5194 12.5433C17.328 12.0814 17.0476 11.6617 16.6942 11.3082C16.3408 10.9547 15.9213 10.6743 15.4596 10.4831C14.9979 10.2919 14.5032 10.1936 14.0035 10.1938H14.0043ZM14.0043 11.5296C14.4924 11.53 14.9695 11.6753 15.3752 11.947C15.7809 12.2188 16.0969 12.6049 16.2834 13.0564C16.47 13.508 16.5185 14.0047 16.423 14.4839C16.3275 14.9631 16.0922 15.4032 15.7469 15.7485C15.4016 16.0939 14.9617 16.329 14.4829 16.4241C14.0041 16.5193 13.5078 16.4702 13.0569 16.2832C12.6059 16.0961 12.2205 15.7794 11.9493 15.3731C11.6782 14.9668 11.5334 14.4891 11.5334 14.0005C11.5335 13.6759 11.5975 13.3544 11.7218 13.0545C11.846 12.7546 12.028 12.4822 12.2575 12.2527C12.4869 12.0233 12.7593 11.8413 13.059 11.7172C13.3587 11.5931 13.6799 11.5294 14.0043 11.5296Z" fill="white"/>
</g>
</g>
</g>
</svg>
