<svg width="28" height="28" viewBox="0 0 28 28" fill="none" xmlns="http://www.w3.org/2000/svg">
<path d="M28 14C28 6.26801 21.732 0 14 0C6.26801 0 0 6.26801 0 14C0 21.732 6.26801 28 14 28C21.732 28 28 21.732 28 14Z" fill="#C0DDCE"/>
<path d="M10.6186 7.69215C10.6186 8.6267 9.8085 9.3843 8.8093 9.3843C7.81004 9.3843 7 8.6267 7 7.69215C7 6.7576 7.81004 6 8.8093 6C9.8085 6 10.6186 6.7576 10.6186 7.69215Z" fill="white"/>
<path d="M7.24707 10.6282H10.3399V20.0001H7.24707V10.6282Z" fill="white"/>
<path d="M15.3194 10.6282H12.2266V20.0001H15.3194C15.3194 20.0001 15.3194 17.0497 15.3194 15.205C15.3194 14.0977 15.6975 12.9856 17.206 12.9856C18.9108 12.9856 18.9006 14.4346 18.8926 15.5572C18.8822 17.0245 18.907 18.522 18.907 20.0001H21.9998V15.0538C21.9736 11.8955 21.1506 10.4402 18.4431 10.4402C16.8352 10.4402 15.8385 11.1702 15.3194 11.8306V10.6282Z" fill="white"/>
</svg>
