<svg width="36" height="36" viewBox="0 0 36 36" fill="none" xmlns="http://www.w3.org/2000/svg">
<rect x="0.139648" width="35.5698" height="35.5698" rx="17.7849" fill="#C0DDCE"/>
<g clip-path="url(#clip0_333_3811)">
<path d="M24.1198 23.9829L24.1229 23.9824V19.4405C24.1229 17.2186 23.6446 15.507 21.047 15.507C19.7983 15.507 18.9603 16.1923 18.6182 16.8419H18.5821V15.7144H16.1192V23.9824H18.6837V19.8884C18.6837 18.8105 18.8881 17.7681 20.223 17.7681C21.5383 17.7681 21.5579 18.9983 21.5579 19.9576V23.9829H24.1198ZM11.9431 15.7149H14.5108V23.9829H11.9431V15.7149ZM13.2259 11.5988C12.4049 11.5988 11.7388 12.2649 11.7388 13.0859C11.7388 13.9069 12.4049 14.587 13.2259 14.587C14.0469 14.587 14.713 13.9069 14.713 13.0859C14.7128 12.6916 14.556 12.3135 14.2772 12.0346C13.9983 11.7558 13.6202 11.599 13.2259 11.5988Z" fill="white"/>
</g>
<defs>
<clipPath id="clip0_333_3811">
<rect width="12.3842" height="12.3842" fill="white" transform="translate(11.7388 11.5988)"/>
</clipPath>
</defs>
</svg>
