<svg width="246" height="49" viewBox="0 0 246 49" fill="none" xmlns="http://www.w3.org/2000/svg">
<path d="M146.102 13.0449H145.853C142.561 13.0449 140.384 14.5781 139.39 16.7795H138.894C138.086 14.482 135.786 13.0449 132.741 13.0449H132.493C129.261 13.0449 127.148 14.5781 126.404 16.7795H125.845V13.5255H121.494V36.8868H125.845V21.0415C125.845 17.2132 128.517 16.2074 131.002 16.2074H131.251C133.427 16.2074 134.918 17.1663 134.918 19.9889V36.8868H139.268V21.0415C139.268 17.2132 142.001 16.2074 144.426 16.2074H144.674C146.911 16.2074 148.402 17.1663 148.402 19.9889V36.8868H152.752V19.2223C152.752 15.3447 150.019 13.0473 146.104 13.0473L146.102 13.0449Z" fill="black"/>
<path d="M177.758 33.1168V22.2157C177.758 15.8016 174.8 12.6836 168.718 12.6836H168.624C162.832 12.6836 159.207 15.8555 158.685 21.3858L158.659 21.6483H162.783L162.804 21.4327C163.157 17.9795 165.008 16.2962 168.465 16.2915C171.439 16.2868 173.875 18.7156 173.875 21.6952V23.0479L166.609 23.9692C160.686 24.7054 157.929 26.8293 157.929 30.6553V30.939C157.929 35.2947 161.423 37.2452 164.889 37.2452H165.079C169.319 37.2452 171.713 34.6008 172.96 32.3221C173.187 31.9048 173.354 31.4594 173.473 30.9999L173.567 30.6342L174.032 30.6506L174.224 36.7717H181.881V33.1168H177.765H177.758ZM165.593 33.6865H165.404C163.153 33.6865 161.809 32.6245 161.809 30.8452V30.5615C161.809 28.5337 163.302 27.5631 167.136 27.1013L173.868 26.2808C173.772 31.1453 169.656 33.6889 165.591 33.6889L165.593 33.6865Z" fill="black"/>
<path d="M103.894 12.6602C96.5316 12.6602 91.1865 17.8341 91.1865 24.9656C91.1865 32.0971 96.5316 37.271 103.894 37.271C111.256 37.271 116.557 32.0947 116.557 24.9656C116.557 17.8365 111.233 12.6602 103.894 12.6602ZM103.894 33.431C98.8344 33.431 95.3006 29.9496 95.3006 24.9656C95.3006 19.9815 98.8344 16.4509 103.894 16.4509C108.953 16.4509 112.44 19.951 112.44 24.9656C112.44 29.9801 108.925 33.431 103.894 33.431Z" fill="black"/>
<path d="M82.5905 24.0869L82.1553 23.9674C80.8658 23.611 79.2464 23.747 78.5279 24.8582L78.212 25.4162L77.8071 25.3294C77.7744 24.6636 77.531 24.0471 77.1331 23.5548C76.7353 23.0624 76.183 22.6944 75.5348 22.5279C73.129 21.9137 71.526 21.0744 71.526 18.9763C71.526 17.6119 72.2772 15.3238 77.3063 15.3238H77.6105C81.9306 15.3238 83.9338 16.9367 84.1 20.5563V20.6126H87.9262V20.5493C87.7156 15.0354 84.0344 11.9995 77.5591 11.9995H77.3063C71.4441 11.9995 67.8027 14.6932 67.8027 19.0278C67.8027 24.2205 72.8529 25.2567 77.7393 26.2554L77.7346 26.2625L77.8165 26.2789C81.6755 27.0525 84.7225 27.662 84.7225 30.6042C84.7225 33.2673 82.6163 34.5614 78.2845 34.5614H78.0294C73.0869 34.5614 70.9994 33.0024 70.8286 29.1765V29.1202H67V29.1812C67.213 34.9084 71.0252 37.9349 78.0271 37.9349H78.2822C81.3666 37.9349 83.9362 37.2574 85.71 35.9774C87.498 34.688 88.4434 32.8102 88.4434 30.5503C88.4434 28.7451 87.8888 27.3338 86.7444 26.2367C85.8013 25.3294 84.4814 24.6472 82.5905 24.0869Z" fill="black"/>
<path d="M195.008 13.5815H196.036L197.519 16.6263L199.003 13.5815H200.031V18.4151H199.253V14.7162L197.927 17.4581H197.104L195.778 14.7162V18.4151H195V13.5815H195.008Z" fill="black"/>
<path d="M202.05 13.5816H205.44V14.2963H202.828V15.6652H205.033V16.3436H202.828V17.7004H205.44V18.4152H202.05V13.5816ZM202.776 12.7578L204.114 11.8613L204.453 12.4509L203.05 13.2222L202.776 12.7537V12.7578Z" fill="black"/>
<path d="M207.198 18.4112V13.5776H208.975C209.346 13.5776 209.681 13.6342 209.983 13.7513C210.286 13.8684 210.543 14.0299 210.761 14.2439C210.979 14.4579 211.144 14.7123 211.265 15.0071C211.386 15.3019 211.446 15.629 211.446 15.9924C211.446 16.3558 211.386 16.6829 211.265 16.9817C211.144 17.2806 210.979 17.535 210.761 17.7449C210.543 17.9549 210.286 18.1205 209.983 18.2336C209.681 18.3507 209.346 18.4072 208.975 18.4072H207.198V18.4112ZM207.976 17.6723H208.975C209.225 17.6723 209.451 17.6319 209.653 17.5552C209.854 17.4744 210.028 17.3654 210.173 17.22C210.318 17.0746 210.427 16.901 210.507 16.695C210.588 16.4891 210.624 16.2589 210.624 16.0045C210.624 15.7501 210.584 15.52 210.507 15.314C210.431 15.1081 210.318 14.9304 210.173 14.7891C210.028 14.6437 209.854 14.5347 209.653 14.4539C209.451 14.3731 209.225 14.3328 208.975 14.3328H207.976V17.6803V17.6723Z" fill="black"/>
<path d="M213.14 13.5815H216.53V14.2963H213.918V15.6652H216.123V16.3436H213.918V17.7004H216.53V18.4151H213.14V13.5815Z" fill="black"/>
<path d="M217.888 15.9961C217.888 15.6529 217.952 15.3339 218.081 15.031C218.21 14.7282 218.388 14.4616 218.613 14.2396C218.839 14.0134 219.101 13.8357 219.403 13.7065C219.706 13.5773 220.028 13.5127 220.375 13.5127C220.677 13.5127 220.959 13.5531 221.217 13.6338C221.475 13.7146 221.709 13.8317 221.911 13.9852C222.116 14.1346 222.286 14.3203 222.431 14.5384C222.572 14.7564 222.672 14.9987 222.737 15.2652H221.858C221.749 14.9624 221.564 14.7241 221.302 14.5505C221.04 14.3768 220.734 14.292 220.375 14.292C220.145 14.292 219.927 14.3365 219.726 14.4253C219.524 14.5141 219.347 14.6353 219.198 14.7928C219.049 14.9503 218.928 15.132 218.839 15.3379C218.75 15.5438 218.706 15.7659 218.706 16.0002C218.706 16.2344 218.75 16.4565 218.839 16.6624C218.928 16.8683 219.049 17.0501 219.198 17.2035C219.351 17.357 219.524 17.4821 219.726 17.571C219.927 17.6598 220.145 17.7083 220.375 17.7083C220.734 17.7083 221.044 17.6235 221.302 17.4498C221.56 17.2762 221.745 17.0379 221.858 16.7351H222.737C222.677 17.0056 222.572 17.2479 222.431 17.4619C222.29 17.68 222.116 17.8617 221.911 18.0152C221.705 18.1686 221.475 18.2817 221.217 18.3665C220.959 18.4513 220.677 18.4876 220.375 18.4876C220.028 18.4876 219.706 18.423 219.403 18.2938C219.101 18.1646 218.835 17.9869 218.613 17.7608C218.388 17.5346 218.21 17.2722 218.081 16.9693C217.952 16.6705 217.888 16.3434 217.888 16.0002V15.9961Z" fill="black"/>
<path d="M224.398 13.5815H225.176V18.4151H224.398V13.5815Z" fill="black"/>
<path d="M227.184 13.5815H228.175L230.473 17.3087V13.5815H231.251V18.4151H230.255L227.958 14.688V18.4151H227.18V13.5815H227.184Z" fill="black"/>
<path d="M233.261 13.5815H236.651V14.2963H234.039V15.6652H236.244V16.3436H234.039V17.7004H236.651V18.4151H233.261V13.5815Z" fill="black"/>
<path d="M195.008 36.7192V36.061H196.572V32.9598H195.21V32.3016H197.294V36.061H198.777V36.7192H195.008ZM196.855 31.502C196.677 31.502 196.54 31.4576 196.439 31.3647C196.339 31.2718 196.286 31.1507 196.286 30.9932C196.286 30.8357 196.339 30.7065 196.439 30.6096C196.54 30.5167 196.681 30.4683 196.855 30.4683C197.028 30.4683 197.169 30.5167 197.27 30.6096C197.37 30.7025 197.423 30.8317 197.423 30.9932C197.423 31.1547 197.37 31.2718 197.27 31.3647C197.169 31.4576 197.028 31.502 196.855 31.502Z" fill="black"/>
<path d="M199.878 36.7196V32.302H200.6V33.1459H200.753L200.6 33.3155C200.6 32.9682 200.705 32.6977 200.914 32.5079C201.124 32.3181 201.41 32.2212 201.781 32.2212C202.224 32.2212 202.579 32.3585 202.841 32.629C203.103 32.8996 203.236 33.2751 203.236 33.7476V36.7196H202.515V33.8283C202.515 33.5134 202.43 33.2711 202.261 33.1015C202.091 32.9319 201.862 32.8471 201.575 32.8471C201.289 32.8471 201.039 32.94 200.866 33.1217C200.693 33.3034 200.604 33.5659 200.604 33.9091V36.7196H199.882H199.878Z" fill="black"/>
<path d="M206.391 36.797C206.036 36.797 205.73 36.7283 205.464 36.5951C205.198 36.4618 204.996 36.268 204.851 36.0136C204.706 35.7592 204.633 35.4563 204.633 35.109V33.9057C204.633 33.5503 204.706 33.2515 204.851 32.9971C204.996 32.7468 205.202 32.5529 205.464 32.4197C205.73 32.2864 206.036 32.2178 206.391 32.2178C206.899 32.2178 207.306 32.3551 207.616 32.6256C207.927 32.8962 208.088 33.2717 208.104 33.7442H207.382C207.366 33.4615 207.27 33.2434 207.096 33.09C206.923 32.9366 206.685 32.8598 206.387 32.8598C206.072 32.8598 205.818 32.9487 205.633 33.1304C205.448 33.3081 205.351 33.5665 205.351 33.8976V35.109C205.351 35.4402 205.444 35.6986 205.633 35.8803C205.818 36.062 206.072 36.1549 206.387 36.1549C206.701 36.1549 206.923 36.0782 207.096 35.9207C207.27 35.7673 207.366 35.5492 207.382 35.2706H208.104C208.088 35.743 207.927 36.1145 207.616 36.3891C207.306 36.6637 206.899 36.797 206.391 36.797Z" fill="black"/>
<path d="M211.774 36.7193C211.516 36.7193 211.294 36.6668 211.101 36.5658C210.907 36.4649 210.758 36.3195 210.653 36.1337C210.549 35.948 210.492 35.7259 210.492 35.4755V31.5142H209.009V30.856H211.214V35.4755C211.214 35.6572 211.266 35.8026 211.367 35.9036C211.468 36.0086 211.605 36.0611 211.774 36.0611H213.177V36.7193H211.774Z" fill="black"/>
<path d="M215.972 36.7966C215.464 36.7966 215.057 36.6472 214.755 36.3444C214.452 36.0415 214.299 35.6296 214.299 35.1128V32.3022H215.021V35.1128C215.021 35.4439 215.106 35.7023 215.279 35.8881C215.448 36.0738 215.682 36.1667 215.976 36.1667C216.27 36.1667 216.512 36.0738 216.686 35.8881C216.859 35.7023 216.948 35.4439 216.948 35.1128V32.3022H217.669V35.1128C217.669 35.6337 217.512 36.0415 217.206 36.3444C216.899 36.6472 216.488 36.7966 215.98 36.7966H215.972Z" fill="black"/>
<path d="M220.658 36.7803C220.359 36.7803 220.097 36.7318 219.876 36.6389C219.654 36.5461 219.477 36.4128 219.348 36.2392C219.215 36.0696 219.138 35.8636 219.11 35.6294H219.831C219.864 35.7869 219.952 35.9081 220.093 36.0009C220.234 36.0938 220.424 36.1382 220.658 36.1382H220.996C221.279 36.1382 221.492 36.0817 221.629 35.9646C221.766 35.8515 221.839 35.694 221.839 35.5042C221.839 35.3145 221.774 35.1691 221.649 35.0601C221.524 34.951 221.339 34.8783 221.093 34.838L220.501 34.741C220.069 34.6643 219.747 34.5311 219.533 34.3372C219.324 34.1434 219.215 33.8567 219.215 33.4812C219.215 33.0854 219.34 32.7785 219.59 32.5605C219.839 32.3424 220.218 32.2334 220.722 32.2334H221.029C221.452 32.2334 221.79 32.3343 222.048 32.5322C222.306 32.7301 222.46 32.9966 222.512 33.3358H221.79C221.758 33.1945 221.678 33.0854 221.549 33.0006C221.42 32.9158 221.246 32.8755 221.029 32.8755H220.722C220.448 32.8755 220.251 32.928 220.126 33.0289C220.001 33.1299 219.936 33.2833 219.936 33.4852C219.936 33.6669 219.989 33.8002 220.097 33.889C220.202 33.9738 220.372 34.0344 220.601 34.0748L221.194 34.1717C221.67 34.2484 222.016 34.3857 222.234 34.5916C222.452 34.7935 222.56 35.0883 222.56 35.476C222.56 35.8838 222.431 36.2028 222.169 36.437C221.911 36.6713 221.516 36.7843 220.996 36.7843H220.658V36.7803Z" fill="black"/>
<path d="M223.882 36.7192V36.061H225.446V32.9598H224.084V32.3016H226.168V36.061H227.651V36.7192H223.882ZM225.729 31.502C225.551 31.502 225.414 31.4576 225.313 31.3647C225.213 31.2718 225.16 31.1507 225.16 30.9932C225.16 30.8357 225.213 30.7065 225.313 30.6096C225.414 30.5127 225.555 30.4683 225.729 30.4683C225.902 30.4683 226.043 30.5167 226.148 30.6096C226.249 30.7025 226.301 30.8317 226.301 30.9932C226.301 31.1547 226.249 31.2718 226.148 31.3647C226.047 31.4576 225.906 31.502 225.729 31.502Z" fill="black"/>
<path d="M229.928 36.7199L228.453 32.3022H229.19L230.17 35.2743C230.23 35.452 230.283 35.6216 230.331 35.7831C230.379 35.9486 230.416 36.0738 230.436 36.1667C230.464 36.0738 230.5 35.9486 230.549 35.7831C230.597 35.6216 230.65 35.4479 230.702 35.2743L231.657 32.3022H232.387L230.912 36.7199H229.932H229.928Z" fill="black"/>
<path d="M235.233 36.797C234.886 36.797 234.58 36.7283 234.322 36.587C234.064 36.4457 233.863 36.2518 233.721 35.9974C233.58 35.743 233.508 35.4482 233.508 35.109V33.9057C233.508 33.5625 233.58 33.2636 233.721 33.0133C233.863 32.7629 234.064 32.5651 234.322 32.4278C234.58 32.2864 234.886 32.2178 235.233 32.2178C235.58 32.2178 235.886 32.2864 236.144 32.4278C236.402 32.5651 236.604 32.7629 236.745 33.0133C236.886 33.2636 236.958 33.5625 236.958 33.9057V34.685H234.217V35.1131C234.217 35.4604 234.306 35.7269 234.483 35.9126C234.661 36.0984 234.911 36.1913 235.237 36.1913C235.515 36.1913 235.741 36.1428 235.91 36.0418C236.08 35.9409 236.184 35.7955 236.225 35.5977H236.946C236.898 35.9692 236.716 36.2599 236.406 36.478C236.092 36.696 235.705 36.805 235.237 36.805L235.233 36.797ZM236.249 34.2045V33.9057C236.249 33.5584 236.16 33.2879 235.987 33.1021C235.814 32.9164 235.56 32.8195 235.229 32.8195C234.899 32.8195 234.653 32.9123 234.475 33.1021C234.298 33.2879 234.209 33.5584 234.209 33.9057V34.1399H236.301L236.245 34.2045H236.249Z" fill="black"/>
<path d="M195.009 22.5942H198.399V23.309H195.787V24.6779H197.992V25.3563H195.787V26.7131H198.399V27.4278H195.009V22.5942Z" fill="black"/>
<path d="M199.999 23.9434C199.999 23.4911 200.156 23.1398 200.467 22.8935C200.777 22.6472 201.217 22.522 201.785 22.522C202.353 22.522 202.801 22.6552 203.115 22.9217C203.43 23.1883 203.595 23.5476 203.607 23.9999H202.773C202.769 23.899 202.744 23.802 202.704 23.7051C202.664 23.6082 202.603 23.5234 202.519 23.4507C202.438 23.378 202.333 23.3215 202.204 23.2771C202.075 23.2327 201.926 23.2125 201.749 23.2125C201.462 23.2125 201.233 23.2771 201.059 23.3982C200.89 23.5234 200.805 23.6971 200.805 23.9191C200.805 24.0524 200.838 24.1655 200.898 24.2543C200.959 24.3431 201.047 24.4199 201.152 24.4764C201.257 24.5329 201.382 24.5854 201.523 24.6258C201.664 24.6662 201.809 24.6985 201.962 24.7348C202.164 24.7793 202.369 24.8237 202.575 24.8721C202.781 24.9206 202.97 24.9933 203.135 25.0902C203.305 25.1871 203.442 25.3163 203.546 25.4779C203.651 25.6394 203.704 25.8494 203.704 26.1078C203.704 26.5439 203.551 26.8871 203.248 27.1335C202.946 27.3798 202.49 27.5009 201.89 27.5009C201.289 27.5009 200.773 27.3677 200.422 27.1012C200.072 26.8347 199.898 26.4712 199.898 26.0149H200.733C200.769 26.2693 200.89 26.4672 201.084 26.6045C201.277 26.7418 201.547 26.8104 201.882 26.8104C202.192 26.8104 202.438 26.7539 202.615 26.6408C202.793 26.5278 202.881 26.3743 202.881 26.1845C202.881 26.0513 202.849 25.9382 202.785 25.8534C202.72 25.7686 202.635 25.6959 202.527 25.6394C202.418 25.5828 202.293 25.5384 202.152 25.5021C202.011 25.4657 201.862 25.4334 201.708 25.4052C201.507 25.3688 201.305 25.3204 201.104 25.2679C200.902 25.2154 200.717 25.1387 200.551 25.0337C200.386 24.9287 200.253 24.7914 200.148 24.6218C200.044 24.4522 199.995 24.226 199.995 23.9474L199.999 23.9434Z" fill="black"/>
<path d="M206.549 23.3009H204.88V22.5942H209V23.3009H207.331V27.4278H206.553V23.3009H206.549Z" fill="black"/>
<path d="M210.431 22.5942H211.209V24.7667H213.72V22.5942H214.498V27.4278H213.72V25.4895H211.209V27.4278H210.431V22.5942Z" fill="black"/>
<path d="M216.515 22.5947H219.905V23.3095H217.293V24.6784H219.498V25.3568H217.293V26.7136H219.905V27.4283H216.515V22.5947ZM217.244 21.771L218.583 20.8745L218.921 21.4641L217.518 22.2353L217.244 21.7669V21.771Z" fill="black"/>
<path d="M222.749 23.3009H221.081V22.5942H225.2V23.3009H223.531V27.4278H222.753V23.3009H222.749Z" fill="black"/>
<path d="M226.631 22.5942H227.409V27.4278H226.631V22.5942Z" fill="black"/>
<path d="M233.057 28.0015L232.488 27.3151C232.194 27.4362 231.892 27.4968 231.581 27.4968C231.235 27.4968 230.912 27.4322 230.61 27.3029C230.308 27.1737 230.042 26.996 229.82 26.7699C229.594 26.5438 229.417 26.2813 229.288 25.9784C229.159 25.6796 229.094 25.3525 229.094 25.0093C229.094 24.6661 229.159 24.3471 229.288 24.0442C229.417 23.7413 229.594 23.4748 229.82 23.2527C230.046 23.0266 230.308 22.8489 230.61 22.7197C230.912 22.5905 231.235 22.5259 231.581 22.5259C231.928 22.5259 232.251 22.5905 232.553 22.7197C232.855 22.8489 233.117 23.0266 233.343 23.2527C233.569 23.4789 233.746 23.7413 233.875 24.0442C234.004 24.3471 234.068 24.6701 234.068 25.0093C234.068 25.4091 233.984 25.7765 233.819 26.1077C233.649 26.4428 233.424 26.7255 233.133 26.9557L233.992 28.0015H233.057ZM229.913 25.0093C229.913 25.2435 229.957 25.4656 230.046 25.6716C230.134 25.8775 230.255 26.0592 230.404 26.2127C230.553 26.3661 230.731 26.4913 230.932 26.5801C231.134 26.673 231.352 26.7174 231.581 26.7174C231.811 26.7174 232.029 26.673 232.234 26.5801C232.44 26.4872 232.617 26.3661 232.766 26.2127C232.916 26.0592 233.037 25.8775 233.121 25.6716C233.206 25.4656 233.25 25.2435 233.25 25.0093C233.25 24.7751 233.206 24.553 233.117 24.3471C233.029 24.1411 232.908 23.9594 232.758 23.8019C232.605 23.6444 232.432 23.5233 232.23 23.4344C232.029 23.3456 231.811 23.3012 231.581 23.3012C231.352 23.3012 231.134 23.3456 230.932 23.4344C230.731 23.5233 230.553 23.6444 230.404 23.8019C230.255 23.9594 230.134 24.1411 230.046 24.3471C229.957 24.553 229.913 24.7751 229.913 25.0093Z" fill="black"/>
<path d="M237.717 27.4976C237.072 27.4976 236.577 27.3239 236.222 26.9767C235.867 26.6294 235.694 26.1408 235.694 25.5108V22.5913H236.472V25.4826C236.472 25.8864 236.585 26.2014 236.814 26.4235C237.04 26.6456 237.343 26.7586 237.717 26.7586C238.092 26.7586 238.399 26.6456 238.62 26.4235C238.842 26.2014 238.955 25.8864 238.955 25.4826V22.5913H239.733V25.5108C239.733 26.1408 239.56 26.6294 239.209 26.9767C238.858 27.3239 238.362 27.4976 237.717 27.4976Z" fill="black"/>
<path d="M241.676 22.5942H245.066V23.309H242.454V24.6779H244.659V25.3563H242.454V26.7131H245.066V27.4278H241.676V22.5942Z" fill="black"/>
<path d="M24.5015 20.3316H32.8379V11.9951C28.2342 11.9951 24.5015 15.7278 24.5015 20.3316ZM24.5015 28.668H16.165V37.0045C20.7688 37.0045 24.5015 33.2717 24.5015 28.668ZM24.5015 20.3316V11.9951C19.8978 11.9951 16.165 15.7278 16.165 20.3316C16.165 24.9353 19.8978 28.668 24.5015 28.668V37.0045C29.1052 37.0045 32.8379 33.2717 32.8379 28.668C32.8379 24.0643 29.1052 20.3316 24.5015 20.3316Z" fill="#C0DDCE"/>
<path d="M6.11219 37.6286L5.77313 37.8516L4.84635 36.4426L5.18542 36.2196L6.11219 37.6286ZM9.9519 40.2552L8.30782 42.0439L9.07787 42.3619L8.77799 42.6874L7.53927 42.181L7.51667 42.1599L9.58119 39.9146L9.95341 40.2567L9.9519 40.2552ZM11.9139 41.8691L10.4492 43.807L11.2449 44.0497L10.9781 44.4023L9.69723 44.0165L9.67161 43.9984L11.5101 41.5647L11.9124 41.8691H11.9139ZM15.2594 44.9373C15.2654 44.999 15.2835 45.0608 15.3151 45.1211C15.3498 45.1799 15.3965 45.2402 15.4538 45.3004C15.511 45.3607 15.5773 45.4225 15.6512 45.4828C15.7672 45.5762 15.8682 45.6757 15.9556 45.7781C16.043 45.8806 16.1108 45.9816 16.159 46.084C16.2073 46.1865 16.2344 46.292 16.2404 46.399C16.2464 46.506 16.2268 46.6145 16.1786 46.7245C16.1274 46.8435 16.055 46.94 15.9616 47.0138C15.8697 47.0877 15.7642 47.1389 15.6482 47.1691C15.5321 47.1977 15.4086 47.2052 15.2775 47.1901C15.1464 47.1751 15.0168 47.1404 14.8887 47.0847C14.753 47.0259 14.6355 46.9505 14.536 46.8571C14.4366 46.7652 14.3597 46.6627 14.304 46.5512C14.2497 46.4382 14.2196 46.3176 14.2136 46.191C14.2075 46.0645 14.2331 45.9379 14.2874 45.8113L14.7455 46.0087C14.7214 46.0825 14.7093 46.1534 14.7078 46.2212C14.7063 46.2905 14.7169 46.3553 14.741 46.4156C14.7666 46.4759 14.8058 46.5301 14.857 46.5813C14.9098 46.6311 14.9746 46.6748 15.0559 46.7094C15.1268 46.7396 15.1961 46.7592 15.2624 46.7652C15.3302 46.7727 15.392 46.7682 15.4508 46.7546C15.5095 46.7381 15.5608 46.7124 15.606 46.6733C15.6512 46.6356 15.6874 46.5859 15.713 46.5256C15.7401 46.4608 15.7461 46.3975 15.7356 46.3357C15.725 46.2739 15.6994 46.2136 15.6617 46.1534C15.6226 46.0931 15.5728 46.0358 15.5141 45.9771C15.4538 45.9198 15.3905 45.8625 15.3227 45.8053C15.2368 45.7344 15.1554 45.6576 15.0785 45.5762C15.0017 45.4933 14.9369 45.4059 14.8826 45.3125C14.8163 45.1949 14.7756 45.0729 14.7606 44.9433C14.7455 44.8152 14.7666 44.6826 14.8254 44.5485C14.8796 44.4249 14.952 44.3254 15.0454 44.2531C15.1388 44.1808 15.2413 44.1325 15.3558 44.1069C15.4719 44.0798 15.5954 44.0753 15.7265 44.0934C15.8576 44.1115 15.9872 44.1476 16.1168 44.2034C16.254 44.2621 16.379 44.3435 16.4951 44.443C16.6111 44.5424 16.6985 44.6555 16.7618 44.7805C16.8191 44.8966 16.8522 45.0186 16.8613 45.1452C16.8703 45.2718 16.8447 45.4029 16.7889 45.5385L16.3278 45.3396C16.3579 45.2507 16.373 45.1678 16.37 45.0925C16.367 45.0156 16.3489 44.9463 16.3142 44.8815C16.2811 44.8167 16.2344 44.7594 16.1726 44.7097C16.1123 44.6585 16.04 44.6163 15.9556 44.5786C15.8848 44.5485 15.8154 44.5289 15.7476 44.5183C15.6798 44.5078 15.6165 44.5108 15.5562 44.5243C15.499 44.5379 15.4462 44.562 15.3995 44.5982C15.3528 44.6344 15.3166 44.6826 15.2895 44.7444C15.2609 44.8092 15.2503 44.8725 15.2549 44.9342M16.798 47.7779L16.917 47.3785L17.5409 47.5639L18.1723 45.4376L17.5484 45.2522L17.666 44.8544L19.3884 45.3667L19.2709 45.7646L18.6606 45.5837L18.0292 47.71L18.6395 47.8909L18.5204 48.2902L16.798 47.7794V47.7779ZM20.6904 47.2414C20.6015 47.2278 20.5201 47.2278 20.4448 47.2414C20.3694 47.2549 20.3031 47.2821 20.2459 47.3213C20.1946 47.3559 20.1509 47.4011 20.1163 47.4569C20.0816 47.5126 20.0575 47.5804 20.0439 47.6573C20.0289 47.7447 20.0304 47.8231 20.0455 47.8924C20.0605 47.9617 20.0922 48.0235 20.1359 48.0762C20.1781 48.126 20.2308 48.1667 20.2956 48.1998C20.3604 48.233 20.4358 48.2571 20.5201 48.2721L20.9783 48.3505L21.1531 47.3197L20.6889 47.2414H20.6904ZM21.2239 46.9159L21.4213 45.7495L21.9171 45.8339L21.4077 48.8403L20.4538 48.679C20.2986 48.6519 20.1585 48.6067 20.0349 48.5464C19.9098 48.4861 19.8074 48.4093 19.7245 48.3204C19.6431 48.2284 19.5858 48.1229 19.5527 48.0009C19.5195 47.8803 19.515 47.7447 19.5406 47.594C19.5572 47.49 19.5873 47.3996 19.628 47.3197C19.6687 47.2399 19.72 47.1706 19.7787 47.1118C19.839 47.053 19.9053 47.0033 19.9822 46.9641C20.0575 46.9249 20.1404 46.8933 20.2293 46.8707L19.7998 45.5039L19.8043 45.4767L20.3348 45.5672L20.713 46.8315L21.2209 46.9174L21.2239 46.9159ZM23.0126 47.0575L23.3065 48.2782L23.7164 47.0892L23.0111 47.0575H23.0126ZM23.8641 46.6642L24.1037 45.9725L24.6266 45.9966L23.4949 48.9985L23.0488 48.9774L22.2124 45.8866L22.7339 45.9107L22.9072 46.622L23.8626 46.6657L23.8641 46.6642ZM25.9828 47.4976C25.8984 47.5036 25.8216 47.5217 25.7553 47.5503C25.689 47.5789 25.6332 47.6181 25.588 47.6663C25.5428 47.7146 25.5097 47.7718 25.4886 47.8351C25.4675 47.8999 25.4584 47.9677 25.4629 48.0416C25.4675 48.1229 25.484 48.1953 25.5112 48.2601C25.5398 48.3249 25.5775 48.3806 25.6272 48.4274C25.6769 48.4741 25.7372 48.5087 25.8065 48.5313C25.8758 48.5539 25.9527 48.5645 26.0386 48.5615L26.5555 48.5343L26.4982 47.4689L25.9813 47.4961L25.9828 47.4976ZM26.4153 45.9002L26.9171 45.8731L27.0799 48.9186L26.0612 48.9729C25.9075 48.9804 25.7658 48.9638 25.6347 48.9262C25.5036 48.8885 25.3891 48.8312 25.2911 48.7529C25.1932 48.676 25.1163 48.5796 25.0576 48.465C25.0003 48.3505 24.9671 48.2209 24.9596 48.0747C24.9521 47.9346 24.9702 47.805 25.0169 47.6889C25.0621 47.5729 25.1299 47.472 25.2188 47.3861C25.3077 47.2986 25.4162 47.2293 25.5428 47.1781C25.6694 47.1269 25.8095 47.0967 25.9632 47.0892L26.4801 47.0621L26.4183 45.9017L26.4153 45.9002ZM31.9323 45.864L32.0543 46.2513L30.4464 46.7577L30.3244 46.3704L31.9323 45.864ZM36.536 43.9306L36.0523 43.1093L34.7834 43.8568L34.5725 43.4996L36.2768 42.496L37.8229 45.1241L36.1276 46.1217L35.9167 45.7631L37.1765 45.0216L36.741 44.2817L35.6544 44.9222L35.448 44.5711L36.5345 43.9321L36.536 43.9306ZM40.3305 43.2781L39.8935 43.6142L38.1454 42.2956L37.9947 42.1826L38.0656 42.3604L38.8899 44.3887L38.4544 44.7233L37.3362 41.735L37.725 41.4366L40.329 43.2811L40.3305 43.2781ZM40.8896 42.7688L40.6048 42.4659L41.0795 42.0198L39.5605 40.4028L39.0858 40.8489L38.8025 40.546L40.112 39.3148L40.3968 39.6177L39.9327 40.0532L41.4517 41.6702L41.9158 41.2347L42.2006 41.5391L40.8911 42.7703L40.8896 42.7688ZM41.527 39.1521C41.5873 39.1641 41.6521 39.1641 41.7184 39.1521C41.7847 39.1355 41.8555 39.1084 41.9294 39.0707C42.0032 39.033 42.0801 38.9878 42.1615 38.9321C42.285 38.8477 42.4071 38.7784 42.5307 38.7226C42.6542 38.6683 42.7703 38.6322 42.8818 38.6141C42.9948 38.5975 43.1033 38.6005 43.2073 38.6246C43.3113 38.6488 43.4092 38.7 43.5026 38.7768C43.6021 38.8597 43.6744 38.9562 43.7181 39.0662C43.7618 39.1762 43.7829 39.2907 43.7784 39.4113C43.7739 39.5303 43.7453 39.6509 43.694 39.7729C43.6428 39.895 43.572 40.0095 43.483 40.1165C43.3881 40.2295 43.2826 40.3215 43.1651 40.3908C43.0475 40.4601 42.9285 40.5053 42.8049 40.5264C42.6814 40.546 42.5578 40.5415 42.4342 40.5113C42.3122 40.4812 42.1976 40.4209 42.0906 40.332L42.4101 39.9493C42.4734 39.993 42.5382 40.0261 42.603 40.0457C42.6678 40.0668 42.7341 40.0743 42.7989 40.0683C42.8637 40.0608 42.927 40.0397 42.9903 40.0035C43.0536 39.9673 43.1139 39.9161 43.1696 39.8483C43.2193 39.7895 43.257 39.7277 43.2826 39.6659C43.3082 39.6027 43.3233 39.5424 43.3248 39.4821C43.3263 39.4218 43.3158 39.3646 43.2917 39.3088C43.2676 39.2545 43.2314 39.2063 43.1801 39.1641C43.1259 39.1204 43.0671 39.0948 43.0038 39.0888C42.9405 39.0828 42.8758 39.0888 42.8079 39.1084C42.7386 39.1295 42.6693 39.1596 42.597 39.2003C42.5246 39.241 42.4523 39.2862 42.3785 39.3359C42.2865 39.3992 42.1886 39.455 42.0891 39.5047C41.9882 39.5544 41.8857 39.5921 41.7817 39.6177C41.6506 39.6479 41.521 39.6524 41.3929 39.6313C41.2648 39.6102 41.1443 39.5514 41.0327 39.458C40.9288 39.3706 40.8549 39.2726 40.8112 39.1641C40.7675 39.0541 40.751 38.9411 40.7585 38.8251C40.766 38.706 40.7962 38.5855 40.8489 38.4649C40.9032 38.3443 40.9755 38.2298 41.0659 38.1228C41.1623 38.0083 41.2739 37.9103 41.4035 37.8275C41.5331 37.7461 41.6657 37.6918 41.8028 37.6677C41.9309 37.6451 42.056 37.6481 42.1795 37.6768C42.3031 37.7054 42.4222 37.7657 42.5352 37.8576L42.2127 38.2434C42.1358 38.1891 42.0605 38.153 41.9866 38.1334C41.9128 38.1138 41.8405 38.1123 41.7696 38.1273C41.6988 38.1409 41.6295 38.1695 41.5632 38.2132C41.4984 38.2569 41.4351 38.3142 41.3778 38.3835C41.3281 38.4423 41.2889 38.5041 41.2603 38.5659C41.2317 38.6277 41.2166 38.6894 41.2121 38.7512C41.2091 38.81 41.2181 38.8673 41.2392 38.923C41.2603 38.9773 41.2965 39.027 41.3492 39.0692C41.4035 39.1144 41.4607 39.1445 41.5225 39.1566M42.9074 37.4598C42.7748 37.3739 42.6678 37.2759 42.5849 37.1644C42.502 37.0529 42.4463 36.9369 42.4176 36.8133C42.389 36.6882 42.3875 36.5586 42.4131 36.4275C42.4387 36.2949 42.4945 36.1638 42.5774 36.0342C42.6603 35.9061 42.7552 35.8051 42.8652 35.7283C42.9737 35.6514 43.0897 35.6032 43.2148 35.5806C43.3399 35.5565 43.4695 35.561 43.6051 35.5911C43.7407 35.6213 43.8749 35.6786 44.0075 35.7629L45.7164 36.8766L45.4466 37.2925L43.7332 36.1864C43.6518 36.1352 43.5704 36.0975 43.4921 36.0719C43.4137 36.0462 43.3369 36.0372 43.2676 36.0432C43.1997 36.0493 43.1365 36.0704 43.0792 36.105C43.0204 36.1397 42.9707 36.1909 42.9255 36.2587C42.8803 36.328 42.8531 36.3974 42.8441 36.4667C42.8351 36.536 42.8411 36.6038 42.8652 36.6716C42.8893 36.7394 42.9285 36.8042 42.9827 36.8645C43.037 36.9263 43.1033 36.9836 43.1817 37.0378L44.8905 38.1515L44.6208 38.5674L42.9074 37.4598ZM43.7498 34.9854L43.3776 34.803L44.241 33.0429L46.9792 34.3856L46.7561 34.8392L44.3902 33.6788L43.7498 34.9854ZM44.9734 32.6677C44.877 32.5757 44.8046 32.4718 44.7549 32.3572C44.7037 32.2412 44.6766 32.1161 44.6735 31.982C44.6705 31.8479 44.6946 31.7077 44.7459 31.5631C44.7881 31.444 44.8423 31.3415 44.9086 31.2526C44.9749 31.1637 45.0533 31.0914 45.1392 31.0341C45.2206 30.9784 45.311 30.9362 45.4089 30.9076C45.5069 30.8789 45.6094 30.8623 45.7164 30.8563C45.8218 30.8503 45.9318 30.8563 46.0464 30.8759C46.1609 30.894 46.2769 30.9241 46.3945 30.9648L46.7878 31.1019C46.8993 31.1411 47.0048 31.1878 47.1012 31.2436C47.1992 31.2994 47.2881 31.3611 47.3665 31.429C47.4554 31.5043 47.5307 31.5887 47.5925 31.6806C47.6543 31.7725 47.701 31.8705 47.7311 31.9715C47.7583 32.0679 47.7703 32.1689 47.7673 32.2744C47.7643 32.3798 47.7432 32.4868 47.704 32.5999C47.6513 32.7521 47.582 32.8786 47.4945 32.9826C47.4071 33.0866 47.3092 33.1665 47.1977 33.2222C47.0847 33.278 46.9611 33.3111 46.8255 33.3202C46.6913 33.3292 46.5497 33.3157 46.4005 33.2795L46.5663 32.8048C46.6552 32.8274 46.7381 32.838 46.8149 32.838C46.8933 32.838 46.9626 32.8259 47.0274 32.8003C47.0907 32.7732 47.1464 32.734 47.1947 32.6797C47.2429 32.6255 47.2821 32.5546 47.3122 32.4657C47.3348 32.404 47.3454 32.3452 47.3454 32.2894C47.3454 32.2337 47.3363 32.1824 47.3182 32.1327C47.2986 32.0664 47.264 32.0061 47.2158 31.9489C47.166 31.8931 47.1088 31.8404 47.041 31.7906C46.9807 31.7499 46.9159 31.7123 46.8435 31.6791C46.7712 31.6444 46.6974 31.6143 46.619 31.5857L46.2212 31.447C46.1247 31.4139 46.0328 31.3868 45.9439 31.3687C45.855 31.3506 45.7721 31.3416 45.6938 31.34C45.629 31.3385 45.5687 31.3431 45.5114 31.3551C45.4541 31.3672 45.4014 31.3868 45.3532 31.4139C45.3019 31.4425 45.2582 31.4787 45.2206 31.5254C45.1829 31.5721 45.1512 31.6294 45.1271 31.6987C45.0985 31.7801 45.0849 31.8569 45.0864 31.9293C45.088 32.0001 45.1045 32.0679 45.1347 32.1282C45.1648 32.187 45.2085 32.2412 45.2658 32.2924C45.3245 32.3422 45.3954 32.3859 45.4798 32.4251L45.3125 32.9012C45.1784 32.8395 45.0623 32.7611 44.9674 32.6692M45.3728 29.6402L47.6347 29.1233L45.5852 28.6697L45.6953 28.1724L48.673 28.8265L48.563 29.3253L46.3101 29.8376L48.3505 30.2897L48.242 30.7855L45.2628 30.1315L45.3713 29.6387L45.3728 29.6402ZM48.8297 27.8771L48.4153 27.8379L48.4771 27.1899L46.2694 26.9804L46.2076 27.6284L45.7947 27.5892L45.965 25.8005L46.3779 25.8397L46.3176 26.4741L48.5253 26.6836L48.5856 26.0491L49 26.0883L48.8297 27.8771ZM46.8315 20.7808L47.2338 20.7296L47.4493 22.4023L47.047 22.4536L46.8315 20.7808ZM45.6862 15.9224L44.7926 16.254L45.305 17.6343L44.9162 17.779L44.2275 15.9254L47.0862 14.8646L47.7703 16.7091L47.38 16.8537L46.8707 15.4824L46.066 15.7808L46.506 16.9622L46.1247 17.1039L45.6847 15.9224H45.6862ZM44.8966 14.9716C44.7564 15.0439 44.6193 15.0891 44.4822 15.1072C44.345 15.1238 44.2154 15.1162 44.0934 15.0801C43.9698 15.0439 43.8583 14.9821 43.7558 14.8947C43.6533 14.8073 43.5659 14.6943 43.4951 14.5571C43.4243 14.423 43.3821 14.2889 43.37 14.1563C43.3565 14.0237 43.37 13.8986 43.4122 13.7796C43.4529 13.659 43.5207 13.5475 43.6127 13.445C43.7061 13.3425 43.8206 13.2536 43.9608 13.1783L45.7706 12.2364L46.0012 12.6765L44.1958 13.6258C44.1115 13.6726 44.0376 13.7238 43.9773 13.7796C43.9171 13.8368 43.8718 13.8971 43.8417 13.9619C43.8146 14.0237 43.801 14.0885 43.8025 14.1563C43.804 14.2241 43.8236 14.2934 43.8613 14.3658C43.899 14.4381 43.9472 14.4969 44.0029 14.5391C44.0587 14.5813 44.122 14.6084 44.1913 14.6219C44.2621 14.634 44.3375 14.631 44.4174 14.6144C44.4972 14.5978 44.5801 14.5677 44.666 14.527L46.4759 13.5852L46.7064 14.0252L44.8996 14.9731L44.8966 14.9716ZM44.1883 11.7844C44.2486 11.7316 44.3013 11.6789 44.348 11.6231C44.3978 11.5674 44.4385 11.5071 44.4701 11.4453C44.5017 11.3835 44.5229 11.3202 44.5334 11.2569C44.5439 11.1981 44.5409 11.1364 44.5259 11.0731C44.5123 11.0098 44.4822 10.9465 44.4385 10.8832C44.3948 10.8214 44.348 10.7732 44.2953 10.74C44.2426 10.7069 44.1883 10.6843 44.128 10.6722C44.0572 10.6587 43.9834 10.6587 43.905 10.6722C43.8266 10.6858 43.7483 10.7099 43.6699 10.7461C43.6096 10.7717 43.5494 10.8003 43.4891 10.835C43.4288 10.8681 43.3715 10.9058 43.3143 10.9435L42.9662 11.1846C42.9149 11.2208 42.8637 11.2599 42.814 11.3036C42.7642 11.3473 42.719 11.3925 42.6768 11.4408C42.6226 11.4995 42.5774 11.5628 42.5427 11.6276C42.5065 11.6924 42.4839 11.7587 42.4749 11.8265C42.4643 11.8838 42.4659 11.9441 42.4779 12.0044C42.4915 12.0646 42.5186 12.1249 42.5608 12.1867C42.603 12.2485 42.6527 12.2967 42.7055 12.3299C42.7582 12.3645 42.8155 12.3886 42.8742 12.4022C42.9405 12.4173 43.0099 12.4203 43.0822 12.4097C43.1545 12.3992 43.2269 12.3826 43.3007 12.3585C43.3625 12.3344 43.4228 12.3058 43.4815 12.2741C43.5403 12.2425 43.5961 12.2078 43.6503 12.1716L43.9984 11.9305C44.0632 11.8853 44.1265 11.8371 44.1868 11.7844M43.6609 12.7458C43.5629 12.7895 43.4635 12.8241 43.364 12.8468C43.2766 12.8663 43.1877 12.8784 43.0973 12.8814C43.0069 12.8844 42.9194 12.8754 42.8336 12.8558L42.7582 13.5324L42.3212 13.4314L42.4176 12.6478C42.38 12.6162 42.3438 12.5815 42.3106 12.5454C42.2775 12.5092 42.2458 12.4685 42.2157 12.4263C42.1434 12.3223 42.0936 12.2184 42.065 12.1129C42.0364 12.0074 42.0243 11.9034 42.0288 11.7994C42.0349 11.6954 42.056 11.5915 42.0936 11.4905C42.1313 11.3895 42.181 11.2931 42.2428 11.2042C42.2986 11.1213 42.3649 11.0429 42.4387 10.9691C42.5126 10.8952 42.594 10.8289 42.6799 10.7687L43.0234 10.5306C43.1184 10.4658 43.2148 10.4085 43.3158 10.3618C43.4167 10.3151 43.5162 10.2774 43.6172 10.2503C43.7287 10.2186 43.8402 10.2021 43.9517 10.2005C44.0632 10.199 44.1702 10.2156 44.2742 10.2488C44.3722 10.2804 44.4656 10.3286 44.5545 10.3934C44.6419 10.4567 44.7218 10.5396 44.7926 10.6421C44.8634 10.7446 44.9131 10.8485 44.9433 10.954C44.9734 11.0595 44.987 11.165 44.9825 11.269C44.9764 11.382 44.9538 11.492 44.9131 11.602C44.8725 11.7105 44.8152 11.816 44.7429 11.9155C44.6841 11.9968 44.6163 12.0752 44.5379 12.1475C44.4611 12.2214 44.3767 12.2892 44.2893 12.3525L43.9457 12.5906C43.8568 12.6508 43.7633 12.7036 43.6639 12.7473M43.6036 9.10349L43.2856 9.37323L42.8637 8.87744L41.1744 10.3151L41.5964 10.8109L41.2814 11.0791L40.1165 9.71079L40.4315 9.44255L40.8444 9.92779L42.5337 8.49016L42.1208 8.00492L42.4387 7.73518L43.6036 9.10349ZM40.9122 6.84607L39.1295 8.78401L38.7618 8.44495L40.5445 6.50701L39.8573 5.87409L40.1391 5.56667L41.8872 7.17459L41.6054 7.48201L40.9122 6.84607ZM39.8528 4.41084L39.0556 4.54195L38.7422 4.31741L39.3902 4.07931L39.8528 4.41235V4.41084ZM37.4372 5.6797L36.8811 6.45276L38.0776 7.31172L37.835 7.64928L36.2301 6.49496L38.0098 4.01753L39.6072 5.16583L39.3646 5.50489L38.1771 4.65195L37.6753 5.34967L38.7 6.08507L38.4634 6.41509L37.4387 5.6797H37.4372ZM35.3214 5.96149L35.9769 4.77101L35.0788 4.27522L34.4233 5.46571L33.9938 5.22912L35.4646 2.55729L35.8941 2.79388L35.2792 3.91054L36.1789 4.40632L36.7937 3.28967L37.2247 3.52777L35.7539 6.19959L35.3229 5.96149H35.3214ZM33.8386 2.29207L32.8515 4.73333L32.3874 4.54496L33.3744 2.1037L32.5079 1.75409L32.6647 1.3668L34.8663 2.25741L34.7096 2.6447L33.8371 2.29207H33.8386ZM31.0598 3.03952C31.0462 2.97924 31.0191 2.92198 30.9784 2.86622C30.9347 2.81197 30.8804 2.75923 30.8156 2.70799C30.7508 2.65675 30.677 2.60552 30.5926 2.55579C30.4645 2.47893 30.35 2.39605 30.249 2.30714C30.148 2.21823 30.0652 2.12781 30.0034 2.03288C29.9401 1.93794 29.8994 1.83848 29.8783 1.73299C29.8572 1.62751 29.8617 1.5175 29.8934 1.40146C29.9265 1.27639 29.9853 1.1709 30.0667 1.085C30.148 0.999108 30.2445 0.932803 30.3545 0.886087C30.466 0.840879 30.5866 0.816767 30.7192 0.812246C30.8518 0.807725 30.9844 0.824301 31.12 0.860467C31.2632 0.899648 31.3898 0.956914 31.5013 1.03377C31.6128 1.11062 31.7032 1.20104 31.774 1.30351C31.8434 1.40749 31.8901 1.52202 31.9142 1.64559C31.9368 1.77067 31.9308 1.89876 31.8946 2.03288L31.4139 1.90177C31.4274 1.82642 31.4305 1.75409 31.4214 1.68628C31.4124 1.61846 31.3928 1.55517 31.3596 1.49942C31.325 1.44366 31.2798 1.39544 31.221 1.35173C31.1622 1.30954 31.0899 1.27639 31.0055 1.25378C30.9317 1.23268 30.8608 1.22515 30.793 1.22816C30.7252 1.23118 30.6634 1.24323 30.6077 1.26584C30.5519 1.28995 30.5037 1.3231 30.4645 1.36831C30.4253 1.41201 30.3967 1.46626 30.3786 1.52955C30.362 1.59737 30.3635 1.66066 30.3831 1.72094C30.4027 1.78121 30.4359 1.83697 30.4826 1.88971C30.5293 1.94396 30.5881 1.9937 30.6544 2.04192C30.7222 2.09014 30.793 2.13836 30.8684 2.18508C30.9633 2.24234 31.0552 2.30714 31.1426 2.37797C31.23 2.44879 31.3069 2.52565 31.3732 2.61155C31.4561 2.71854 31.5133 2.83457 31.5465 2.95965C31.5797 3.08473 31.5766 3.21885 31.539 3.3605C31.5028 3.4916 31.444 3.5986 31.3626 3.68449C31.2813 3.76888 31.1848 3.83217 31.0763 3.87437C30.9648 3.91807 30.8428 3.94067 30.7101 3.94067C30.5775 3.94067 30.4449 3.9241 30.3078 3.88642C30.1631 3.84724 30.0275 3.78546 29.8994 3.70258C29.7713 3.61969 29.6673 3.52024 29.586 3.40571C29.5121 3.29872 29.4624 3.18419 29.4353 3.05911C29.4081 2.93554 29.4142 2.80142 29.4518 2.65977L29.9371 2.79087C29.919 2.8828 29.9175 2.96719 29.931 3.04253C29.9446 3.11788 29.9732 3.18419 30.0169 3.24296C30.0591 3.30173 30.1134 3.35296 30.1812 3.39365C30.249 3.43585 30.3259 3.46749 30.4148 3.4916C30.4886 3.51119 30.561 3.52174 30.6288 3.52174C30.6981 3.52174 30.7599 3.51119 30.8171 3.48859C30.8729 3.46749 30.9196 3.43585 30.9618 3.39365C31.0025 3.35146 31.0326 3.29721 31.0492 3.23241C31.0673 3.1646 31.0703 3.0998 31.0567 3.03952M27.5636 1.87163L27.4039 2.81197L28.8551 3.0576L28.7858 3.46599L26.8358 3.13596L27.3451 0.129598L29.2846 0.458112L29.2152 0.869511L27.7746 0.625383L27.6314 1.47229L28.8747 1.68326L28.8069 2.08411L27.5636 1.87314V1.87163ZM22.2411 1.79176L22.3164 2.74114L23.7842 2.62661L23.8173 3.03952L21.8463 3.19473L21.6082 0.15371L23.5687 0L23.6019 0.415917L22.1446 0.530447L22.2109 1.38639L23.4677 1.28844L23.4994 1.69381L22.2426 1.79176H22.2411ZM20.8019 3.37105L19.4065 1.51599L19.8285 3.57147L19.3297 3.67395L18.7118 0.687169L19.2121 0.583189L20.6 2.43071L20.1811 0.382764L20.6769 0.280293L21.2947 3.26707L20.8004 3.36954L20.8019 3.37105ZM17.8137 0.935815L17.9387 1.33365L17.3179 1.52955L17.9839 3.64531L18.6048 3.44941L18.7299 3.84423L17.015 4.38372L16.8899 3.9889L17.4972 3.79751L16.8311 1.68176L16.2238 1.87314L16.0987 1.4753L17.8122 0.935815H17.8137ZM16.2193 4.12603C16.2193 4.25864 16.1952 4.38372 16.1485 4.49825C16.1003 4.61579 16.0294 4.72128 15.9345 4.81772C15.8396 4.91417 15.722 4.99253 15.5819 5.05732C15.4673 5.11007 15.3558 5.14322 15.2458 5.15528C15.1358 5.16733 15.0303 5.16281 14.9294 5.14021C14.8329 5.12062 14.7395 5.08445 14.6506 5.03472C14.5617 4.98349 14.4788 4.9217 14.4004 4.84936C14.3221 4.77703 14.2512 4.69415 14.1849 4.5977C14.1186 4.50126 14.0598 4.39728 14.0071 4.28577L13.8323 3.90752C13.7826 3.80053 13.7434 3.69203 13.7148 3.58353C13.6861 3.47503 13.6695 3.36803 13.665 3.26255C13.6575 3.14651 13.665 3.03349 13.6876 2.92499C13.7117 2.81649 13.7494 2.71552 13.8007 2.62209C13.8519 2.5362 13.9152 2.45633 13.9935 2.3855C14.0704 2.31468 14.1638 2.2544 14.2708 2.20467C14.417 2.13686 14.5571 2.09918 14.6913 2.09014C14.8254 2.07959 14.952 2.09617 15.0695 2.13685C15.1886 2.17905 15.2986 2.24536 15.398 2.33577C15.4975 2.4277 15.5864 2.5377 15.6632 2.67032L15.2066 2.88129C15.1614 2.80142 15.1117 2.73511 15.0574 2.67936C15.0032 2.6236 14.9459 2.58141 14.8826 2.55277C14.8194 2.52565 14.7515 2.51359 14.6792 2.51661C14.6069 2.51962 14.5285 2.54072 14.4441 2.5799C14.3838 2.60702 14.3341 2.64018 14.2949 2.67936C14.2542 2.71703 14.2241 2.76073 14.2 2.80745C14.1668 2.86773 14.1457 2.93554 14.1397 3.00938C14.1337 3.08473 14.1352 3.16309 14.1473 3.24446C14.1608 3.31529 14.1789 3.38913 14.203 3.46448C14.2271 3.53983 14.2573 3.61517 14.2919 3.69052L14.4682 4.07329C14.5104 4.16521 14.5556 4.2496 14.6039 4.32645C14.6521 4.4018 14.7033 4.46961 14.7576 4.52537C14.8013 4.57359 14.8465 4.61277 14.8947 4.64593C14.9429 4.67908 14.9942 4.70319 15.0469 4.71826C15.1027 4.73634 15.1614 4.74237 15.2202 4.73634C15.2805 4.73032 15.3423 4.71374 15.4086 4.68209C15.4869 4.64593 15.5517 4.60222 15.6015 4.5525C15.6512 4.50126 15.6889 4.444 15.7115 4.3792C15.7326 4.31741 15.7416 4.24658 15.7371 4.17124C15.7326 4.09438 15.7145 4.01301 15.6843 3.92561L16.1425 3.71463C16.1922 3.85478 16.2163 3.99191 16.2163 4.12452M12.253 5.26378L12.7563 6.07301L14.0071 5.29542L14.2256 5.64654L12.5469 6.69237L10.9344 4.10343L12.6041 3.06363L12.8241 3.41776L11.5839 4.19083L12.0375 4.92019L13.1075 4.25412L13.3229 4.59921L12.253 5.26528V5.26378ZM10.6315 7.61161L10.8395 7.45187C10.9103 7.39762 10.9691 7.33885 11.0143 7.27556C11.061 7.21377 11.0942 7.14747 11.1183 7.07815C11.1409 7.00732 11.1529 6.93197 11.1529 6.8521C11.1529 6.77223 11.1394 6.69086 11.1138 6.60647C11.0912 6.53414 11.061 6.4618 11.0218 6.38796C10.9827 6.31412 10.9344 6.24028 10.8772 6.16644L10.7295 5.97355C10.6737 5.89971 10.615 5.83642 10.5532 5.77916C10.4914 5.72189 10.4296 5.67517 10.3648 5.63599C10.2864 5.58928 10.2036 5.55462 10.1177 5.53352C10.0318 5.51242 9.94437 5.50941 9.85696 5.52147C9.79367 5.53051 9.72887 5.54859 9.66257 5.57722C9.59626 5.60585 9.53146 5.64504 9.46666 5.69326L9.27226 5.84245L10.633 7.6101L10.6315 7.61161ZM8.61674 5.82888L9.215 5.36926C9.31898 5.2894 9.42597 5.2261 9.53598 5.17939C9.64599 5.13267 9.75449 5.10103 9.86299 5.08445C9.97752 5.06486 10.092 5.06335 10.2066 5.07842C10.3211 5.095 10.4296 5.12664 10.5351 5.17487C10.6436 5.2246 10.7491 5.2909 10.8516 5.37228C10.9525 5.45516 11.049 5.55311 11.1364 5.66613L11.2825 5.85601C11.3669 5.96602 11.4347 6.07753 11.4875 6.19357C11.5402 6.3096 11.5764 6.42262 11.5975 6.53715C11.6171 6.64716 11.6216 6.75716 11.6141 6.86566C11.605 6.97417 11.5839 7.07965 11.5478 7.17911C11.5071 7.29063 11.4483 7.39611 11.3714 7.49708C11.2961 7.59804 11.2012 7.69147 11.0912 7.77586L10.4808 8.24603L8.61975 5.83039L8.61674 5.82888ZM7.27857 6.03534L7.27254 6.84457L6.99828 7.11582L6.8732 6.43618L7.27857 6.03534ZM8.12397 8.6303L8.79306 9.30843L9.84189 8.27466L10.1327 8.57003L8.72524 9.95943L6.58387 7.78792L7.98382 6.40604L8.27617 6.70291L7.23638 7.73066L7.83916 8.34097L8.7373 7.45488L9.02211 7.74422L8.12397 8.6303ZM6.36686 10.0725L5.60435 8.93471L5.99314 8.44344L8.38166 10.3392L8.0878 10.7099L7.27706 10.0664L6.22823 9.19692L7.07664 10.4703L6.91389 10.6752L5.54859 10.1342L6.59291 10.9284L7.40365 11.5719L7.10979 11.9411L4.72128 10.0453L5.10856 9.55708L6.36536 10.074L6.36686 10.0725ZM3.67545 15.2338L4.54044 15.6331L5.15678 14.2964L5.53352 14.4697L4.70621 16.266L1.93643 14.9896L2.76073 13.2039L3.13898 13.3787L2.52716 14.7063L3.30776 15.0665L3.83519 13.9212L4.20439 14.0915L3.67696 15.2368L3.67545 15.2338ZM3.63477 18.0668L3.71463 17.8182C3.74176 17.7338 3.75683 17.6509 3.75984 17.5741C3.76135 17.4957 3.75381 17.4219 3.73272 17.3525C3.71162 17.2817 3.67847 17.2139 3.63326 17.1476C3.58805 17.0813 3.53078 17.0225 3.46146 16.9683C3.40269 16.9215 3.33639 16.8794 3.26255 16.8402C3.18871 16.801 3.10733 16.7678 3.01692 16.7392L2.78635 16.6654C2.69895 16.6367 2.61305 16.6171 2.53017 16.6051C2.44729 16.593 2.36893 16.5885 2.29358 16.593C2.20165 16.5991 2.11425 16.6171 2.03137 16.6503C1.94849 16.6819 1.87465 16.7271 1.80985 16.7874C1.76163 16.8311 1.71943 16.8824 1.68176 16.9441C1.64408 17.0059 1.61093 17.0737 1.58531 17.1506L1.50996 17.3842L3.63326 18.0698L3.63477 18.0668ZM0.96445 17.7398L1.19652 17.0225C1.23721 16.8974 1.28844 16.7844 1.35324 16.6834C1.41804 16.5825 1.48887 16.4951 1.56874 16.4212C1.65162 16.3399 1.74505 16.2736 1.84903 16.2223C1.9515 16.1711 2.06 16.1349 2.17453 16.1153C2.29207 16.0942 2.41715 16.0897 2.54675 16.0987C2.67635 16.1093 2.81046 16.1349 2.94759 16.1801L3.17515 16.254C3.30625 16.2962 3.42681 16.3504 3.53531 16.4152C3.64381 16.48 3.73874 16.5538 3.82012 16.6352C3.89848 16.7151 3.96479 16.8025 4.01904 16.8959C4.07329 16.9909 4.11398 17.0888 4.1411 17.1913C4.16973 17.3058 4.18179 17.4279 4.17576 17.553C4.16973 17.6795 4.14562 17.8091 4.10343 17.9417L3.86683 18.6756L0.96445 17.7383V17.7398ZM2.24084 21.5524C2.39756 21.5675 2.53921 21.6051 2.66278 21.6654C2.78635 21.7257 2.89033 21.8041 2.97321 21.9005C3.0561 21.9985 3.11788 22.1115 3.15555 22.2411C3.19323 22.3707 3.20528 22.5123 3.19021 22.666C3.17514 22.8167 3.13747 22.9524 3.07719 23.0699C3.01541 23.1874 2.93554 23.2854 2.83608 23.3622C2.73662 23.4406 2.61908 23.4979 2.48496 23.534C2.35084 23.5702 2.20618 23.5808 2.04795 23.5672L0.018085 23.3698L0.0648001 22.8755L2.09617 23.0639C2.19261 23.0714 2.28152 23.0684 2.3629 23.0533C2.44578 23.0383 2.51661 23.0126 2.57538 22.975C2.63264 22.9388 2.67785 22.8906 2.71402 22.8333C2.75019 22.776 2.77128 22.7067 2.77882 22.6269C2.78635 22.544 2.77882 22.4701 2.7547 22.4053C2.73059 22.339 2.69292 22.2818 2.64168 22.2335C2.58894 22.1853 2.52414 22.1461 2.44729 22.116C2.37043 22.0859 2.28604 22.0663 2.19111 22.0542L0.161245 21.8568L0.20796 21.3625L2.23933 21.5539L2.24084 21.5524ZM1.72395 25.6302L2.67635 25.6031L2.63415 24.1308L3.04856 24.1187L3.10432 26.0959L0.0557587 26.1833L0 24.2167L0.417426 24.2046L0.45962 25.6664L1.31858 25.6423L1.28242 24.3809L1.68778 24.3689L1.72395 25.6302ZM0.149189 27.211L0.560586 27.1477L0.660045 27.7912L2.85266 27.4521L2.7532 26.8086L3.16309 26.7454L3.43735 28.522L3.02746 28.5853L2.92951 27.9554L0.736899 28.2945L0.833343 28.9244L0.421947 28.9877L0.147683 27.211H0.149189ZM3.15857 29.2198L3.55942 29.1158L4.05219 31.013L1.10007 31.7801L0.973491 31.2918L3.52325 30.6288L3.15706 29.2198H3.15857Z" fill="#C0DDCE"/>
</svg>
