<svg width="166" height="25" viewBox="0 0 166 25" fill="none" xmlns="http://www.w3.org/2000/svg">
<path d="M73.593 1.7373H73.3622C70.2988 1.7373 68.274 3.16373 67.3487 5.21177H66.8871C66.1359 3.07431 63.9957 1.7373 61.1631 1.7373H60.9323C57.9255 1.7373 55.9595 3.16373 55.2671 5.21177H54.7467V2.18443H50.6992V23.9189H54.7467V9.17698C54.7467 5.61527 57.2331 4.67959 59.5454 4.67959H59.7762C61.801 4.67959 63.1879 5.57165 63.1879 8.19768V23.9189H67.2354V9.17698C67.2354 5.61527 69.7785 4.67959 72.0341 4.67959H72.2649C74.3463 4.67959 75.7332 5.57165 75.7332 8.19768V23.9189H79.7807V7.48446C79.7807 3.87695 77.2377 1.73949 73.5952 1.73949L73.593 1.7373Z" fill="black"/>
<path d="M103.045 20.4117V10.2697C103.045 4.30221 100.292 1.40137 94.6338 1.40137H94.5467C89.158 1.40137 85.7855 4.35237 85.2999 9.49755L85.276 9.74183H89.1123L89.1319 9.54117C89.4607 6.32843 91.1829 4.76242 94.3987 4.75806C97.1659 4.75369 99.4325 7.0133 99.4325 9.78545V11.0439L92.6721 11.9011C87.1615 12.586 84.5967 14.562 84.5967 18.1216V18.3855C84.5967 22.4379 87.8473 24.2526 91.0718 24.2526H91.2482C95.1934 24.2526 97.4207 21.7923 98.5812 19.6723C98.7924 19.2841 98.9469 18.8697 99.058 18.4422L99.1451 18.1019L99.5783 18.1172L99.7569 23.812H106.881V20.4117H103.051H103.045ZM91.7272 20.9417H91.5508C89.4563 20.9417 88.2066 19.9537 88.2066 18.2982V18.0343C88.2066 16.1477 89.5956 15.2447 93.162 14.815L99.4259 14.0517C99.3367 18.5774 95.5069 20.9439 91.725 20.9439L91.7272 20.9417Z" fill="black"/>
<path d="M34.3244 1.37939C27.4748 1.37939 22.502 6.19305 22.502 12.8279C22.502 19.4628 27.4748 24.2764 34.3244 24.2764C41.174 24.2764 46.1055 19.4606 46.1055 12.8279C46.1055 6.19523 41.1523 1.37939 34.3244 1.37939ZM34.3244 20.7038C29.6172 20.7038 26.3296 17.4649 26.3296 12.8279C26.3296 8.19092 29.6172 4.9062 34.3244 4.9062C39.0316 4.9062 42.2757 8.16256 42.2757 12.8279C42.2757 17.4932 39.0055 20.7038 34.3244 20.7038Z" fill="black"/>
<path d="M14.5048 12.0103L14.0999 11.8991C12.9002 11.5676 11.3936 11.6941 10.7251 12.7279L10.4312 13.247L10.0545 13.1663C10.0241 12.5469 9.79763 11.9732 9.42749 11.5152C9.05736 11.0572 8.54353 10.7148 7.94043 10.5599C5.70222 9.98845 4.2108 9.20762 4.2108 7.25555C4.2108 5.98616 4.9097 3.85743 9.58861 3.85743H9.87166C13.8909 3.85743 15.7546 5.35801 15.9092 8.72561V8.77795H19.469V8.71906C19.273 3.58915 15.8482 0.764648 9.82376 0.764648H9.58861C4.1346 0.764648 0.746797 3.27071 0.746797 7.30354C0.746797 12.1346 5.44531 13.0987 9.9914 14.0278L9.98705 14.0344L10.0633 14.0496C13.6535 14.7694 16.4883 15.3365 16.4883 18.0737C16.4883 20.5514 14.5288 21.7554 10.4987 21.7554H10.2614C5.66303 21.7554 3.72092 20.305 3.56198 16.7455V16.6931H0V16.7498C0.19813 22.0782 3.74487 24.894 10.2592 24.894H10.4965C13.3661 24.894 15.7568 24.2636 17.4071 23.0728C19.0705 21.8732 19.9501 20.1261 19.9501 18.0236C19.9501 16.3441 19.4341 15.0311 18.3695 14.0104C17.492 13.1663 16.2641 12.5316 14.5048 12.0103Z" fill="black"/>
<path d="M119.093 2.23584H120.05L121.43 5.06853L122.81 2.23584H123.766V6.73283H123.043V3.29152L121.809 5.84245H121.044L119.81 3.29152V6.73283H119.086V2.23584H119.093Z" fill="black"/>
<path d="M125.646 2.23618H128.799V2.90115H126.369V4.17473H128.421V4.80589H126.369V6.0682H128.799V6.73317H125.646V2.23618ZM126.321 1.46977L127.566 0.635742L127.881 1.18425L126.576 1.90182L126.321 1.46602V1.46977Z" fill="black"/>
<path d="M130.435 6.72893V2.23193H132.088C132.433 2.23193 132.745 2.28453 133.026 2.39348C133.307 2.50243 133.547 2.65271 133.75 2.85182C133.952 3.05094 134.106 3.28762 134.219 3.56187C134.331 3.83613 134.387 4.14044 134.387 4.47856C134.387 4.81667 134.331 5.12098 134.219 5.39899C134.106 5.677 133.952 5.91368 133.75 6.10904C133.547 6.3044 133.307 6.45844 133.026 6.56363C132.745 6.67258 132.433 6.72517 132.088 6.72517H130.435V6.72893ZM131.158 6.04142H132.088C132.321 6.04142 132.531 6.00385 132.719 5.93247C132.906 5.85733 133.067 5.75589 133.202 5.62065C133.337 5.4854 133.439 5.32385 133.514 5.13225C133.589 4.94065 133.622 4.72651 133.622 4.48983C133.622 4.25314 133.585 4.039 133.514 3.8474C133.442 3.65579 133.337 3.49049 133.202 3.359C133.067 3.22375 132.906 3.12232 132.719 3.04718C132.531 2.97205 132.321 2.93448 132.088 2.93448H131.158V6.04893V6.04142Z" fill="black"/>
<path d="M135.963 2.23584H139.117V2.90081H136.687V4.17439H138.738V4.80555H136.687V6.06786H139.117V6.73283H135.963V2.23584Z" fill="black"/>
<path d="M140.38 4.48285C140.38 4.16351 140.44 3.86672 140.56 3.58495C140.68 3.30318 140.845 3.05523 141.055 2.8486C141.265 2.63822 141.509 2.47291 141.79 2.35269C142.071 2.23247 142.371 2.17236 142.694 2.17236C142.975 2.17236 143.238 2.20993 143.478 2.28507C143.718 2.36021 143.935 2.46916 144.123 2.61192C144.314 2.75092 144.471 2.92374 144.606 3.12661C144.738 3.32948 144.831 3.5549 144.891 3.80285H144.074C143.973 3.52108 143.8 3.29943 143.556 3.13788C143.313 2.97633 143.028 2.89744 142.694 2.89744C142.48 2.89744 142.278 2.93877 142.09 3.02142C141.902 3.10407 141.737 3.21678 141.599 3.3633C141.46 3.50981 141.347 3.67887 141.265 3.87047C141.182 4.06207 141.141 4.2687 141.141 4.4866C141.141 4.7045 141.182 4.91113 141.265 5.10274C141.347 5.29434 141.46 5.4634 141.599 5.60616C141.741 5.74892 141.902 5.86538 142.09 5.94803C142.278 6.03069 142.48 6.07577 142.694 6.07577C143.028 6.07577 143.316 5.99687 143.556 5.83533C143.796 5.67378 143.969 5.45212 144.074 5.17036H144.891C144.835 5.42207 144.738 5.64748 144.606 5.8466C144.475 6.04947 144.314 6.21853 144.123 6.36129C143.931 6.50405 143.718 6.60924 143.478 6.68814C143.238 6.76703 142.975 6.80084 142.694 6.80084C142.371 6.80084 142.071 6.74074 141.79 6.62051C141.509 6.50029 141.261 6.33499 141.055 6.1246C140.845 5.91422 140.68 5.67002 140.56 5.38826C140.44 5.11025 140.38 4.80594 140.38 4.4866V4.48285Z" fill="black"/>
<path d="M146.437 2.23584H147.16V6.73283H146.437V2.23584Z" fill="black"/>
<path d="M149.029 2.23584H149.952L152.089 5.70344V2.23584H152.813V6.73283H151.887L149.749 3.26522V6.73283H149.025V2.23584H149.029Z" fill="black"/>
<path d="M154.683 2.23584H157.837V2.90081H155.406V4.17439H157.458V4.80555H155.406V6.06786H157.837V6.73283H154.683V2.23584Z" fill="black"/>
<path d="M119.094 23.7629V23.1506H120.549V20.2653H119.281V19.6529H121.22V23.1506H122.6V23.7629H119.094ZM120.811 18.909C120.646 18.909 120.519 18.8677 120.425 18.7813C120.331 18.6949 120.283 18.5822 120.283 18.4357C120.283 18.2891 120.331 18.1689 120.425 18.0788C120.519 17.9924 120.65 17.9473 120.811 17.9473C120.973 17.9473 121.104 17.9924 121.198 18.0788C121.291 18.1652 121.34 18.2854 121.34 18.4357C121.34 18.5859 121.291 18.6949 121.198 18.7813C121.104 18.8677 120.973 18.909 120.811 18.909Z" fill="black"/>
<path d="M123.625 23.7633V19.6533H124.296V20.4384H124.439L124.296 20.5962C124.296 20.2731 124.394 20.0214 124.589 19.8449C124.784 19.6683 125.05 19.5781 125.395 19.5781C125.808 19.5781 126.138 19.7059 126.381 19.9576C126.625 20.2093 126.749 20.5587 126.749 20.9982V23.7633H126.078V21.0734C126.078 20.7803 125.999 20.5549 125.841 20.3971C125.684 20.2393 125.47 20.1604 125.204 20.1604C124.938 20.1604 124.705 20.2468 124.544 20.4159C124.383 20.585 124.3 20.8292 124.3 21.1485V23.7633H123.629H123.625Z" fill="black"/>
<path d="M129.684 23.835C129.354 23.835 129.069 23.7711 128.821 23.6472C128.574 23.5232 128.386 23.3429 128.251 23.1062C128.116 22.8695 128.049 22.5877 128.049 22.2646V21.1451C128.049 20.8145 128.116 20.5365 128.251 20.2998C128.386 20.0669 128.578 19.8865 128.821 19.7626C129.069 19.6386 129.354 19.5747 129.684 19.5747C130.156 19.5747 130.535 19.7024 130.824 19.9542C131.113 20.2059 131.263 20.5553 131.278 20.9948H130.607C130.592 20.7318 130.502 20.529 130.34 20.3862C130.179 20.2434 129.958 20.1721 129.68 20.1721C129.388 20.1721 129.151 20.2547 128.979 20.4238C128.806 20.5891 128.716 20.8295 128.716 21.1376V22.2646C128.716 22.5727 128.803 22.8131 128.979 22.9822C129.151 23.1513 129.388 23.2377 129.68 23.2377C129.973 23.2377 130.179 23.1663 130.34 23.0198C130.502 22.877 130.592 22.6741 130.607 22.4149H131.278C131.263 22.8545 131.113 23.2001 130.824 23.4556C130.535 23.711 130.156 23.835 129.684 23.835Z" fill="black"/>
<path d="M134.692 23.7631C134.452 23.7631 134.246 23.7143 134.066 23.6203C133.886 23.5264 133.747 23.3912 133.649 23.2184C133.552 23.0455 133.499 22.8389 133.499 22.606V18.9205H132.119V18.3081H134.171V22.606C134.171 22.775 134.219 22.9103 134.313 23.0042C134.407 23.1019 134.534 23.1507 134.692 23.1507H135.997V23.7631H134.692Z" fill="black"/>
<path d="M138.598 23.8347C138.126 23.8347 137.747 23.6957 137.466 23.414C137.185 23.1322 137.042 22.749 137.042 22.2681V19.6533H137.713V22.2681C137.713 22.5762 137.792 22.8166 137.953 22.9894C138.111 23.1622 138.328 23.2487 138.602 23.2487C138.876 23.2487 139.101 23.1622 139.262 22.9894C139.423 22.8166 139.506 22.5762 139.506 22.2681V19.6533H140.177V22.2681C140.177 22.7527 140.031 23.1322 139.746 23.414C139.461 23.6957 139.078 23.8347 138.606 23.8347H138.598Z" fill="black"/>
<path d="M142.958 23.8191C142.68 23.8191 142.436 23.774 142.23 23.6876C142.024 23.6012 141.859 23.4772 141.739 23.3157C141.615 23.1579 141.544 22.9663 141.518 22.7484H142.189C142.219 22.8949 142.301 23.0076 142.433 23.094C142.564 23.1805 142.74 23.2218 142.958 23.2218H143.273C143.535 23.2218 143.734 23.1692 143.862 23.0602C143.989 22.955 144.057 22.8085 144.057 22.6319C144.057 22.4554 143.997 22.3201 143.88 22.2187C143.764 22.1173 143.591 22.0496 143.363 22.0121L142.811 21.9219C142.41 21.8505 142.11 21.7265 141.911 21.5462C141.716 21.3659 141.615 21.0991 141.615 20.7497C141.615 20.3816 141.731 20.096 141.964 19.8932C142.196 19.6903 142.549 19.5889 143.018 19.5889H143.303C143.696 19.5889 144.012 19.6828 144.252 19.8669C144.492 20.051 144.634 20.2989 144.683 20.6145H144.012C143.982 20.483 143.907 20.3816 143.786 20.3027C143.666 20.2238 143.505 20.1862 143.303 20.1862H143.018C142.763 20.1862 142.579 20.2351 142.463 20.329C142.346 20.4229 142.286 20.5657 142.286 20.7535C142.286 20.9226 142.335 21.0465 142.436 21.1292C142.534 21.2081 142.691 21.2644 142.905 21.302L143.456 21.3922C143.899 21.4635 144.222 21.5913 144.424 21.7829C144.627 21.9707 144.728 22.245 144.728 22.6056C144.728 22.9851 144.608 23.2819 144.364 23.4998C144.124 23.7177 143.756 23.8229 143.273 23.8229H142.958V23.8191Z" fill="black"/>
<path d="M145.957 23.7629V23.1506H147.412V20.2653H146.145V19.6529H148.083V23.1506H149.464V23.7629H145.957ZM147.675 18.909C147.51 18.909 147.382 18.8677 147.288 18.7813C147.195 18.6949 147.146 18.5822 147.146 18.4357C147.146 18.2891 147.195 18.1689 147.288 18.0788C147.382 17.9886 147.513 17.9473 147.675 17.9473C147.836 17.9473 147.967 17.9924 148.065 18.0788C148.158 18.1652 148.207 18.2854 148.207 18.4357C148.207 18.5859 148.158 18.6949 148.065 18.7813C147.971 18.8677 147.84 18.909 147.675 18.909Z" fill="black"/>
<path d="M151.583 23.7634L150.21 19.6533H150.896L151.808 22.4184C151.864 22.5837 151.913 22.7415 151.958 22.8918C152.003 23.0458 152.036 23.1622 152.055 23.2487C152.081 23.1622 152.115 23.0458 152.16 22.8918C152.205 22.7415 152.254 22.5799 152.303 22.4184L153.191 19.6533H153.87L152.498 23.7634H151.586H151.583Z" fill="black"/>
<path d="M156.517 23.835C156.195 23.835 155.91 23.7712 155.67 23.6397C155.43 23.5082 155.242 23.3278 155.111 23.0912C154.98 22.8545 154.912 22.5802 154.912 22.2646V21.1451C154.912 20.8258 154.98 20.5477 155.111 20.3148C155.242 20.0819 155.43 19.8978 155.67 19.7701C155.91 19.6386 156.195 19.5747 156.517 19.5747C156.84 19.5747 157.125 19.6386 157.365 19.7701C157.605 19.8978 157.792 20.0819 157.924 20.3148C158.055 20.5477 158.122 20.8258 158.122 21.1451V21.8702H155.572V22.2684C155.572 22.5915 155.655 22.8394 155.82 23.0123C155.985 23.1851 156.217 23.2715 156.521 23.2715C156.78 23.2715 156.99 23.2264 157.147 23.1325C157.305 23.0386 157.402 22.9033 157.44 22.7192H158.111C158.066 23.0649 157.897 23.3354 157.609 23.5382C157.316 23.7411 156.956 23.8425 156.521 23.8425L156.517 23.835ZM157.462 21.4231V21.1451C157.462 20.822 157.38 20.5703 157.219 20.3975C157.057 20.2246 156.821 20.1345 156.513 20.1345C156.206 20.1345 155.977 20.2209 155.812 20.3975C155.647 20.5703 155.565 20.822 155.565 21.1451V21.363H157.511L157.459 21.4231H157.462Z" fill="black"/>
<path d="M119.094 10.6216H122.248V11.2866H119.818V12.5601H121.869V13.1913H119.818V14.4536H122.248V15.1186H119.094V10.6216Z" fill="black"/>
<path d="M123.736 11.8771C123.736 11.4563 123.883 11.1295 124.171 10.9003C124.46 10.6712 124.869 10.5547 125.398 10.5547C125.926 10.5547 126.343 10.6787 126.635 10.9266C126.928 11.1746 127.082 11.5089 127.093 11.9297H126.317C126.313 11.8358 126.29 11.7456 126.253 11.6555C126.215 11.5653 126.159 11.4864 126.08 11.4188C126.005 11.3511 125.908 11.2985 125.788 11.2572C125.668 11.2159 125.529 11.1971 125.364 11.1971C125.098 11.1971 124.884 11.2572 124.723 11.3699C124.565 11.4864 124.486 11.6479 124.486 11.8546C124.486 11.9785 124.516 12.0837 124.573 12.1664C124.629 12.249 124.711 12.3204 124.809 12.373C124.906 12.4256 125.023 12.4745 125.154 12.512C125.285 12.5496 125.42 12.5796 125.563 12.6135C125.75 12.6548 125.942 12.6961 126.133 12.7412C126.324 12.7863 126.5 12.8539 126.654 12.9441C126.812 13.0342 126.939 13.1544 127.037 13.3047C127.134 13.455 127.183 13.6504 127.183 13.8908C127.183 14.2965 127.04 14.6159 126.759 14.8451C126.478 15.0742 126.054 15.1869 125.495 15.1869C124.936 15.1869 124.456 15.0629 124.13 14.815C123.804 14.567 123.643 14.2289 123.643 13.8044H124.419C124.453 14.0411 124.565 14.2252 124.745 14.3529C124.925 14.4806 125.176 14.5445 125.488 14.5445C125.776 14.5445 126.005 14.4919 126.17 14.3867C126.335 14.2815 126.418 14.1388 126.418 13.9622C126.418 13.8382 126.388 13.733 126.328 13.6541C126.268 13.5752 126.189 13.5076 126.088 13.455C125.987 13.4024 125.87 13.3611 125.739 13.3273C125.608 13.2935 125.469 13.2634 125.326 13.2371C125.139 13.2033 124.951 13.1582 124.764 13.1094C124.576 13.0605 124.404 12.9892 124.25 12.8915C124.096 12.7938 123.973 12.6661 123.875 12.5083C123.778 12.3505 123.733 12.1401 123.733 11.8809L123.736 11.8771Z" fill="black"/>
<path d="M129.831 11.279H128.278V10.6216H132.111V11.279H130.558V15.1186H129.835V11.279H129.831Z" fill="black"/>
<path d="M133.442 10.6216H134.166V12.6428H136.503V10.6216H137.226V15.1186H136.503V13.3153H134.166V15.1186H133.442V10.6216Z" fill="black"/>
<path d="M139.102 10.6219H142.256V11.2869H139.825V12.5605H141.877V13.1916H139.825V14.4539H142.256V15.1189H139.102V10.6219ZM139.78 9.85551L141.025 9.02148L141.34 9.56999L140.035 10.2876L139.78 9.85176V9.85551Z" fill="black"/>
<path d="M144.903 11.279H143.351V10.6216H147.183V11.279H145.631V15.1186H144.907V11.279H144.903Z" fill="black"/>
<path d="M148.515 10.6216H149.238V15.1186H148.515V10.6216Z" fill="black"/>
<path d="M154.492 15.652L153.963 15.0133C153.69 15.126 153.408 15.1823 153.12 15.1823C152.797 15.1823 152.497 15.1222 152.216 15.002C151.935 14.8818 151.687 14.7165 151.481 14.5061C151.271 14.2957 151.106 14.0515 150.986 13.7698C150.866 13.4917 150.806 13.1874 150.806 12.8681C150.806 12.5488 150.866 12.252 150.986 11.9702C151.106 11.6884 151.271 11.4405 151.481 11.2339C151.691 11.0235 151.935 10.8582 152.216 10.738C152.497 10.6177 152.797 10.5576 153.12 10.5576C153.442 10.5576 153.742 10.6177 154.023 10.738C154.305 10.8582 154.548 11.0235 154.758 11.2339C154.968 11.4442 155.133 11.6884 155.253 11.9702C155.374 12.252 155.434 12.5525 155.434 12.8681C155.434 13.24 155.355 13.5819 155.201 13.89C155.043 14.2018 154.833 14.4648 154.563 14.6789L155.362 15.652H154.492ZM151.567 12.8681C151.567 13.086 151.608 13.2926 151.691 13.4842C151.773 13.6758 151.886 13.8449 152.025 13.9877C152.163 14.1304 152.328 14.2469 152.516 14.3295C152.703 14.4159 152.906 14.4573 153.12 14.4573C153.333 14.4573 153.536 14.4159 153.727 14.3295C153.918 14.2431 154.083 14.1304 154.222 13.9877C154.361 13.8449 154.473 13.6758 154.552 13.4842C154.631 13.2926 154.672 13.086 154.672 12.8681C154.672 12.6502 154.631 12.4436 154.548 12.252C154.466 12.0604 154.353 11.8913 154.215 11.7448C154.072 11.5983 153.911 11.4856 153.723 11.4029C153.536 11.3203 153.333 11.2789 153.12 11.2789C152.906 11.2789 152.703 11.3203 152.516 11.4029C152.328 11.4856 152.163 11.5983 152.025 11.7448C151.886 11.8913 151.773 12.0604 151.691 12.252C151.608 12.4436 151.567 12.6502 151.567 12.8681Z" fill="black"/>
<path d="M158.828 15.1833C158.228 15.1833 157.767 15.0217 157.437 14.6986C157.107 14.3755 156.945 13.921 156.945 13.3349V10.6187H157.669V13.3086C157.669 13.6843 157.774 13.9773 157.988 14.1839C158.198 14.3906 158.479 14.4958 158.828 14.4958C159.177 14.4958 159.462 14.3906 159.668 14.1839C159.874 13.9773 159.979 13.6843 159.979 13.3086V10.6187H160.703V13.3349C160.703 13.921 160.542 14.3755 160.216 14.6986C159.889 15.0217 159.428 15.1833 158.828 15.1833Z" fill="black"/>
<path d="M162.511 10.6216H165.665V11.2866H163.235V12.5601H165.286V13.1913H163.235V14.4536H165.665V15.1186H162.511V10.6216Z" fill="black"/>
</svg>
