<svg width="70" height="73" viewBox="0 0 70 73" fill="none" xmlns="http://www.w3.org/2000/svg">
<path d="M14 0.5H56C63.4558 0.5 69.5 6.54416 69.5 14V59C69.5 66.4558 63.4558 72.5 56 72.5H14C6.54416 72.5 0.5 66.4558 0.5 59V14L0.504883 13.6514C0.689804 6.35665 6.66072 0.5 14 0.5Z" fill="#FAF5F2" stroke="url(#paint0_linear_238_1133)"/>
<path d="M34.5 22.3125L23 26.4947V36.6108C23.0028 38.5852 23.4712 40.5312 24.3672 42.2906C25.2632 44.0499 26.5615 45.5732 28.1568 46.7366L34.5 51.35L40.8432 46.7366C42.4385 45.5732 43.7368 44.0499 44.6328 42.2906C45.5288 40.5312 45.9972 38.5852 46 36.6108V26.4947L34.5 22.3125ZM44.0833 36.6108C44.0807 38.283 43.6839 39.9309 42.9251 41.421C42.1663 42.9111 41.067 44.2013 39.7162 45.187L34.5 48.981L29.2838 45.187C27.933 44.2013 26.8337 42.9111 26.0749 41.421C25.3161 39.9309 24.9193 38.283 24.9167 36.6108V27.8363L34.5 24.3518L44.0833 27.8363V36.6108Z" fill="#A8C4B6"/>
<path d="M30.3863 34.3941L29.0312 35.7492L33.3025 40.0205L39.9697 33.3534L38.6146 31.9983L33.3025 37.3103L30.3863 34.3941Z" fill="#A8C4B6"/>
<defs>
<linearGradient id="paint0_linear_238_1133" x1="0" y1="0" x2="70" y2="73" gradientUnits="userSpaceOnUse">
<stop stop-color="#C0DDCE"/>
<stop offset="0.509615" stop-color="#C0DDCE" stop-opacity="0.2"/>
<stop offset="1" stop-color="#C0DDCE"/>
</linearGradient>
</defs>
</svg>
