<svg width="70" height="73" viewBox="0 0 70 73" fill="none" xmlns="http://www.w3.org/2000/svg">
<rect x="0.5" y="0.5" width="69" height="72" rx="13.5" fill="#FAF5F2" stroke="url(#paint0_linear_238_1165)"/>
<path d="M28.2605 28.9241H37.4249C37.6616 28.9241 37.8886 28.8301 38.0559 28.6627C38.2233 28.4954 38.3173 28.2684 38.3173 28.0318C38.3173 27.7951 38.2233 27.5681 38.0559 27.4008C37.8886 27.2334 37.6616 27.1394 37.4249 27.1394H28.2605C28.0238 27.1394 27.7969 27.2334 27.6295 27.4008C27.4622 27.5681 27.3682 27.7951 27.3682 28.0318C27.3682 28.2684 27.4622 28.4954 27.6295 28.6627C27.7969 28.8301 28.0238 28.9241 28.2605 28.9241ZM28.2605 33.7755H32.3802C32.6168 33.7755 32.8438 33.6815 33.0112 33.5141C33.1785 33.3468 33.2725 33.1198 33.2725 32.8831C33.2725 32.6465 33.1785 32.4195 33.0112 32.2522C32.8438 32.0848 32.6168 31.9908 32.3802 31.9908H28.2605C28.0238 31.9908 27.7969 32.0848 27.6295 32.2522C27.4622 32.4195 27.3682 32.6465 27.3682 32.8831C27.3682 33.1198 27.4622 33.3468 27.6295 33.5141C27.7969 33.6815 28.0238 33.7755 28.2605 33.7755Z" fill="#A8C4B6"/>
<path d="M42.6765 21.6328H26.3962C25.2501 21.6341 24.1513 22.09 23.3408 22.9004C22.5304 23.7108 22.0746 24.8096 22.0732 25.9557V44.0506C22.0746 45.1967 22.5304 46.2955 23.3408 47.1059C24.1513 47.9163 25.2501 48.3722 26.3962 48.3735H30.9174C31.1541 48.3735 31.381 48.2795 31.5484 48.1121C31.7157 47.9448 31.8097 47.7178 31.8097 47.4811C31.8097 47.2445 31.7157 47.0175 31.5484 46.8502C31.381 46.6828 31.1541 46.5888 30.9174 46.5888H26.3962C25.7232 46.588 25.0781 46.3203 24.6022 45.8445C24.1264 45.3687 23.8587 44.7235 23.8579 44.0506V25.9557C23.8585 25.2827 24.1261 24.6374 24.6019 24.1615C25.0778 23.6856 25.7231 23.418 26.3962 23.4175H42.6765C43.3495 23.4183 43.9946 23.686 44.4705 24.1618C44.9463 24.6376 45.214 25.2828 45.2148 25.9557V44.0506C45.216 44.5843 45.0478 45.1047 44.7344 45.5368C44.421 45.9689 43.9785 46.2904 43.4707 46.4549C43.3594 46.4913 43.2562 46.5493 43.1672 46.6256C43.0782 46.7018 43.0052 46.7948 42.9521 46.8993C42.8991 47.0038 42.8672 47.1178 42.8582 47.2346C42.8492 47.3514 42.8632 47.4689 42.8996 47.5803C42.936 47.6917 42.994 47.7948 43.0703 47.8838C43.1465 47.9728 43.2395 48.0459 43.344 48.0989C43.4485 48.1519 43.5625 48.1839 43.6793 48.1929C43.7961 48.2019 43.9136 48.1878 44.025 48.1514C44.891 47.8705 45.6456 47.3222 46.1803 46.5853C46.7149 45.8484 47.0021 44.961 47.0005 44.0506V25.9557C46.9986 24.8096 46.5425 23.711 45.7319 22.9006C44.9214 22.0903 43.8227 21.6344 42.6765 21.6328Z" fill="#A8C4B6"/>
<path d="M37.3335 37.0774C36.0698 37.0787 34.8582 37.5812 33.9645 38.4747C33.0708 39.3683 32.568 40.5798 32.5664 41.8435C32.5664 43.1692 33.1127 44.3679 33.9892 45.2325V50.2871C33.9891 50.4482 34.0327 50.6064 34.1153 50.7447C34.1978 50.8831 34.3163 50.9965 34.4581 51.0729C34.5999 51.1494 34.7598 51.186 34.9208 51.1789C35.0817 51.1719 35.2378 51.1213 35.3723 51.0327L37.3345 49.7458L39.2967 51.0327C39.4313 51.1213 39.5874 51.1716 39.7484 51.1785C39.9094 51.1853 40.0692 51.1483 40.2108 51.0714C40.3526 50.995 40.471 50.8817 40.5536 50.7434C40.6362 50.6052 40.6798 50.4471 40.6798 50.2861V45.2305C41.13 44.7883 41.4876 44.2609 41.7317 43.679C41.9758 43.0972 42.1015 42.4725 42.1016 41.8415C42.0993 40.578 41.596 39.367 40.7022 38.474C39.8084 37.5809 38.597 37.0787 37.3335 37.0774ZM37.3335 38.8621C38.9764 38.8621 40.314 40.1996 40.314 41.8435C40.314 43.4874 38.9764 44.825 37.3335 44.825C35.6896 44.825 34.3521 43.4874 34.3521 41.8435C34.3521 40.1996 35.6896 38.8621 37.3335 38.8621ZM38.8931 48.6343L37.8243 47.9323C37.6786 47.8373 37.5085 47.7866 37.3345 47.7866C37.1606 47.7866 36.9904 47.8373 36.8447 47.9323L35.7759 48.6343V46.3261C36.2757 46.508 36.8027 46.6039 37.3345 46.6096C37.8664 46.604 38.3934 46.5081 38.8931 46.3261V48.6343Z" fill="#A8C4B6"/>
<defs>
<linearGradient id="paint0_linear_238_1165" x1="0" y1="0" x2="70" y2="73" gradientUnits="userSpaceOnUse">
<stop stop-color="#C0DDCE"/>
<stop offset="0.509615" stop-color="#C0DDCE" stop-opacity="0.2"/>
<stop offset="1" stop-color="#C0DDCE"/>
</linearGradient>
</defs>
</svg>
