<svg width="70" height="73" viewBox="0 0 70 73" fill="none" xmlns="http://www.w3.org/2000/svg">
<path d="M14 0.5H56C63.4558 0.5 69.5 6.54416 69.5 14V59C69.5 66.4558 63.4558 72.5 56 72.5H14C6.54416 72.5 0.5 66.4558 0.5 59V14L0.504883 13.6514C0.689804 6.35665 6.66072 0.5 14 0.5Z" fill="white" stroke="url(#paint0_linear_238_1158)"/>
<path d="M34.8526 24.0823C31.1192 24.201 31.1198 29.6144 34.8526 29.7325C38.5865 29.6138 38.5854 24.2004 34.8526 24.0823ZM34.8526 28.5511C32.6852 28.4944 32.6858 25.3198 34.8526 25.2637C37.0205 25.3204 37.0199 28.4944 34.8526 28.5511ZM33.8501 47.6444L34.8532 42.7149L35.8527 47.6462C35.943 48.0792 36.1792 48.4681 36.5219 48.7478C36.8646 49.0275 37.293 49.181 37.7353 49.1827C38.9156 49.2016 39.8619 48.0497 39.6168 46.8942L38.2746 39.9857V35.6392L40.5767 38.4203C40.8288 38.7288 41.1881 38.9306 41.5827 38.9853C41.9773 39.0399 42.378 38.9434 42.7045 38.7151C43.4523 38.2189 43.6154 37.1059 43.0424 36.4124L39.1483 31.5496C38.7804 31.0906 38.3138 30.7203 37.7831 30.4664C37.2524 30.2125 36.6714 30.0814 36.0831 30.0828H33.6197C33.0314 30.0828 32.4506 30.2147 31.9199 30.4687C31.3892 30.7228 30.9222 31.0925 30.5533 31.5508L26.6669 36.4107C26.5302 36.5806 26.4299 36.7769 26.3722 36.9872C26.3145 37.1976 26.3006 37.4175 26.3314 37.6335C26.4909 38.9756 28.2926 39.4446 29.1303 38.4221L31.4282 35.6415V37.0002C31.4429 37.7782 32.596 37.7752 32.6096 37.0002V33.9993C32.6096 33.8777 32.5721 33.759 32.5022 33.6595C32.4322 33.56 32.3333 33.4845 32.2188 33.4434C32.1044 33.4022 31.98 33.3974 31.8627 33.4295C31.7454 33.4617 31.6409 33.5293 31.5634 33.623L28.2199 37.6695C27.885 38.0635 27.2512 37.5661 27.5891 37.1502L31.4731 32.2921C31.7314 31.9713 32.0583 31.7125 32.4298 31.5346C32.8013 31.3568 33.2079 31.2644 33.6197 31.2643H36.0831C36.9219 31.2643 37.7034 31.6382 38.2268 32.2892L42.1179 37.1485C42.4481 37.5638 41.8278 38.0759 41.4882 37.6689L38.1388 33.6224C37.8097 33.1989 37.0755 33.4606 37.0932 33.9993V40.0424C37.0932 40.0802 38.4578 47.1222 38.4578 47.1222C38.6232 48.0686 37.2249 48.358 37.0105 47.4093L35.4333 39.6295C35.3169 39.0087 34.3924 39.0087 34.2754 39.6295L32.6917 47.4117C32.4867 48.3444 31.0743 48.0792 31.2462 47.1193L32.599 40.1547C32.6055 40.1245 32.6161 39.1327 32.6096 39.0677C32.5978 38.2921 31.44 38.2909 31.4282 39.0677V39.9857L30.0872 46.893C29.6784 49.3942 33.2677 50.0983 33.8501 47.6444ZM51.4182 48.5902H48.9785C48.8692 48.5902 48.762 48.6207 48.669 48.6782L46.6251 49.9364C45.9694 50.3547 46.5778 51.3382 47.2442 50.9419L49.1463 49.7722H51.4182C52.1933 49.7592 52.1962 48.6026 51.4182 48.5902Z" fill="#A8C4B6"/>
<path d="M48.754 46.1063H50.6307C51.401 46.0968 51.4116 44.9367 50.6307 44.9248H48.8485L46.6037 44.1888C46.1354 44.0371 45.634 44.0193 45.1561 44.1376C44.6782 44.2559 44.2429 44.5054 43.8994 44.8581L39.2138 49.7014C39.0372 49.8838 38.9093 50.1074 38.8416 50.352C38.7739 50.5966 38.7686 50.8543 38.8263 51.1014H34.8602C32.6656 51.1558 32.6627 54.3687 34.8602 54.4266H40.5311C41.2341 54.4266 41.924 54.2305 42.5248 53.8601L45.4725 52.0407C46.1253 51.6213 45.5204 50.6389 44.8522 51.0353L41.9045 52.8547C41.4918 53.1097 41.0163 53.2449 40.5311 53.2452H34.8602C34.231 53.2452 34.2222 52.2853 34.8602 52.2823H40.2003C40.6061 52.3012 41.0185 52.1842 41.3386 51.8889L44.053 49.4138C44.6201 48.891 43.8315 48.0226 43.2567 48.5407L40.5423 51.0158C40.221 51.3082 39.7584 50.8374 40.0633 50.5231L44.7489 45.6792C44.9381 45.4859 45.1775 45.3492 45.4401 45.2843C45.7027 45.2194 45.9782 45.2289 46.2357 45.3118L48.5703 46.0768C48.6293 46.0963 48.6914 46.1063 48.754 46.1063ZM21.5624 25.3211L28.322 21.1465C28.7356 20.8908 29.2122 20.7554 29.6984 20.7554H35.37C35.4935 20.7615 35.61 20.8149 35.6953 20.9046C35.7806 20.9942 35.8281 21.1131 35.8281 21.2369C35.8281 21.3606 35.7806 21.4795 35.6953 21.5692C35.61 21.6588 35.4935 21.7122 35.37 21.7183H30.0281C29.8222 21.7035 29.6154 21.7305 29.4202 21.7976C29.225 21.8647 29.0454 21.9705 28.8921 22.1088L26.1748 24.5898C25.6077 25.112 26.3987 25.9821 26.9711 25.4623L29.6866 22.983C30.0216 22.6889 30.4605 23.175 30.1651 23.4757L29.0014 24.6808C28.4668 25.2378 29.3121 26.0554 29.8508 25.5019C30.4687 24.7788 31.4801 24.1426 31.4399 23.2365C31.4399 23.1219 31.4239 23.0096 31.3991 22.8997H35.3706C37.5592 22.8448 37.5663 19.6319 35.3706 19.574H29.6996C28.9941 19.574 28.3026 19.7703 27.7024 20.1411L21.0845 24.2277H18.809C18.0399 24.2383 18.0275 25.3961 18.809 25.4091H21.2517C21.3614 25.4093 21.469 25.3788 21.5624 25.3211ZM28.403 26.9964C28.9358 26.4399 28.094 25.6206 27.5535 26.1753L25.4801 28.3196C25.2911 28.5139 25.0515 28.6514 24.7884 28.7165C24.5253 28.7816 24.2493 28.7719 23.9915 28.6882L21.6581 27.9262C21.612 27.8671 19.6981 27.9091 19.5959 27.8967C18.822 27.9097 18.8173 29.0651 19.5959 29.0781H21.3805L23.6234 29.8112C24.0921 29.9626 24.5937 29.98 25.0717 29.8615C25.5498 29.7431 25.9852 29.4934 26.3289 29.1407L28.403 26.9964Z" fill="#A8C4B6"/>
<defs>
<linearGradient id="paint0_linear_238_1158" x1="0" y1="0" x2="70" y2="73" gradientUnits="userSpaceOnUse">
<stop stop-color="#C0DDCE"/>
<stop offset="0.509615" stop-color="#C0DDCE" stop-opacity="0.2"/>
<stop offset="1" stop-color="#C0DDCE"/>
</linearGradient>
</defs>
</svg>
