<svg width="44" height="44" viewBox="0 0 44 44" fill="none" xmlns="http://www.w3.org/2000/svg">
<path d="M32.8091 7.9787H29.4697V6.44075C29.4697 5.94316 28.9425 5.71701 28.4591 5.71701H25.8667C25.2516 3.90762 23.7137 3.00293 21.9561 3.00293C20.2179 2.93565 18.6369 4.03291 18.0455 5.71701H15.4971C15.0137 5.71701 14.5304 5.94316 14.5304 6.44075V7.9787H11.1909C9.21199 8.00043 7.59302 9.60756 7.5 11.6427V37.5621C7.5 39.5524 9.25758 40.9999 11.1909 40.9999H32.8091C34.7424 40.9999 36.5 39.5524 36.5 37.5621V11.6428C36.407 9.60756 34.788 8.00043 32.8091 7.9787ZM16.2879 7.5264H18.7046C18.9101 7.50058 19.1021 7.40754 19.2524 7.26097C19.4027 7.1144 19.5033 6.92203 19.5395 6.71218C19.7997 5.54558 20.7938 4.70816 21.9561 4.67664C23.1077 4.71257 24.0869 5.55259 24.3288 6.71218C24.3671 6.92888 24.4742 7.12638 24.6332 7.27372C24.7923 7.42106 24.9943 7.50993 25.2076 7.5264H27.7122V11.1452H16.2879V7.5264ZM34.7424 37.5622C34.7424 38.5573 33.7757 39.1906 32.8091 39.1906H11.1909C10.2243 39.1906 9.25758 38.5573 9.25758 37.5622V11.6428C9.34723 10.6069 10.1809 9.80714 11.1909 9.78817H14.5303V12.0951C14.5767 12.602 15.0031 12.9811 15.497 12.9546H28.459C28.7016 12.9683 28.9402 12.8875 29.1275 12.7282C29.3147 12.5689 29.4369 12.3429 29.4696 12.0951V9.78809H32.809C33.819 9.80714 34.6527 10.6068 34.7423 11.6427V37.5622H34.7424Z" fill="#3A4740"/>
<path d="M18.6168 23.2228C18.2872 22.8652 17.74 22.845 17.3865 23.1776L14.5743 25.9369L13.388 24.6703C13.0584 24.3126 12.5112 24.2926 12.1576 24.6251C11.9938 24.8018 11.9023 25.0367 11.9023 25.281C11.9023 25.5253 11.9938 25.7602 12.1576 25.9369L13.9591 27.8368C14.0361 27.9256 14.1311 27.9959 14.2374 28.0428C14.3437 28.0897 14.4587 28.112 14.5742 28.1082C14.806 28.1048 15.0271 28.0073 15.1894 27.8368L18.6166 24.4894C18.9564 24.1686 18.9791 23.6248 18.6673 23.2751C18.6513 23.2569 18.6344 23.2394 18.6168 23.2228ZM31.2274 25.1679H21.1214C20.636 25.1679 20.2426 25.5729 20.2426 26.0726C20.2426 26.5723 20.636 26.9773 21.1214 26.9773H31.2274C31.7127 26.9773 32.1062 26.5723 32.1062 26.0726C32.1062 25.5729 31.7127 25.1679 31.2274 25.1679ZM18.6168 15.9853C18.2872 15.6276 17.74 15.6075 17.3865 15.9401L14.5743 18.6994L13.388 17.4328C13.0584 17.0751 12.5112 17.0549 12.1576 17.3876C11.9938 17.5643 11.9023 17.7992 11.9023 18.0435C11.9023 18.2878 11.9938 18.5227 12.1576 18.6994L13.9591 20.5992C14.0361 20.688 14.1311 20.7583 14.2374 20.8052C14.3437 20.8521 14.4587 20.8745 14.5742 20.8707C14.806 20.8673 15.0271 20.7697 15.1894 20.5992L18.6166 17.2519C18.9564 16.931 18.9791 16.3873 18.6673 16.0376C18.6513 16.0193 18.6344 16.0019 18.6168 15.9853ZM31.2274 17.9304H21.1214C20.636 17.9304 20.2426 18.3354 20.2426 18.835C20.2426 19.3347 20.636 19.7397 21.1214 19.7397H31.2274C31.7127 19.7397 32.1062 19.3347 32.1062 18.835C32.1062 18.3354 31.7127 17.9304 31.2274 17.9304ZM18.6168 30.4603C18.2872 30.1026 17.74 30.0825 17.3865 30.4151L14.5743 33.1744L13.388 31.9078C13.0584 31.5501 12.5112 31.53 12.1576 31.8626C11.9938 32.0393 11.9023 32.2742 11.9023 32.5185C11.9023 32.7628 11.9938 32.9977 12.1576 33.1744L13.9591 35.0743C14.0361 35.163 14.1311 35.2334 14.2374 35.2803C14.3437 35.3272 14.4587 35.3495 14.5742 35.3457C14.806 35.3423 15.0271 35.2447 15.1894 35.0743L18.6166 31.7269C18.9564 31.406 18.9791 30.8623 18.6673 30.5126C18.6513 30.4944 18.6344 30.4769 18.6168 30.4603ZM31.2274 32.4055H21.1214C20.636 32.4055 20.2426 32.8105 20.2426 33.3101C20.2426 33.8098 20.636 34.2148 21.1214 34.2148H31.2274C31.7127 34.2148 32.1062 33.8098 32.1062 33.3101C32.1062 32.8105 31.7127 32.4055 31.2274 32.4055Z" fill="#3A4740"/>
</svg>
