<svg width="44" height="44" viewBox="0 0 44 44" fill="none" xmlns="http://www.w3.org/2000/svg">
<path fill-rule="evenodd" clip-rule="evenodd" d="M19.9094 27.366C19.6597 27.366 19.4201 27.2663 19.243 27.0886L15.4783 23.2887C15.3225 23.1064 15.2409 22.8713 15.2497 22.6307C15.2585 22.3901 15.3571 22.1617 15.5258 21.9915C15.6945 21.8212 15.9207 21.7217 16.1591 21.7128C16.3975 21.7039 16.6304 21.7863 16.811 21.9436L19.9094 25.0728L26.7724 18.1437C26.9531 17.9864 27.186 17.904 27.4244 17.9129C27.6627 17.9218 27.889 18.0213 28.0577 18.1916C28.2263 18.3618 28.325 18.5902 28.3338 18.8308C28.3426 19.0714 28.2609 19.3065 28.1051 19.4888L20.5757 27.0886C20.3986 27.2663 20.1591 27.366 19.9094 27.366Z" fill="#3A4740"/>
<path fill-rule="evenodd" clip-rule="evenodd" d="M7.67811 13.6408C7.80799 25.5649 12.4292 33.7536 21.792 38.6498C31.1548 33.7536 35.776 25.5649 35.9059 13.6408L21.792 4.73762L7.67811 13.6408ZM21.792 40.6656C21.6457 40.6651 21.5014 40.6306 21.3703 40.565C11.0325 35.3458 5.79199 26.112 5.79199 13.1164C5.79199 12.9553 5.83259 12.7968 5.90997 12.6559C5.98736 12.515 6.09898 12.3962 6.23434 12.3108L21.2932 2.81108C21.4425 2.71607 21.6155 2.66565 21.792 2.66565C21.9685 2.66565 22.1415 2.71607 22.2908 2.81108L37.3496 12.3108C37.485 12.3962 37.5966 12.515 37.674 12.6559C37.7514 12.7968 37.792 12.9553 37.792 13.1164C37.792 26.112 32.5515 35.3458 22.2136 40.565C22.0826 40.6306 21.9383 40.6651 21.792 40.6656Z" fill="#3A4740"/>
</svg>
