<svg width="44" height="44" viewBox="0 0 44 44" fill="none" xmlns="http://www.w3.org/2000/svg">
<path d="M34.5837 33.0331L32.3673 33.4639L29.5222 25.6707C29.4387 25.4425 29.2866 25.2453 29.0865 25.1058C28.8865 24.9664 28.6481 24.8914 28.4037 24.891H20.6531V19.1359H24.572C24.8875 19.1359 25.1901 19.0113 25.4132 18.7897C25.6363 18.568 25.7616 18.2673 25.7616 17.9538C25.7616 17.6403 25.6363 17.3397 25.4132 17.118C25.1901 16.8963 24.8875 16.7718 24.572 16.7718H20.6531V14.5856C22.5334 14.0703 23.925 12.3902 23.925 10.3817C23.925 7.96638 21.9231 6.00012 19.4635 6.00012C17.0038 6.00012 15.002 7.96638 15.002 10.3817C15.002 12.3902 16.3935 14.0703 18.2738 14.5856V26.0731C18.2738 26.7262 18.8061 27.2551 19.4635 27.2551H27.5696L30.4778 35.2205C30.6522 35.6946 31.1042 36.0001 31.5952 36.0001C31.6721 36.0001 35.0403 35.3538 35.0403 35.3538C35.35 35.2937 35.623 35.1137 35.7992 34.8536C35.9754 34.5934 36.0404 34.2744 35.9798 33.9666C35.9193 33.6589 35.7382 33.3876 35.4764 33.2125C35.2145 33.0375 34.8934 32.9729 34.5837 33.0331ZM19.4635 8.36419C20.6118 8.36419 21.5456 9.26924 21.5456 10.3817C21.5456 11.4943 20.6118 12.3993 19.4635 12.3993C18.3151 12.3993 17.3813 11.4943 17.3813 10.3817C17.3813 9.26924 18.3151 8.36419 19.4635 8.36419Z" fill="#3A4740"/>
<path d="M18.9217 35.4922C14.2848 35.4922 10.5153 31.756 10.5153 27.1554C10.5153 23.908 12.4006 21.0874 15.1523 19.7332V17.0001C10.9803 18.5165 8.00195 22.4919 8.00195 27.1554C8.00195 33.1359 12.9026 38.0001 18.9217 38.0001C20.4406 38.0019 21.9432 37.6852 23.3342 37.0701C24.7252 36.4551 25.9742 35.555 27.002 34.4272L25.9968 31.6312C25.2308 32.8192 24.1821 33.7949 22.9463 34.4693C21.7104 35.1437 20.3269 35.4954 18.9217 35.4922Z" fill="#3A4740"/>
</svg>
