<svg width="44" height="44" viewBox="0 0 44 44" fill="none" xmlns="http://www.w3.org/2000/svg">
<path d="M35.0805 15.2215H28.7663V8.91944C28.7663 6.76329 27.0034 5 24.8591 5H19.1409C16.9847 5 15.2213 6.76329 15.2213 8.91944V15.2215H8.91953C6.76333 15.2215 5 16.9848 5 19.1409V24.8471C5 27.0037 6.76333 28.767 8.91953 28.767H15.2213V35.0806C15.2213 37.2367 16.9847 39 19.1409 39H24.8591C27.0034 39 28.7663 37.2367 28.7663 35.0806V28.767H35.0805C37.2367 28.767 39 27.0037 39 24.8471V19.1409C39 16.9848 37.2367 15.2215 35.0805 15.2215Z" stroke="#3A4740" stroke-width="2" stroke-miterlimit="10" stroke-linecap="round" stroke-linejoin="round"/>
</svg>
