<svg width="46" height="44" viewBox="0 0 46 44" fill="none" xmlns="http://www.w3.org/2000/svg">
<path d="M30.555 16.8059L21.4915 26.1336L13.2742 17.6768C11.7068 16.0637 11.7068 13.4483 13.2742 11.8352L16.6616 8.34911C18.229 6.73601 20.7703 6.73601 22.3378 8.34911L30.555 16.8059Z" stroke="#3A4740" stroke-width="2" stroke-miterlimit="10" stroke-linecap="round" stroke-linejoin="round"/>
<path d="M34.5319 27.62L36.4317 29.5752C36.7815 29.9351 36.7815 30.5187 36.4317 30.8786L35.1652 32.182C34.8155 32.542 34.2484 32.542 33.8987 32.182L31.9989 30.2268M36.0344 41C37.3387 40.7913 39.8295 40.1107 41.9823 37.8952C42.0131 37.8634 42.0441 37.8311 42.0748 37.7988C43.6208 36.1685 44.6596 34.0283 45 31.7724M14.7557 9.87417L8.8027 3.74767C8.57237 3.51062 8.29894 3.32259 7.998 3.19431C7.69706 3.06602 7.37452 3 7.04879 3C5.67888 3 4.56839 4.14285 4.56839 5.5527V15.8232C4.56839 17.8514 2.97077 19.4956 1 19.4956M30.5542 16.8055L21.4907 26.1332L30.0369 31.2733C30.2078 31.3761 30.407 31.4177 30.6033 31.3917C30.7996 31.3656 30.982 31.2733 31.122 31.1293L35.4087 26.7176C35.5487 26.5735 35.6383 26.3858 35.6637 26.1838C35.689 25.9817 35.6486 25.7767 35.5487 25.6008L30.5542 16.8055Z" stroke="#3A4740" stroke-width="2" stroke-miterlimit="10" stroke-linecap="round" stroke-linejoin="round"/>
</svg>
