<svg width="132" height="26" viewBox="0 0 132 26" fill="none" xmlns="http://www.w3.org/2000/svg">
<path d="M12.4933 1.01979C12.7014 0.601078 13.2986 0.601078 13.5067 1.01979L16.7044 7.4557C16.7868 7.62151 16.9451 7.73652 17.1282 7.76363L24.2373 8.81603C24.6998 8.88449 24.8844 9.45255 24.5504 9.7798L19.4177 14.8098C19.2854 14.9394 19.225 15.1255 19.2558 15.308L20.4517 22.3944C20.5295 22.8554 20.0463 23.2065 19.6319 22.99L13.2619 19.6628C13.0978 19.5771 12.9022 19.5771 12.7381 19.6628L6.36812 22.99C5.95371 23.2065 5.47049 22.8554 5.54829 22.3944L6.74423 15.308C6.77504 15.1255 6.71457 14.9394 6.58234 14.8098L1.44957 9.7798C1.11564 9.45255 1.30021 8.88449 1.76271 8.81603L8.87178 7.76363C9.05493 7.73652 9.21323 7.62151 9.29561 7.4557L12.4933 1.01979Z" fill="#C0DDCE"/>
<path d="M38.9972 0.974483C39.208 0.56601 39.792 0.56601 40.0028 0.974483L43.3495 7.46087C43.4335 7.62366 43.5911 7.73571 43.7725 7.76156L51.1768 8.81707C51.646 8.88395 51.8299 9.46343 51.4853 9.78867L46.1669 14.8076C46.0286 14.9381 45.9651 15.1294 45.9979 15.3167L47.2407 22.4082C47.321 22.8664 46.8448 23.2203 46.4292 23.0113L39.7542 19.6539C39.5943 19.5734 39.4057 19.5734 39.2458 19.6539L32.5708 23.0113C32.1552 23.2203 31.679 22.8664 31.7593 22.4082L33.0021 15.3167C33.0349 15.1294 32.9714 14.9381 32.8331 14.8076L27.5147 9.78867C27.1701 9.46343 27.354 8.88395 27.8232 8.81707L35.2275 7.76156C35.4089 7.73571 35.5665 7.62366 35.6505 7.46087L38.9972 0.974483Z" fill="#C0DDCE"/>
<path d="M65.4933 1.01979C65.7014 0.601078 66.2986 0.601078 66.5067 1.01979L69.7044 7.4557C69.7868 7.62151 69.9451 7.73652 70.1282 7.76363L77.2373 8.81603C77.6998 8.88449 77.8844 9.45255 77.5504 9.7798L72.4177 14.8098C72.2854 14.9394 72.225 15.1255 72.2558 15.308L73.4517 22.3944C73.5295 22.8554 73.0463 23.2065 72.6319 22.99L66.2619 19.6628C66.0978 19.5771 65.9022 19.5771 65.7381 19.6628L59.3681 22.99C58.9537 23.2065 58.4705 22.8554 58.5483 22.3944L59.7442 15.308C59.775 15.1255 59.7146 14.9394 59.5823 14.8098L54.4496 9.7798C54.1156 9.45255 54.3002 8.88449 54.7627 8.81603L61.8718 7.76363C62.0549 7.73652 62.2132 7.62151 62.2956 7.4557L65.4933 1.01979Z" fill="#C0DDCE"/>
<path d="M91.9972 0.974483C92.208 0.56601 92.792 0.56601 93.0028 0.974483L96.3495 7.46087C96.4335 7.62366 96.5911 7.73571 96.7725 7.76156L104.177 8.81707C104.646 8.88395 104.83 9.46343 104.485 9.78867L99.1669 14.8076C99.0286 14.9381 98.9651 15.1294 98.9979 15.3167L100.241 22.4082C100.321 22.8664 99.8448 23.2203 99.4292 23.0113L92.7542 19.6539C92.5943 19.5734 92.4057 19.5734 92.2458 19.6539L85.5708 23.0113C85.1552 23.2203 84.679 22.8664 84.7593 22.4082L86.0021 15.3167C86.0349 15.1294 85.9714 14.9381 85.8331 14.8076L80.5147 9.78867C80.1701 9.46343 80.354 8.88395 80.8232 8.81707L88.2275 7.76156C88.4089 7.73571 88.5665 7.62366 88.6505 7.46087L91.9972 0.974483Z" fill="#C0DDCE"/>
<path d="M118.493 1.01979C118.701 0.601078 119.299 0.601078 119.507 1.01979L122.704 7.4557C122.787 7.62151 122.945 7.73652 123.128 7.76363L130.237 8.81603C130.7 8.88449 130.884 9.45255 130.55 9.7798L125.418 14.8098C125.285 14.9394 125.225 15.1255 125.256 15.308L126.452 22.3944C126.53 22.8554 126.046 23.2065 125.632 22.99L119.262 19.6628C119.098 19.5771 118.902 19.5771 118.738 19.6628L112.368 22.99C111.954 23.2065 111.47 22.8554 111.548 22.3944L112.744 15.308C112.775 15.1255 112.715 14.9394 112.582 14.8098L107.45 9.7798C107.116 9.45255 107.3 8.88449 107.763 8.81603L114.872 7.76363C115.055 7.73652 115.213 7.62151 115.296 7.4557L118.493 1.01979Z" fill="#C0DDCE"/>
</svg>
