<svg width="107" height="106" viewBox="0 0 107 106" fill="none" xmlns="http://www.w3.org/2000/svg">
<circle cx="53.5" cy="53" r="52.5" stroke="#C0DDCE"/>
<path d="M55.3221 39.2086C54.7636 39.2086 54.3108 38.7558 54.3108 38.1973V37H51.7483V38.1973C51.7483 38.7558 51.2955 39.2086 50.737 39.2086H49.0155V41.3142H57.0436V39.2086H55.3221ZM70.8944 44.4326C70.1737 43.8777 69.136 44.0119 68.5812 44.7326L68.207 45.218L70.8149 47.2387L71.1944 46.7452C71.7494 46.0252 71.6145 44.9875 70.8944 44.4326Z" fill="#3A4740"/>
<path d="M47.2988 53.7567H58.7604C58.8596 53.7567 58.9554 53.7716 59.046 53.7984L64.5587 46.6401V42.0018C64.5587 40.4845 63.3243 39.2501 61.807 39.2501H59.0661V42.3256C59.0661 42.8841 58.6133 43.3369 58.0548 43.3369H48.0038C47.4453 43.3369 46.9924 42.8841 46.9924 42.3256V39.25H44.2515C42.7342 39.25 41.4998 40.4844 41.4998 42.0017V66.2481C41.4998 67.7654 42.7343 68.9998 44.2515 68.9998H61.8069C63.3242 68.9998 64.5586 67.7653 64.5586 66.2481V58.6756L63.6214 59.8925C63.4768 60.0807 63.2706 60.2117 63.0389 60.2627L58.9902 61.1593C58.9185 61.1754 58.8452 61.1835 58.7717 61.1836C58.5105 61.1836 58.2594 61.0826 58.071 60.9016C57.8826 60.7206 57.7716 60.4737 57.7611 60.2127L57.5939 56.069C57.5903 55.9714 57.6009 55.8739 57.6252 55.7794H47.2988C46.7403 55.7794 46.2874 55.3266 46.2874 54.7681C46.2874 54.2095 46.7402 53.7567 47.2988 53.7567ZM47.2988 59.1608H53.9381C54.4966 59.1608 54.9494 59.6136 54.9494 60.1721C54.9494 60.7306 54.4966 61.1834 53.9381 61.1834H47.2988C46.7403 61.1834 46.2874 60.7306 46.2874 60.1721C46.2874 59.6136 46.7403 59.1608 47.2988 59.1608ZM47.2988 48.3527H58.7604C59.3189 48.3527 59.7717 48.8055 59.7717 49.364C59.7717 49.9225 59.3189 50.3753 58.7604 50.3753H47.2988C46.7403 50.3753 46.2874 49.9225 46.2874 49.364C46.2874 48.8055 46.7402 48.3527 47.2988 48.3527Z" fill="#3A4740"/>
<path d="M66.973 46.8208L59.63 56.355L59.7332 58.9231L62.2434 58.3675L69.5802 48.8407L66.973 46.8208Z" fill="#3A4740"/>
<circle cx="24.5" cy="10.5" r="10.5" fill="#3A4740"/>
<path d="M21.9901 15V14.052C21.9901 13.468 22.0901 12.988 22.2901 12.612C22.4901 12.236 22.7741 11.932 23.1421 11.7C23.5181 11.46 23.9701 11.26 24.4981 11.1L25.2301 10.872C25.5581 10.768 25.8381 10.64 26.0701 10.488C26.3101 10.336 26.4941 10.148 26.6221 9.924C26.7501 9.692 26.8141 9.424 26.8141 9.12V9.072C26.8141 8.6 26.6541 8.232 26.3341 7.968C26.0141 7.696 25.5941 7.56 25.0741 7.56C24.5381 7.56 24.1021 7.704 23.7661 7.992C23.4381 8.28 23.2741 8.704 23.2741 9.264V9.456H22.0261V9.276C22.0261 8.668 22.1581 8.156 22.4221 7.74C22.6861 7.316 23.0501 6.992 23.5141 6.768C23.9781 6.544 24.4981 6.432 25.0741 6.432C25.6501 6.432 26.1621 6.54 26.6101 6.756C27.0661 6.972 27.4221 7.276 27.6781 7.668C27.9421 8.06 28.0741 8.52 28.0741 9.048V9.156C28.0741 9.7 27.9661 10.152 27.7501 10.512C27.5341 10.872 27.2341 11.168 26.8501 11.4C26.4741 11.632 26.0381 11.828 25.5421 11.988L24.8341 12.204C24.4581 12.316 24.1541 12.44 23.9221 12.576C23.6981 12.704 23.5301 12.86 23.4181 13.044C23.3141 13.228 23.2621 13.464 23.2621 13.752V13.872H28.0021V15H21.9901Z" fill="white"/>
</svg>
