<svg width="107" height="106" viewBox="0 0 107 106" fill="none" xmlns="http://www.w3.org/2000/svg">
<circle cx="53.5" cy="53" r="52.5" stroke="#C0DDCE"/>
<path d="M53.8914 42.0086C56.0332 41.9129 57.6911 40.0812 57.5943 37.9176C57.4976 35.7539 55.6829 34.0775 53.5411 34.1733C51.3993 34.2691 49.7414 36.1007 49.8382 38.2644C49.9349 40.428 51.7496 42.1044 53.8914 42.0086Z" fill="#3A4740"/>
<path d="M62.8255 53.1865L60.1315 45.8577C59.4975 44.1146 57.7945 42.9263 55.9325 42.9263H51.4962C49.6343 42.9263 47.9709 44.0754 47.2973 45.8577L44.6036 53.2257C44.2867 54.0578 44.7225 55.0084 45.5546 55.2854C46.3863 55.6024 47.3369 55.1665 47.6143 54.3348L49.397 49.4626V69.863C49.397 70.8536 50.1098 71.725 51.1 71.8042C52.2095 71.9231 53.16 71.0514 53.16 69.9419V57.9002C53.16 57.5832 53.3978 57.3454 53.7148 57.3454C54.0318 57.3454 54.2691 57.5832 54.2691 57.9002V69.863C54.2691 70.8536 54.9824 71.725 55.9726 71.8042C57.0816 71.9231 58.0322 71.0514 58.0322 69.9419V49.4634L59.8153 54.3356C60.0526 54.9696 60.6862 55.4054 61.3202 55.4054C61.5976 55.4054 61.9146 55.3262 62.1919 55.1677C62.8255 54.7715 63.1029 53.8997 62.8255 53.1865Z" fill="#3A4740"/>
<circle cx="24.5" cy="10.5" r="10.5" fill="#3A4740"/>
<path d="M24.4766 15V7.488H24.2846L22.9046 10.32H21.5726L23.4326 6.6H25.7366V15H24.4766Z" fill="white"/>
</svg>
