<svg width="107" height="106" viewBox="0 0 107 106" fill="none" xmlns="http://www.w3.org/2000/svg">
<circle cx="53.5" cy="53" r="52.5" stroke="#C0DDCE"/>
<path fill-rule="evenodd" clip-rule="evenodd" d="M46.4672 42.1834H61.3676C62.3391 42.1834 63.1339 42.9783 63.1339 43.9497V53.2187C63.1339 54.1902 62.3391 54.9851 61.3676 54.9851H57.5787C56.8742 54.9851 56.2683 55.3049 55.8707 55.8864L53.9842 58.6461C53.9686 58.6689 53.9449 58.6814 53.9173 58.6814C53.8897 58.6814 53.866 58.6689 53.8504 58.6461L51.964 55.8864C51.5664 55.3048 50.9605 54.9851 50.2559 54.9851H46.4672C45.4957 54.9851 44.7009 54.1902 44.7009 53.2187V43.9497C44.7009 42.9783 45.4957 42.1834 46.4672 42.1834ZM68.8937 47.9764C69.0549 47.9764 69.2095 48.0404 69.3235 48.1544C69.4375 48.2684 69.5016 48.4231 69.5016 48.5843C69.5016 48.7455 69.4375 48.9001 69.3235 49.0141C69.2095 49.1281 69.0549 49.1922 68.8937 49.1922H67.0514C66.8902 49.1922 66.7355 49.1281 66.6215 49.0141C66.5075 48.9001 66.4435 48.7455 66.4435 48.5843C66.4435 48.4231 66.5075 48.2684 66.6215 48.1544C66.7355 48.0404 66.8902 47.9764 67.0514 47.9764H68.8937ZM38.9411 49.1922C38.7799 49.1922 38.6253 49.1281 38.5112 49.0141C38.3972 48.9001 38.3332 48.7455 38.3332 48.5843C38.3332 48.4231 38.3972 48.2684 38.5112 48.1544C38.6253 48.0404 38.7799 47.9764 38.9411 47.9764H40.7834C40.9446 47.9764 41.0993 48.0404 41.2133 48.1544C41.3273 48.2684 41.3913 48.4231 41.3913 48.5843C41.3913 48.7455 41.3273 48.9001 41.2133 49.0141C41.0993 49.1281 40.9446 49.1922 40.7834 49.1922H38.9411ZM42.8977 38.4242C42.8413 38.3678 42.7965 38.3008 42.766 38.227C42.7354 38.1533 42.7197 38.0742 42.7197 37.9944C42.7197 37.9146 42.7354 37.8356 42.766 37.7618C42.7965 37.6881 42.8413 37.6211 42.8977 37.5646C42.9542 37.5082 43.0212 37.4634 43.0949 37.4328C43.1687 37.4023 43.2477 37.3866 43.3275 37.3866C43.4074 37.3866 43.4864 37.4023 43.5601 37.4328C43.6339 37.4634 43.7009 37.5082 43.7573 37.5646L45.06 38.8673C45.1164 38.9237 45.1612 38.9907 45.1918 39.0645C45.2223 39.1382 45.238 39.2173 45.238 39.2971C45.238 39.3769 45.2223 39.4559 45.1918 39.5297C45.1612 39.6034 45.1164 39.6704 45.06 39.7269C45.0036 39.7833 44.9365 39.8281 44.8628 39.8587C44.7891 39.8892 44.71 39.9049 44.6302 39.9049C44.5504 39.9049 44.4713 39.8892 44.3976 39.8587C44.3238 39.8281 44.2568 39.7833 44.2004 39.7269L42.8977 38.4242ZM53.3095 33.6079C53.3095 33.4467 53.3735 33.2921 53.4875 33.1781C53.6015 33.064 53.7562 33 53.9174 33C54.0786 33 54.2332 33.064 54.3472 33.1781C54.4613 33.2921 54.5253 33.4467 54.5253 33.6079V35.4502C54.5253 35.6114 54.4613 35.7661 54.3472 35.8801C54.2332 35.9941 54.0786 36.0581 53.9174 36.0581C53.7562 36.0581 53.6015 35.9941 53.4875 35.8801C53.3735 35.7661 53.3095 35.6114 53.3095 35.4502V33.6079ZM64.0774 37.5646C64.1339 37.5082 64.2009 37.4634 64.2746 37.4328C64.3484 37.4023 64.4274 37.3866 64.5073 37.3866C64.5871 37.3866 64.6661 37.4023 64.7399 37.4328C64.8136 37.4634 64.8806 37.5082 64.9371 37.5646C64.9935 37.6211 65.0383 37.6881 65.0688 37.7618C65.0994 37.8356 65.1151 37.9146 65.1151 37.9944C65.1151 38.0742 65.0994 38.1533 65.0688 38.227C65.0383 38.3008 64.9935 38.3678 64.9371 38.4242L63.6344 39.7269C63.578 39.7833 63.511 39.8281 63.4372 39.8587C63.3635 39.8892 63.2844 39.9049 63.2046 39.9049C63.1248 39.9049 63.0457 39.8892 62.972 39.8587C62.8982 39.8281 62.8312 39.7833 62.7748 39.7269C62.7183 39.6704 62.6736 39.6034 62.643 39.5297C62.6125 39.4559 62.5968 39.3769 62.5968 39.2971C62.5968 39.2173 62.6125 39.1382 62.643 39.0645C62.6736 38.9907 62.7183 38.9237 62.7748 38.8673L64.0774 37.5646ZM38.427 62.8356H39.6948C40.2047 62.8356 40.6218 63.2527 40.6218 63.7626V71.5882C40.6218 72.098 40.2047 72.5151 39.6948 72.5151H38.427C37.9171 72.5151 37.5 72.098 37.5 71.5882V63.7626C37.5 63.2527 37.9171 62.8356 38.427 62.8356ZM57.9403 65.0648C58.2665 64.9993 58.5883 64.9137 58.9039 64.8084C61.2084 64.0381 64.9022 61.9376 68.0023 60.1913C68.6486 59.8272 69.446 59.976 69.9176 60.5486L69.9879 60.6341C70.2326 60.9303 70.3555 61.3085 70.3319 61.6919C70.3082 62.0754 70.1396 62.4356 69.8604 62.6994C67.4546 64.9787 64.1186 67.8196 61.3829 69.5933C59.5076 70.8092 57.1065 72.2574 54.8388 72.442C53.0396 72.5886 51.2593 71.9303 49.4574 71.6705C47.0209 71.3193 44.4473 71.3216 41.9197 71.3493C41.9089 71.3496 41.8982 71.3477 41.8883 71.3437C41.8783 71.3396 41.8693 71.3336 41.8617 71.3259C41.854 71.3185 41.8479 71.3096 41.8437 71.2996C41.8396 71.2897 41.8376 71.2791 41.8377 71.2684V63.7626L41.8375 63.7368C41.8372 63.7183 41.8432 63.7003 41.8546 63.6857C41.866 63.6711 41.882 63.6609 41.9001 63.6568C42.6464 63.4821 43.3831 63.3079 44.1175 63.1078C46.2762 62.5194 47.7785 60.7917 50.1699 61.5126L55.6045 63.1511C56.4762 63.4139 56.9734 64.3291 56.715 65.2202C56.559 65.7583 55.9282 66.0054 55.3589 65.8858C54.0461 65.6099 52.3329 65.1169 51.0945 65.1529C50.8615 65.1595 50.6292 65.1794 50.3985 65.2125C50.2392 65.2351 50.0954 65.3202 49.9988 65.4489C49.9509 65.5126 49.9161 65.5852 49.8963 65.6623C49.8765 65.7395 49.872 65.8199 49.8833 65.8988C49.8945 65.9777 49.9212 66.0536 49.9617 66.1222C50.0023 66.1908 50.056 66.2507 50.1197 66.2985C50.2484 66.3952 50.4102 66.4367 50.5696 66.414C50.9498 66.3597 51.2993 66.346 51.6728 66.3816C52.5997 66.4698 54.0583 66.8516 55.1119 67.0731C55.7093 67.1987 56.3179 67.1124 56.8194 66.8433C57.3046 66.5829 57.6889 66.1554 57.873 65.5847C57.8732 65.5841 57.8734 65.5835 57.8737 65.5829C57.9221 65.444 57.9264 65.3045 57.8798 65.171C57.8758 65.1601 57.8743 65.1485 57.8753 65.1369C57.8764 65.1254 57.88 65.1142 57.8859 65.1042C57.8915 65.094 57.8992 65.0852 57.9087 65.0784C57.9181 65.0716 57.9289 65.0669 57.9403 65.0648ZM53.986 45.1558C53.9708 45.1316 53.946 45.1179 53.9174 45.1179C53.8887 45.1179 53.864 45.1316 53.8488 45.1558L52.627 47.0999C52.6217 47.1087 52.6146 47.1164 52.6063 47.1224C52.598 47.1285 52.5886 47.1329 52.5786 47.1353L50.3226 47.7169C50.2948 47.7241 50.2743 47.7434 50.2656 47.7708C50.2569 47.7981 50.2624 47.8257 50.2809 47.8476L51.7401 49.5767C51.7468 49.5844 51.752 49.5934 51.7552 49.6032C51.7585 49.613 51.7598 49.6233 51.759 49.6335L51.6257 51.9932C51.6241 52.0218 51.6363 52.0472 51.6597 52.0638C51.6831 52.0804 51.7111 52.0836 51.7376 52.0726L53.8863 51.1838C53.8961 51.1796 53.9067 51.1774 53.9173 51.1774C53.928 51.1774 53.9385 51.1796 53.9483 51.1838L56.097 52.0726C56.1096 52.078 56.1235 52.0801 56.1371 52.0786C56.1508 52.077 56.1638 52.0719 56.1749 52.0638C56.1862 52.056 56.1953 52.0454 56.2012 52.033C56.2072 52.0206 56.2098 52.0069 56.2089 51.9932L56.0756 49.6335C56.0748 49.6233 56.0761 49.613 56.0794 49.6032C56.0826 49.5934 56.0878 49.5844 56.0945 49.5767L57.5537 47.8476C57.5722 47.8257 57.5777 47.7981 57.569 47.7708C57.5603 47.7434 57.5398 47.724 57.512 47.7169L55.256 47.1353C55.246 47.1329 55.2366 47.1285 55.2283 47.1224C55.22 47.1164 55.2129 47.1087 55.2076 47.0999L53.986 45.1558Z" fill="#3A4740"/>
<circle cx="24.5" cy="10.5" r="10.5" fill="#3A4740"/>
<path d="M25.0093 15.168C24.3933 15.168 23.8453 15.056 23.3653 14.832C22.8853 14.608 22.5093 14.284 22.2373 13.86C21.9733 13.436 21.8413 12.932 21.8413 12.348V12.132H23.1013V12.324C23.1013 12.852 23.2733 13.272 23.6173 13.584C23.9693 13.888 24.4333 14.04 25.0093 14.04C25.5853 14.04 26.0333 13.896 26.3533 13.608C26.6733 13.32 26.8333 12.956 26.8333 12.516V12.408C26.8333 12.096 26.7573 11.844 26.6053 11.652C26.4533 11.46 26.2493 11.32 25.9933 11.232C25.7373 11.136 25.4493 11.088 25.1293 11.088H23.6053V9.636L26.5573 7.896V7.728H22.0453V6.6H27.9253V8.304L25.1053 9.984V10.152H25.6213C26.0453 10.152 26.4453 10.232 26.8213 10.392C27.1973 10.552 27.5013 10.796 27.7333 11.124C27.9733 11.452 28.0933 11.868 28.0933 12.372V12.516C28.0933 13.052 27.9653 13.52 27.7093 13.92C27.4533 14.312 27.0933 14.62 26.6293 14.844C26.1653 15.06 25.6253 15.168 25.0093 15.168Z" fill="white"/>
</svg>
