<svg width="40" height="40" viewBox="0 0 40 40" fill="none" xmlns="http://www.w3.org/2000/svg">
<rect x="0.5" y="0.5" width="39" height="39" rx="5.5" fill="#C0DDCE"/>
<rect x="0.5" y="0.5" width="39" height="39" rx="5.5" stroke="#C0DDCE"/>
<path d="M10.2171 23.1081C10.0811 23.2345 10.003 23.4074 10.0001 23.5889C9.99714 23.7704 10.0696 23.9456 10.2014 24.076L12.9485 26.7892C13.0147 26.8555 13.0943 26.9083 13.1824 26.9443C13.2705 26.9804 13.3652 26.999 13.461 26.999C13.5568 26.999 13.6516 26.9804 13.7397 26.9443C13.8278 26.9083 13.9073 26.8555 13.9735 26.7892L16.7214 24.076C16.7897 24.0121 16.844 23.9358 16.8811 23.8514C16.9181 23.7671 16.9371 23.6765 16.937 23.585C16.9369 23.4935 16.9176 23.403 16.8804 23.3188C16.8431 23.2345 16.7886 23.1583 16.7201 23.0946C16.6515 23.0309 16.5704 22.981 16.4814 22.9479C16.3924 22.9147 16.2974 22.899 16.2019 22.9017C16.1065 22.9044 16.0126 22.9254 15.9257 22.9634C15.8389 23.0014 15.7609 23.0558 15.6964 23.1232L14.175 24.6249V13.6845C14.175 13.5029 14.0997 13.3288 13.9657 13.2005C13.8318 13.0721 13.6501 13 13.4607 13C13.2712 13 13.0896 13.0721 12.9556 13.2005C12.8216 13.3288 12.7464 13.5029 12.7464 13.6845V24.6242L11.2271 23.1232C11.0953 22.9929 10.9148 22.9181 10.7254 22.9152C10.536 22.9124 10.3531 22.9818 10.2171 23.1081ZM27.7713 17.8939C27.7713 17.7124 27.6961 17.5383 27.5621 17.4099C27.4282 17.2816 27.2465 17.2094 27.057 17.2094H19.3056C19.1162 17.2094 18.9345 17.2816 18.8006 17.4099C18.6666 17.5383 18.5914 17.7124 18.5914 17.8939C18.5914 18.0754 18.6666 18.2495 18.8006 18.3779C18.9345 18.5063 19.1162 18.5784 19.3056 18.5784H27.057C27.2465 18.5784 27.4282 18.5063 27.5621 18.3779C27.6961 18.2495 27.7713 18.0754 27.7713 17.8939ZM25.5428 22.1034C25.5428 21.9218 25.4675 21.7477 25.3336 21.6194C25.1996 21.491 25.0179 21.4189 24.8285 21.4189H19.3056C19.1162 21.4189 18.9345 21.491 18.8006 21.6194C18.6666 21.7477 18.5914 21.9218 18.5914 22.1034C18.5914 22.2849 18.6666 22.459 18.8006 22.5873C18.9345 22.7157 19.1162 22.7878 19.3056 22.7878H24.8285C25.0179 22.7878 25.1996 22.7157 25.3336 22.5873C25.4675 22.459 25.5428 22.2849 25.5428 22.1034ZM19.3056 25.6311C19.1162 25.6311 18.9345 25.7032 18.8006 25.8316C18.6666 25.9599 18.5914 26.134 18.5914 26.3155C18.5914 26.4971 18.6666 26.6712 18.8006 26.7995C18.9345 26.9279 19.1162 27 19.3056 27H22.5999C22.7894 27 22.971 26.9279 23.105 26.7995C23.239 26.6712 23.3142 26.4971 23.3142 26.3155C23.3142 26.134 23.239 25.9599 23.105 25.8316C22.971 25.7032 22.7894 25.6311 22.5999 25.6311H19.3056ZM29.2856 13H19.3056C19.1162 13 18.9345 13.0721 18.8006 13.2005C18.6666 13.3288 18.5914 13.5029 18.5914 13.6845C18.5914 13.866 18.6666 14.0401 18.8006 14.1685C18.9345 14.2968 19.1162 14.3689 19.3056 14.3689H29.2856C29.4751 14.3689 29.6567 14.2968 29.7907 14.1685C29.9246 14.0401 29.9999 13.866 29.9999 13.6845C29.9999 13.5029 29.9246 13.3288 29.7907 13.2005C29.6567 13.0721 29.4751 13 29.2856 13Z" fill="black"/>
</svg>
