<svg width="28" height="28" viewBox="0 0 28 28" fill="none" xmlns="http://www.w3.org/2000/svg">
<circle cx="14" cy="14" r="14" fill="#C0DDCE"/>
<path d="M12.787 12.0855V11.473C12.5744 11.4393 12.3596 11.4208 12.1443 11.4177C10.0603 11.4133 8.21515 12.7638 7.58941 14.7517C6.96356 16.7395 7.70227 18.9034 9.41296 20.0937C8.13155 18.7223 7.77573 16.7257 8.5045 14.9961C9.23322 13.2664 10.9105 12.1264 12.787 12.0855Z" fill="#C0DDCE"/>
<path d="M12.9028 19.0244C14.068 19.0229 15.0258 18.1049 15.0768 16.9408V6.55275H16.9747C16.9359 6.33569 16.9174 6.1155 16.9194 5.89502L14.3237 5.89502V16.273C14.2805 17.443 13.3205 18.3698 12.1497 18.3717C11.7998 18.3688 11.4556 18.2827 11.1455 18.1207C11.3465 18.3991 11.6104 18.6262 11.9158 18.7832C12.2212 18.9403 12.5594 19.0229 12.9028 19.0244ZM20.5194 10.0774V9.49996C19.8209 9.5002 19.1379 9.29409 18.5562 8.90751C19.0662 9.50032 19.7553 9.91097 20.5194 10.0774Z" fill="#C0DDCE"/>
<path d="M18.5562 8.90739C17.9832 8.25485 17.6673 7.41603 17.6675 6.54761H16.9747C17.0642 7.02775 17.2505 7.48463 17.5225 7.89034C17.7944 8.29606 18.1461 8.64212 18.5562 8.90739ZM12.1446 14.0135C11.1447 14.0187 10.2766 14.7037 10.0391 15.675C9.80163 16.6464 10.2557 17.6546 11.1405 18.1206C10.9054 17.796 10.7646 17.4127 10.7336 17.0131C10.7027 16.6135 10.7828 16.2131 10.9652 15.8562C11.1475 15.4992 11.425 15.1997 11.767 14.9906C12.1089 14.7815 12.502 14.671 12.9028 14.6713C13.1207 14.674 13.3371 14.7078 13.5454 14.7717V12.1307C13.3327 12.0989 13.1179 12.0821 12.9028 12.0805H12.7873V14.0889C12.5779 14.0327 12.3614 14.0073 12.1446 14.0135Z" fill="#C0DDCE"/>
<path d="M20.5191 10.0771V12.0855C19.2261 12.083 17.9667 11.6737 16.9192 10.9156V16.1925C16.9137 18.8256 14.7775 20.9572 12.1444 20.9572C11.1665 20.959 10.2122 20.6573 9.41309 20.0937C10.7467 21.528 12.8222 22.0002 14.6451 21.2839C16.468 20.5676 17.6668 18.8088 17.6673 16.8502V11.5884C18.7183 12.3415 19.9793 12.7455 21.2722 12.7432V10.1575C21.0191 10.1567 20.7667 10.1298 20.5191 10.0771Z" fill="#C0DDCE"/>
<path d="M16.9189 16.1926V10.9157C17.9696 11.6694 19.2308 12.0734 20.5239 12.0705V10.0622C19.7599 9.90086 19.0692 9.49556 18.5557 8.90739C18.1456 8.64212 17.7939 8.29606 17.522 7.89034C17.25 7.48463 17.0636 7.02775 16.9742 6.54761H15.0763V16.9407C15.0383 17.8679 14.4173 18.6693 13.5289 18.9376C12.6404 19.2058 11.6797 18.8819 11.135 18.1306C10.2502 17.6647 9.7961 16.6564 10.0336 15.6851C10.2711 14.7138 11.1392 14.0287 12.1391 14.0236C12.3571 14.0255 12.5736 14.0594 12.7818 14.124V12.1157C10.8947 12.1477 9.2048 13.2916 8.47397 15.0316C7.74319 16.7717 8.10946 18.7792 9.40779 20.149C10.2148 20.694 11.1705 20.9763 12.1441 20.9573C14.7772 20.9573 16.9134 18.8257 16.9189 16.1926Z" fill="white"/>
</svg>
