<svg width="37" height="36" viewBox="0 0 37 36" fill="none" xmlns="http://www.w3.org/2000/svg">
<rect x="0.569824" width="35.5698" height="35.5698" rx="17.7849" fill="#C0DDCE"/>
<g clip-path="url(#clip0_333_3804)">
<path fill-rule="evenodd" clip-rule="evenodd" d="M16.088 22.7998C20.9936 22.7998 23.6768 19.106 23.6768 15.9031C23.6768 15.7979 23.6768 15.6935 23.669 15.5896C24.1909 15.247 24.6414 14.8215 24.9995 14.3348C24.5133 14.5309 23.9966 14.6595 23.4681 14.7162C24.0245 14.4132 24.4412 13.9371 24.6407 13.3753C24.1168 13.6577 23.5442 13.857 22.9468 13.9639C21.9367 12.988 20.2474 12.9407 19.1729 13.8587C18.4807 14.4506 18.1862 15.3331 18.4014 16.1749C16.257 16.0769 14.2589 15.1565 12.9043 13.6425C12.1965 14.7501 12.5585 16.1665 13.7305 16.8778C13.306 16.8665 12.8907 16.7627 12.5195 16.5748V16.6056C12.5202 17.7593 13.4152 18.7527 14.6593 18.9813C14.2667 19.0787 13.8546 19.0929 13.4555 19.0226C13.8046 20.0103 14.8062 20.6868 15.947 20.7063C15.0025 21.3809 13.8358 21.7472 12.6346 21.746C12.4227 21.7454 12.2108 21.7342 11.9995 21.7112C13.2196 22.4224 14.6385 22.7998 16.088 22.7981" fill="white"/>
</g>
<defs>
<clipPath id="clip0_333_3804">
<rect width="13" height="12" fill="white" transform="translate(11.9995 12)"/>
</clipPath>
</defs>
</svg>
