<svg width="77" height="77" viewBox="0 0 77 77" fill="none" xmlns="http://www.w3.org/2000/svg">
<path d="M38.065 31.5869H51.0162V18.6357C43.864 18.6357 38.065 24.4348 38.065 31.5869ZM38.065 44.5381H25.1138V57.4893C32.266 57.4893 38.065 51.6903 38.065 44.5381ZM38.065 31.5869V18.6357C30.9128 18.6357 25.1138 24.4348 25.1138 31.5869C25.1138 38.7391 30.9128 44.5381 38.065 44.5381V57.4893C45.2172 57.4893 51.0162 51.6903 51.0162 44.5381C51.0162 37.3859 45.2172 31.5869 38.065 31.5869Z" fill="#C0DDCE"/>
<path d="M9.49567 58.4583L8.96891 58.8048L7.52911 56.6158L8.05587 56.2693L9.49567 58.4583ZM15.4609 62.5389L12.9067 65.3179L14.103 65.8118L13.6372 66.3175L11.7127 65.5309L11.6776 65.4981L14.885 62.0098L15.4632 62.5413L15.4609 62.5389ZM18.5091 65.0463L16.2335 68.057L17.4696 68.4339L17.0552 68.9817L15.0652 68.3824L15.0254 68.3543L17.8816 64.5734L18.5067 65.0463H18.5091ZM23.7064 69.8129C23.7158 69.9088 23.7439 70.0048 23.793 70.0985C23.8469 70.1898 23.9194 70.2834 24.0084 70.3771C24.0974 70.4707 24.2004 70.5667 24.3151 70.6603C24.4954 70.8055 24.6522 70.96 24.788 71.1192C24.9238 71.2784 25.0291 71.4353 25.1041 71.5945C25.179 71.7537 25.2211 71.9175 25.2305 72.0837C25.2398 72.25 25.2094 72.4185 25.1345 72.5894C25.0549 72.7744 24.9425 72.9242 24.7974 73.0389C24.6546 73.1537 24.4907 73.2333 24.3104 73.2801C24.1301 73.3246 23.9382 73.3363 23.7345 73.3129C23.5308 73.2894 23.3295 73.2356 23.1305 73.149C22.9198 73.0577 22.7372 72.9406 22.5827 72.7955C22.4281 72.6526 22.3087 72.4935 22.2221 72.3202C22.1378 72.1446 22.091 71.9573 22.0816 71.7607C22.0723 71.564 22.1121 71.3674 22.1964 71.1707L22.9081 71.4774C22.8706 71.5921 22.8519 71.7021 22.8495 71.8075C22.8472 71.9152 22.8636 72.0159 22.9011 72.1095C22.9408 72.2032 23.0017 72.2874 23.0813 72.367C23.1633 72.4443 23.2639 72.5122 23.3903 72.566C23.5004 72.6128 23.6081 72.6433 23.7111 72.6526C23.8164 72.6644 23.9124 72.6573 24.0037 72.6363C24.095 72.6105 24.1746 72.5707 24.2449 72.5098C24.3151 72.4513 24.3713 72.3741 24.4111 72.2804C24.4532 72.1797 24.4626 72.0814 24.4462 71.9854C24.4298 71.8894 24.39 71.7958 24.3315 71.7021C24.2706 71.6085 24.1934 71.5195 24.1021 71.4282C24.0084 71.3393 23.9101 71.2503 23.8047 71.1613C23.6713 71.0513 23.5449 70.9319 23.4255 70.8055C23.3061 70.6767 23.2054 70.5409 23.1211 70.3958C23.0181 70.2132 22.9549 70.0235 22.9315 69.8222C22.9081 69.6232 22.9408 69.4172 23.0322 69.2088C23.1164 69.0169 23.2288 68.8623 23.374 68.75C23.5191 68.6376 23.6783 68.5627 23.8562 68.5229C24.0365 68.4807 24.2285 68.4737 24.4322 68.5018C24.6358 68.5299 24.8372 68.5861 25.0385 68.6727C25.2516 68.764 25.4459 68.8904 25.6261 69.045C25.8064 69.1995 25.9422 69.3751 26.0405 69.5694C26.1295 69.7496 26.181 69.9393 26.195 70.1359C26.2091 70.3326 26.1693 70.5363 26.0827 70.747L25.3663 70.4379C25.4131 70.2998 25.4365 70.171 25.4318 70.054C25.4271 69.9346 25.399 69.8269 25.3452 69.7262C25.2937 69.6255 25.2211 69.5366 25.1251 69.4593C25.0315 69.3797 24.9191 69.3142 24.788 69.2557C24.678 69.2088 24.5703 69.1784 24.4649 69.162C24.3596 69.1456 24.2613 69.1503 24.1676 69.1714C24.0786 69.1924 23.9967 69.2299 23.9241 69.2861C23.8516 69.3423 23.7954 69.4172 23.7532 69.5132C23.7087 69.6139 23.6924 69.7122 23.6994 69.8082M26.0967 74.2259L26.2817 73.6055L27.2509 73.8935L28.2318 70.5901L27.2626 70.3021L27.4452 69.6841L30.1211 70.4801L29.9385 71.0981L28.9904 70.8172L28.0094 74.1205L28.9576 74.4015L28.7726 75.0219L26.0967 74.2282V74.2259ZM32.1439 73.3924C32.0057 73.3714 31.8793 73.3714 31.7623 73.3924C31.6452 73.4135 31.5422 73.4557 31.4532 73.5165C31.3736 73.5704 31.3057 73.6406 31.2519 73.7272C31.1981 73.8139 31.1606 73.9192 31.1395 74.0386C31.1161 74.1744 31.1185 74.2961 31.1419 74.4038C31.1653 74.5115 31.2144 74.6075 31.2823 74.6894C31.3479 74.7667 31.4298 74.8299 31.5305 74.8814C31.6312 74.9329 31.7482 74.9704 31.8793 74.9938L32.591 75.1155L32.8626 73.5142L32.1415 73.3924H32.1439ZM32.9726 72.8868L33.2793 71.0747L34.0496 71.2058L33.2583 75.8764L31.7763 75.6259C31.5352 75.5838 31.3175 75.5135 31.1255 75.4199C30.9312 75.3262 30.772 75.2068 30.6432 75.0687C30.5168 74.9259 30.4278 74.762 30.3763 74.5724C30.3248 74.3851 30.3178 74.1744 30.3576 73.9403C30.3833 73.7787 30.4302 73.6383 30.4934 73.5142C30.5566 73.3901 30.6362 73.2824 30.7275 73.1911C30.8211 73.0998 30.9241 73.0226 31.0435 72.9617C31.1606 72.9008 31.2894 72.8516 31.4275 72.8165L30.7603 70.6931L30.7673 70.651L31.5914 70.7914L32.179 72.7557L32.968 72.8891L32.9726 72.8868ZM35.7516 73.1068L36.2081 75.0032L36.8449 73.156L35.7492 73.1068H35.7516ZM37.0743 72.4958L37.4466 71.4212L38.2589 71.4587L36.5007 76.1222L35.8078 76.0894L34.5084 71.2878L35.3185 71.3252L35.5877 72.4302L37.072 72.4981L37.0743 72.4958ZM40.366 73.7904C40.2349 73.7998 40.1155 73.8279 40.0125 73.8724C39.9094 73.9169 39.8228 73.9777 39.7526 74.0527C39.6824 74.1276 39.6308 74.2165 39.5981 74.3149C39.5653 74.4155 39.5513 74.5209 39.5583 74.6356C39.5653 74.762 39.591 74.8744 39.6332 74.9751C39.6777 75.0757 39.7362 75.1624 39.8135 75.2349C39.8907 75.3075 39.9844 75.3614 40.0921 75.3965C40.1997 75.4316 40.3191 75.448 40.4526 75.4433L41.2556 75.4012L41.1666 73.746L40.3636 73.7881L40.366 73.7904ZM41.0379 71.3088L41.8175 71.2667L42.0703 75.9981L40.4877 76.0824C40.2489 76.0941 40.0288 76.0684 39.8252 76.0098C39.6215 75.9513 39.4436 75.8624 39.2914 75.7406C39.1392 75.6212 39.0198 75.4714 38.9285 75.2935C38.8395 75.1155 38.788 74.9142 38.7763 74.6871C38.7646 74.4694 38.7927 74.268 38.8653 74.0878C38.9355 73.9075 39.0409 73.7506 39.179 73.6172C39.3171 73.4814 39.4857 73.3737 39.6824 73.2941C39.879 73.2145 40.0967 73.1677 40.3355 73.156L41.1385 73.1139L41.0426 71.3112L41.0379 71.3088ZM49.6088 71.2526L49.7984 71.8543L47.3004 72.6409L47.1108 72.0393L49.6088 71.2526ZM56.761 68.249L56.0095 66.973L54.0382 68.1342L53.7105 67.5794L56.3583 66.0202L58.7603 70.1031L56.1265 71.653L55.7988 71.0958L57.756 69.944L57.0794 68.7944L55.3914 69.7894L55.0707 69.2439L56.7586 68.2513L56.761 68.249ZM62.656 67.2353L61.977 67.7573L59.2613 65.7088L59.0272 65.5332L59.1372 65.8095L60.4178 68.9607L59.7413 69.4804L58.0041 64.8379L58.6081 64.3744L62.6536 67.2399L62.656 67.2353ZM63.5245 66.4439L63.0821 65.9734L63.8195 65.2804L61.4597 62.7683L60.7222 63.4613L60.2821 62.9908L62.3165 61.078L62.759 61.5486L62.0379 62.2252L64.3978 64.7373L65.1189 64.0607L65.5613 64.5336L63.5269 66.4463L63.5245 66.4439ZM64.5148 60.8252C64.6085 60.8439 64.7092 60.8439 64.8122 60.8252C64.9152 60.7994 65.0252 60.7573 65.1399 60.6988C65.2546 60.6403 65.374 60.57 65.5005 60.4834C65.6924 60.3523 65.8821 60.2446 66.074 60.158C66.266 60.0737 66.4463 60.0175 66.6195 59.9894C66.7951 59.9637 66.9637 59.9683 67.1252 60.0058C67.2868 60.0433 67.4389 60.1229 67.5841 60.2423C67.7386 60.371 67.851 60.5209 67.9189 60.6918C67.9868 60.8627 68.0195 61.0406 68.0125 61.2279C68.0055 61.4128 67.961 61.6001 67.8814 61.7898C67.8018 61.9794 67.6918 62.1573 67.5536 62.3235C67.4062 62.4991 67.2423 62.6419 67.0597 62.7496C66.8771 62.8573 66.6921 62.9275 66.5001 62.9603C66.3082 62.9908 66.1162 62.9837 65.9242 62.9369C65.7346 62.8901 65.5566 62.7964 65.3904 62.6583L65.8867 62.0637C65.9851 62.1316 66.0858 62.1831 66.1864 62.2135C66.2871 62.2463 66.3901 62.258 66.4908 62.2486C66.5914 62.2369 66.6898 62.2041 66.7881 62.1479C66.8864 62.0918 66.9801 62.0122 67.0667 61.9068C67.144 61.8155 67.2025 61.7195 67.2423 61.6235C67.2821 61.5252 67.3055 61.4316 67.3078 61.3379C67.3102 61.2443 67.2938 61.1553 67.2563 61.0687C67.2189 60.9844 67.1627 60.9095 67.0831 60.8439C66.9988 60.776 66.9075 60.7362 66.8092 60.7269C66.7108 60.7175 66.6102 60.7269 66.5048 60.7573C66.3971 60.7901 66.2894 60.8369 66.177 60.9001C66.0647 60.9633 65.9523 61.0336 65.8376 61.1108C65.6948 61.2091 65.5426 61.2958 65.3881 61.373C65.2312 61.4503 65.072 61.5088 64.9105 61.5486C64.7068 61.5954 64.5055 61.6025 64.3065 61.5697C64.1075 61.5369 63.9202 61.4456 63.7469 61.3005C63.5854 61.1647 63.4707 61.0125 63.4028 60.8439C63.3349 60.673 63.3092 60.4974 63.3209 60.3172C63.3326 60.1322 63.3794 59.9449 63.4613 59.7576C63.5456 59.5704 63.658 59.3924 63.7985 59.2262C63.9483 59.0483 64.1215 58.8961 64.3229 58.7673C64.5242 58.6409 64.7302 58.5566 64.9433 58.5192C65.1423 58.4841 65.3366 58.4887 65.5286 58.5332C65.7205 58.5777 65.9055 58.6714 66.0811 58.8142L65.5801 59.4135C65.4607 59.3292 65.3436 59.273 65.2289 59.2426C65.1142 59.2122 65.0018 59.2098 64.8918 59.2332C64.7817 59.2543 64.674 59.2988 64.571 59.3667C64.4704 59.4346 64.372 59.5235 64.2831 59.6312C64.2058 59.7225 64.1449 59.8185 64.1005 59.9145C64.056 60.0105 64.0326 60.1065 64.0255 60.2025C64.0209 60.2938 64.0349 60.3827 64.0677 60.4694C64.1005 60.5536 64.1567 60.6309 64.2386 60.6964C64.3229 60.7667 64.4118 60.8135 64.5078 60.8322M66.6593 58.1961C66.4533 58.0627 66.2871 57.9105 66.1583 57.7372C66.0296 57.564 65.9429 57.3837 65.8985 57.1918C65.854 56.9974 65.8516 56.7961 65.8914 56.5924C65.9312 56.3864 66.0179 56.1827 66.1466 55.9814C66.2754 55.7824 66.4229 55.6255 66.5938 55.5061C66.7623 55.3867 66.9426 55.3118 67.1369 55.2767C67.3312 55.2392 67.5326 55.2463 67.7433 55.2931C67.954 55.3399 68.1623 55.4289 68.3684 55.56L71.0232 57.2901L70.6042 57.9362L67.9423 56.2178C67.8159 56.1382 67.6894 56.0797 67.5677 56.0399C67.4459 56.0001 67.3266 55.9861 67.2189 55.9954C67.1135 56.0048 67.0152 56.0376 66.9262 56.0914C66.8349 56.1453 66.7577 56.2249 66.6874 56.3302C66.6172 56.4379 66.575 56.5456 66.561 56.6533C66.547 56.761 66.5563 56.8663 66.5938 56.9717C66.6312 57.077 66.6921 57.1777 66.7764 57.2714C66.8607 57.3673 66.9637 57.4563 67.0854 57.5406L69.7403 59.2707L69.3212 59.9168L66.6593 58.1961ZM67.968 54.3519L67.3898 54.0687L68.7312 51.3342L72.9851 53.4202L72.6386 54.1249L68.963 52.3222L67.968 54.3519ZM69.869 50.7513C69.7192 50.6085 69.6068 50.4469 69.5296 50.269C69.45 50.0887 69.4078 49.8944 69.4031 49.6861C69.3985 49.4777 69.4359 49.26 69.5155 49.0352C69.5811 48.8503 69.6654 48.6911 69.7684 48.5529C69.8714 48.4148 69.9931 48.3024 70.1266 48.2135C70.253 48.1269 70.3935 48.0613 70.5456 48.0168C70.6978 47.9723 70.857 47.9466 71.0232 47.9372C71.1871 47.9279 71.358 47.9372 71.5359 47.9676C71.7139 47.9957 71.8941 48.0426 72.0767 48.1058L72.6878 48.3188C72.861 48.3797 73.0249 48.4523 73.1747 48.5389C73.3269 48.6255 73.465 48.7215 73.5868 48.8269C73.7249 48.9439 73.8419 49.075 73.9379 49.2178C74.0339 49.3606 74.1065 49.5128 74.1533 49.6697C74.1955 49.8195 74.2142 49.9764 74.2095 50.1402C74.2048 50.3041 74.1721 50.4703 74.1112 50.6459C74.0292 50.8824 73.9215 51.079 73.7858 51.2406C73.65 51.4021 73.4978 51.5262 73.3246 51.6128C73.149 51.6994 72.957 51.7509 72.7463 51.765C72.5379 51.779 72.3179 51.758 72.0861 51.7018L72.3436 50.9643C72.4818 50.9994 72.6105 51.0158 72.7299 51.0158C72.8517 51.0158 72.9593 50.9971 73.06 50.9573C73.1583 50.9151 73.245 50.8543 73.3199 50.77C73.3948 50.6857 73.4557 50.5757 73.5025 50.4376C73.5376 50.3416 73.554 50.2503 73.554 50.1636C73.554 50.077 73.5399 49.9974 73.5118 49.9202C73.4814 49.8172 73.4276 49.7235 73.3527 49.6345C73.2754 49.5479 73.1864 49.466 73.0811 49.3887C72.9874 49.3255 72.8868 49.267 72.7744 49.2155C72.662 49.1616 72.5473 49.1148 72.4256 49.0703L71.8075 48.8549C71.6577 48.8034 71.5149 48.7613 71.3767 48.7332C71.2386 48.7051 71.1098 48.6911 70.9881 48.6887C70.8874 48.6864 70.7938 48.6934 70.7048 48.7121C70.6159 48.7309 70.5339 48.7613 70.459 48.8034C70.3794 48.8479 70.3115 48.9041 70.253 48.9767C70.1945 49.0493 70.1453 49.1382 70.1078 49.2459C70.0634 49.3723 70.0423 49.4917 70.0446 49.6041C70.047 49.7141 70.0727 49.8195 70.1195 49.9131C70.1664 50.0044 70.2343 50.0887 70.3232 50.1683C70.4145 50.2456 70.5246 50.3135 70.6557 50.3743L70.3958 51.1141C70.1874 51.0182 70.0072 50.8964 69.8597 50.7536M70.4894 46.0479L74.0035 45.2449L70.8195 44.5402L70.9904 43.7676L75.6165 44.7837L75.4456 45.5586L71.9456 46.3546L75.1155 47.0569L74.947 47.8272L70.3185 46.8111L70.4871 46.0456L70.4894 46.0479ZM75.86 43.3088L75.2162 43.2479L75.3122 42.2412L71.8824 41.9158L71.7864 42.9225L71.145 42.8616L71.4095 40.0827L72.051 40.1436L71.9573 41.1292L75.3871 41.4546L75.4808 40.469L76.1246 40.5298L75.86 43.3088ZM72.7557 32.2843L73.3807 32.2047L73.7155 34.8034L73.0904 34.883L72.7557 32.2843ZM70.9764 24.7365L69.5881 25.2516L70.3841 27.396L69.7801 27.6208L68.7102 24.7412L73.1513 23.093L74.2142 25.9586L73.6078 26.1833L72.8165 24.0529L71.5664 24.5164L72.25 26.3519L71.6577 26.572L70.9741 24.7365H70.9764ZM69.7496 23.2592C69.5319 23.3716 69.3189 23.4419 69.1058 23.4699C68.8928 23.4957 68.6914 23.484 68.5018 23.4278C68.3098 23.3716 68.1366 23.2756 67.9774 23.1398C67.8182 23.0041 67.6824 22.8285 67.5724 22.6154C67.4623 22.4071 67.3968 22.1987 67.3781 21.9927C67.357 21.7867 67.3781 21.5924 67.4436 21.4074C67.5068 21.2201 67.6122 21.0469 67.755 20.8877C67.9001 20.7285 68.0781 20.5903 68.2958 20.4733L71.1075 19.0101L71.4657 19.6937L68.661 21.1686C68.5299 21.2412 68.4152 21.3208 68.3215 21.4074C68.2279 21.4964 68.1577 21.59 68.1108 21.6907C68.0687 21.7867 68.0476 21.8873 68.05 21.9927C68.0523 22.098 68.0827 22.2057 68.1413 22.3181C68.1998 22.4305 68.2747 22.5218 68.3613 22.5873C68.448 22.6529 68.5463 22.695 68.654 22.7161C68.764 22.7348 68.8811 22.7301 69.0051 22.7044C69.1292 22.6786 69.258 22.6318 69.3914 22.5686L72.2032 21.1054L72.5613 21.789L69.7543 23.2616L69.7496 23.2592ZM68.6493 18.3077C68.7429 18.2258 68.8249 18.1438 68.8975 18.0572C68.9747 17.9706 69.0379 17.877 69.0871 17.781C69.1363 17.685 69.169 17.5867 69.1854 17.4883C69.2018 17.397 69.1971 17.301 69.1737 17.2027C69.1526 17.1044 69.1058 17.0061 69.0379 16.9077C68.97 16.8117 68.8975 16.7368 68.8155 16.6853C68.7336 16.6338 68.6493 16.5987 68.5557 16.58C68.4456 16.5589 68.3309 16.5589 68.2092 16.58C68.0874 16.601 67.9657 16.6385 67.8439 16.6947C67.7503 16.7345 67.6567 16.779 67.563 16.8328C67.4694 16.8843 67.3804 16.9428 67.2914 17.0014L66.7506 17.376C66.671 17.4321 66.5914 17.493 66.5142 17.5609C66.4369 17.6288 66.3667 17.699 66.3011 17.7739C66.2169 17.8653 66.1466 17.9636 66.0928 18.0643C66.0366 18.1649 66.0015 18.2679 65.9874 18.3733C65.971 18.4622 65.9734 18.5559 65.9921 18.6495C66.0132 18.7432 66.0553 18.8368 66.1209 18.9328C66.1864 19.0288 66.2637 19.1037 66.3456 19.1552C66.4276 19.2091 66.5165 19.2465 66.6078 19.2676C66.7108 19.291 66.8185 19.2957 66.9309 19.2793C67.0433 19.2629 67.1557 19.2372 67.2704 19.1997C67.3664 19.1622 67.46 19.1178 67.5513 19.0686C67.6426 19.0194 67.7292 18.9656 67.8135 18.9094L68.3543 18.5348C68.455 18.4646 68.5533 18.3897 68.647 18.3077M67.8299 19.8014C67.6777 19.8693 67.5232 19.9231 67.3687 19.9582C67.2329 19.9887 67.0948 20.0074 66.9543 20.0121C66.8138 20.0168 66.6781 20.0027 66.5446 19.9723L66.4276 21.0235L65.7486 20.8666L65.8985 19.6492C65.8399 19.6 65.7837 19.5462 65.7322 19.49C65.6807 19.4338 65.6316 19.3706 65.5847 19.3051C65.4724 19.1435 65.3951 18.982 65.3506 18.8181C65.3062 18.6542 65.2874 18.4927 65.2944 18.3311C65.3038 18.1696 65.3366 18.0081 65.3951 17.8512C65.4536 17.6943 65.5309 17.5445 65.6269 17.4064C65.7135 17.2776 65.8165 17.1559 65.9312 17.0412C66.0459 16.9265 66.1724 16.8234 66.3058 16.7298L66.8396 16.3599C66.9871 16.2592 67.1369 16.1703 67.2938 16.0977C67.4506 16.0251 67.6051 15.9666 67.762 15.9244C67.9352 15.8753 68.1085 15.8495 68.2817 15.8472C68.455 15.8448 68.6212 15.8706 68.7827 15.9221C68.9349 15.9713 69.0801 16.0462 69.2182 16.1469C69.354 16.2452 69.4781 16.3739 69.5881 16.5331C69.6981 16.6923 69.7754 16.8539 69.8222 17.0178C69.869 17.1816 69.8901 17.3455 69.8831 17.5071C69.8737 17.6826 69.8386 17.8535 69.7754 18.0245C69.7122 18.193 69.6232 18.3569 69.5108 18.5114C69.4195 18.6378 69.3142 18.7596 69.1924 18.8719C69.073 18.9867 68.9419 19.092 68.8062 19.1903L68.2724 19.5602C68.1342 19.6539 67.9891 19.7358 67.8346 19.8037M67.7409 14.1428L67.2469 14.5619L66.5914 13.7917L63.967 16.0251L64.6225 16.7954L64.1332 17.2121L62.3235 15.0863L62.8128 14.6696L63.4543 15.4234L66.0787 13.19L65.4373 12.4361L65.9312 12.0171L67.7409 14.1428ZM63.5597 10.6358L60.7901 13.6465L60.2189 13.1198L62.9884 10.109L61.9209 9.12577L62.3586 8.64818L65.0744 11.1462L64.6366 11.6238L63.5597 10.6358ZM61.9138 6.85252L60.6754 7.0562L60.1884 6.70737L61.1951 6.33747L61.9138 6.85486V6.85252ZM58.161 8.82376L57.2971 10.0248L59.156 11.3592L58.779 11.8836L56.2857 10.0903L59.0506 6.24148L61.5322 8.02543L61.1553 8.55219L59.3105 7.2271L58.5309 8.31105L60.1229 9.45353L59.7553 9.96624L58.1633 8.82376H58.161ZM54.874 9.26156L55.8924 7.41206L54.4971 6.64182L53.4787 8.49132L52.8115 8.12376L55.0964 3.97292L55.7637 4.34048L54.8085 6.07526L56.2061 6.8455L57.1613 5.11071L57.8309 5.48061L55.5459 9.63146L54.8764 9.26156H54.874ZM52.5703 3.56087L51.0369 7.35353L50.3158 7.06088L51.8493 3.26823L50.5031 2.72509L50.7466 2.12341L54.167 3.50703L53.9235 4.1087L52.568 3.56087H52.5703ZM48.2533 4.72208C48.2322 4.62844 48.1901 4.53947 48.1268 4.45285C48.059 4.36857 47.9747 4.28663 47.874 4.20703C47.7733 4.12743 47.6586 4.04783 47.5275 3.97057C47.3285 3.85118 47.1506 3.72241 46.9937 3.58429C46.8369 3.44616 46.7081 3.30569 46.6121 3.1582C46.5138 3.01071 46.4506 2.85619 46.4178 2.69231C46.385 2.52843 46.3921 2.35753 46.4412 2.17726C46.4927 1.98295 46.584 1.81907 46.7105 1.68562C46.8369 1.55218 46.9867 1.44917 47.1576 1.37659C47.3309 1.30636 47.5182 1.2689 47.7242 1.26188C47.9302 1.25485 48.1362 1.2806 48.3469 1.33679C48.5693 1.39766 48.766 1.48663 48.9392 1.60602C49.1125 1.72542 49.2529 1.86589 49.363 2.02509C49.4707 2.18663 49.5432 2.36455 49.5807 2.55653C49.6158 2.75084 49.6065 2.94984 49.5503 3.1582L48.8034 2.95452C48.8245 2.83746 48.8292 2.72509 48.8151 2.61974C48.8011 2.51439 48.7707 2.41606 48.7192 2.32944C48.6653 2.24281 48.5951 2.1679 48.5038 2.1C48.4125 2.03445 48.3001 1.98295 48.169 1.94783C48.0543 1.91505 47.9442 1.90335 47.8389 1.90803C47.7335 1.91271 47.6376 1.93144 47.5509 1.96656C47.4643 2.00402 47.3894 2.05552 47.3285 2.12576C47.2677 2.19365 47.2232 2.27793 47.1951 2.37626C47.1693 2.48161 47.1717 2.57994 47.2021 2.67358C47.2325 2.76723 47.284 2.85385 47.3566 2.93579C47.4292 3.02007 47.5205 3.09733 47.6235 3.17225C47.7289 3.24716 47.8389 3.32208 47.9559 3.39466C48.1034 3.48362 48.2463 3.58429 48.382 3.69432C48.5178 3.80435 48.6372 3.92375 48.7402 4.0572C48.869 4.22342 48.958 4.40369 49.0095 4.598C49.061 4.79232 49.0563 5.00068 48.9978 5.22075C48.9416 5.42443 48.8503 5.59065 48.7238 5.72409C48.5974 5.85519 48.4476 5.95352 48.279 6.01907C48.1058 6.08697 47.9161 6.12208 47.7101 6.12208C47.5041 6.12208 47.2981 6.09633 47.085 6.0378C46.8603 5.97693 46.6496 5.88095 46.4506 5.75218C46.2516 5.62342 46.0901 5.46891 45.9636 5.29098C45.8489 5.12476 45.7717 4.94683 45.7295 4.75252C45.6874 4.56054 45.6968 4.35218 45.7553 4.13211L46.5091 4.3358C46.481 4.47861 46.4787 4.60971 46.4998 4.72677C46.5208 4.84382 46.5653 4.94683 46.6332 5.03814C46.6988 5.12944 46.783 5.20904 46.8884 5.27225C46.9937 5.3378 47.1131 5.38697 47.2513 5.42443C47.366 5.45486 47.4784 5.47125 47.5837 5.47125C47.6914 5.47125 47.7874 5.45486 47.8764 5.41974C47.963 5.38697 48.0355 5.3378 48.1011 5.27225C48.1643 5.2067 48.2111 5.12242 48.2369 5.02175C48.265 4.9164 48.2697 4.81573 48.2486 4.72208M42.8218 2.9077L42.5737 4.36857L44.8282 4.75017L44.7205 5.38463L41.6911 4.87192L42.4824 0.201338L45.4954 0.711706L45.3877 1.35084L43.1496 0.971572L42.9272 2.2873L44.8586 2.61505L44.7533 3.2378L42.8218 2.91004V2.9077ZM34.5529 2.78362L34.67 4.25854L36.9502 4.08061L37.0017 4.72208L33.9395 4.96322L33.5696 0.238797L36.6155 0L36.667 0.646154L34.4031 0.824083L34.5061 2.15385L36.4586 2.00168L36.5078 2.63144L34.5552 2.78362H34.5529ZM32.3171 5.23713L30.1492 2.35519L30.8047 5.54851L30.0298 5.7077L29.07 1.06756L29.8472 0.906021L32.0034 3.77626L31.3526 0.594648L32.1228 0.435452L33.0827 5.07559L32.3148 5.23479L32.3171 5.23713ZM27.6746 1.45385L27.8689 2.07191L26.9044 2.37626L27.9392 5.66322L28.9037 5.35887L29.098 5.97225L26.4338 6.81038L26.2395 6.197L27.183 5.89968L26.1482 2.61272L25.2047 2.91004L25.0104 2.29198L27.6723 1.45385H27.6746ZM25.1977 6.41005C25.1977 6.61607 25.1603 6.81038 25.0877 6.98831C25.0128 7.17092 24.9027 7.3348 24.7552 7.48463C24.6077 7.63446 24.4251 7.7562 24.2074 7.85687C24.0295 7.93881 23.8562 7.99031 23.6853 8.00904C23.5144 8.02777 23.3505 8.02075 23.1937 7.98563C23.0439 7.9552 22.8987 7.89901 22.7606 7.82176C22.6225 7.74216 22.4937 7.64617 22.372 7.53379C22.2502 7.42142 22.1402 7.29265 22.0372 7.14282C21.9342 6.99299 21.8429 6.83145 21.7609 6.65821L21.4893 6.07058C21.4121 5.90436 21.3512 5.7358 21.3067 5.56723C21.2623 5.39867 21.2365 5.23245 21.2295 5.06857C21.2178 4.8883 21.2295 4.71272 21.2646 4.54416C21.302 4.37559 21.3606 4.21874 21.4402 4.07359C21.5198 3.94014 21.6181 3.81606 21.7398 3.70603C21.8592 3.59599 22.0044 3.50235 22.1706 3.42509C22.3977 3.31974 22.6154 3.26121 22.8238 3.24716C23.0322 3.23077 23.2288 3.25653 23.4114 3.31974C23.5964 3.38529 23.7673 3.4883 23.9218 3.62877C24.0763 3.77158 24.2144 3.94248 24.3338 4.1485L23.6245 4.47626C23.5542 4.35218 23.477 4.24917 23.3927 4.16255C23.3084 4.07593 23.2194 4.01038 23.1211 3.96589C23.0228 3.92375 22.9174 3.90502 22.8051 3.90971C22.6927 3.91439 22.5709 3.94716 22.4398 4.00803C22.3462 4.05017 22.2689 4.10168 22.2081 4.16255C22.1449 4.22108 22.098 4.28897 22.0606 4.36155C22.0091 4.45519 21.9763 4.56054 21.9669 4.67526C21.9576 4.79232 21.9599 4.91406 21.9786 5.04048C21.9997 5.15051 22.0278 5.26523 22.0653 5.38229C22.1027 5.49934 22.1495 5.6164 22.2034 5.73346L22.4773 6.32811C22.5429 6.47092 22.6131 6.60202 22.688 6.72142C22.7629 6.83847 22.8425 6.94383 22.9268 7.03045C22.9947 7.10536 23.0649 7.16623 23.1398 7.21774C23.2148 7.26925 23.2944 7.3067 23.3763 7.33011C23.4629 7.35821 23.5542 7.36757 23.6455 7.35821C23.7392 7.34884 23.8352 7.32309 23.9382 7.27393C24.0599 7.21774 24.1606 7.14984 24.2378 7.07259C24.3151 6.99299 24.3736 6.90403 24.4087 6.80336C24.4415 6.70737 24.4556 6.59734 24.4485 6.48028C24.4415 6.36088 24.4134 6.23446 24.3666 6.09867L25.0783 5.77091C25.1556 5.98864 25.193 6.20168 25.193 6.4077M19.0358 8.17761L19.8178 9.4348L21.7609 8.22677L22.1004 8.77226L19.4923 10.397L16.9873 6.37493L19.5813 4.75954L19.9231 5.30971L17.9964 6.51071L18.701 7.64383L20.3633 6.60904L20.698 7.14517L19.0358 8.17995V8.17761ZM16.5168 11.8251L16.8398 11.5769C16.9499 11.4927 17.0412 11.4014 17.1114 11.303C17.184 11.207 17.2355 11.104 17.2729 10.9963C17.3081 10.8863 17.3268 10.7693 17.3268 10.6452C17.3268 10.5211 17.3057 10.3947 17.2659 10.2636C17.2308 10.1512 17.184 10.0388 17.1231 9.9241C17.0622 9.80938 16.9873 9.69467 16.8984 9.57995L16.6689 9.28029C16.5823 9.16557 16.491 9.06724 16.395 8.97828C16.299 8.88932 16.203 8.81674 16.1024 8.75587C15.9806 8.68329 15.8519 8.62945 15.7184 8.59667C15.585 8.5639 15.4492 8.55921 15.3134 8.57794C15.2151 8.59199 15.1144 8.62008 15.0114 8.66456C14.9084 8.70905 14.8077 8.76992 14.7071 8.84483L14.405 9.07661L16.5191 11.8228L16.5168 11.8251ZM13.3867 9.05553L14.3161 8.34149C14.4776 8.21741 14.6438 8.11908 14.8147 8.0465C14.9856 7.97393 15.1542 7.92477 15.3228 7.89901C15.5007 7.86858 15.6786 7.86624 15.8566 7.88965C16.0345 7.9154 16.203 7.96456 16.3669 8.03948C16.5355 8.11674 16.6994 8.21975 16.8586 8.34617C17.0154 8.47493 17.1653 8.62711 17.301 8.80269L17.5281 9.09768C17.6592 9.26858 17.7646 9.44183 17.8465 9.62209C17.9285 9.80236 17.9847 9.97795 18.0174 10.1559C18.0479 10.3268 18.0549 10.4977 18.0432 10.6662C18.0291 10.8348 17.9964 10.9987 17.9402 11.1532C17.877 11.3264 17.7857 11.4903 17.6663 11.6472C17.5492 11.804 17.4017 11.9492 17.2308 12.0803L16.2826 12.8107L13.3913 9.05788L13.3867 9.05553ZM11.3077 9.37627L11.2984 10.6335L10.8723 11.0549L10.6779 9.99901L11.3077 9.37627ZM12.6211 13.4077L13.6606 14.4612L15.29 12.8552L15.7418 13.3141L13.5552 15.4726L10.2284 12.099L12.4034 9.95219L12.8575 10.4134L11.2422 12.0101L12.1786 12.9582L13.5739 11.5816L14.0164 12.0311L12.6211 13.4077ZM9.89132 15.6482L8.70671 13.8806L9.31072 13.1174L13.0214 16.0626L12.5649 16.6385L11.3054 15.6388L9.67594 14.288L10.994 16.2663L10.7412 16.5846L8.62009 15.7442L10.2425 16.978L11.502 17.9776L11.0455 18.5512L7.3348 15.6061L7.93647 14.8475L9.88898 15.6505L9.89132 15.6482ZM5.71004 23.6666L7.05386 24.287L8.01139 22.2104L8.59667 22.4796L7.31139 25.2703L3.00837 23.2873L4.28897 20.5131L4.8766 20.7847L3.9261 22.8472L5.13881 23.4067L5.9582 21.6275L6.53179 21.892L5.71239 23.6713L5.71004 23.6666ZM5.64684 28.0679L5.77092 27.6817C5.81306 27.5506 5.83647 27.4218 5.84115 27.3024C5.84349 27.1807 5.83179 27.0659 5.79901 26.9582C5.76623 26.8482 5.71473 26.7429 5.64449 26.6399C5.57426 26.5368 5.4853 26.4455 5.3776 26.3613C5.2863 26.2887 5.18329 26.2231 5.06857 26.1623C4.95386 26.1014 4.82744 26.0499 4.68697 26.0054L4.32877 25.8907C4.19299 25.8462 4.05954 25.8158 3.93078 25.797C3.80202 25.7783 3.68027 25.7713 3.56322 25.7783C3.42041 25.7877 3.28462 25.8158 3.15586 25.8673C3.0271 25.9164 2.91238 25.9867 2.81171 26.0803C2.7368 26.1482 2.67124 26.2278 2.61272 26.3238C2.55419 26.4198 2.50268 26.5251 2.46288 26.6445L2.34582 27.0074L5.64449 28.0726L5.64684 28.0679ZM1.49833 27.5599L1.85887 26.4455C1.92208 26.2512 2.00168 26.0756 2.10235 25.9188C2.20302 25.7619 2.31305 25.6261 2.43713 25.5114C2.56589 25.385 2.71104 25.282 2.87258 25.2024C3.03178 25.1228 3.20034 25.0666 3.37827 25.0362C3.56088 25.0034 3.75519 24.9964 3.95653 25.0104C4.15787 25.0268 4.36623 25.0666 4.57927 25.1368L4.93279 25.2516C5.13647 25.3171 5.32376 25.4014 5.49232 25.5021C5.66088 25.6027 5.80837 25.7174 5.9348 25.8439C6.05653 25.9679 6.15954 26.1037 6.24382 26.2489C6.32811 26.3964 6.39132 26.5485 6.43346 26.7077C6.47794 26.8857 6.49667 27.0753 6.48731 27.2696C6.47794 27.4663 6.44048 27.6676 6.37493 27.8736L6.00737 29.0138L1.49833 27.5576V27.5599ZM3.48128 33.483C3.72476 33.5064 3.94482 33.5649 4.1368 33.6586C4.32877 33.7522 4.49031 33.874 4.61908 34.0238C4.74784 34.176 4.84382 34.3516 4.90235 34.5529C4.96088 34.7542 4.97961 34.9743 4.9562 35.2131C4.93279 35.4472 4.87426 35.6579 4.78061 35.8405C4.68462 36.0231 4.56055 36.1753 4.40603 36.2947C4.25151 36.4165 4.06891 36.5054 3.86054 36.5616C3.65218 36.6178 3.42743 36.6342 3.18161 36.6131L0.0280961 36.3064L0.100671 35.5385L3.25653 35.8312C3.40636 35.8429 3.54449 35.8382 3.67091 35.8148C3.79967 35.7914 3.90971 35.7516 4.00101 35.693C4.08998 35.6369 4.16021 35.5619 4.2164 35.473C4.27259 35.384 4.30536 35.2763 4.31707 35.1522C4.32877 35.0235 4.31707 34.9088 4.27961 34.8081C4.24215 34.7051 4.18362 34.6161 4.10402 34.5412C4.02208 34.4663 3.92141 34.4054 3.80202 34.3586C3.68262 34.3118 3.55151 34.2813 3.40402 34.2626L0.250504 33.9559L0.323079 33.188L3.47894 33.4853L3.48128 33.483ZM2.67827 39.8181L4.15787 39.776L4.09232 37.4887L4.73613 37.47L4.82275 40.5416L0.0866247 40.6773L0 37.6222L0.648497 37.6034L0.714049 39.8743L2.0485 39.8369L1.99231 37.8773L2.62208 37.8586L2.67827 39.8181ZM0.231774 42.274L0.870905 42.1757L1.02542 43.1753L4.43178 42.6486L4.27727 41.6489L4.91406 41.5506L5.34014 44.3108L4.70336 44.4091L4.55118 43.4305L1.14482 43.9573L1.29465 44.9359L0.65552 45.0342L0.229434 42.274H0.231774ZM4.90703 45.3947L5.52978 45.2332L6.29533 48.1807L1.70903 49.3723L1.51238 48.6138L5.47359 47.5837L4.90469 45.3947H4.90703Z" fill="#C0DDCE"/>
</svg>
