<svg width="28" height="28" viewBox="0 0 28 28" fill="none" xmlns="http://www.w3.org/2000/svg">
<circle cx="14" cy="14" r="14" fill="#C0DDCE"/>
<g clip-path="url(#clip0_89_2118)">
<circle cx="13.9417" cy="13.942" r="3.57065" fill="#C0DDCE"/>
<path d="M21.6086 9.97298L21.6285 10.103C21.5377 9.77212 21.3641 9.46984 21.1241 9.22469C20.884 8.97954 20.5855 8.79961 20.2566 8.70191L20.2426 8.69859C19.0014 8.36158 14.0067 8.36158 14.0067 8.36158C14.0067 8.36158 9.02455 8.35495 7.77073 8.69859C7.44127 8.79394 7.14152 8.97162 6.89975 9.2149C6.65799 9.45818 6.48216 9.75902 6.38887 10.0891L6.38555 10.103C5.92184 12.5251 5.91852 15.4354 6.40612 18.0286L6.38555 17.8973C6.47632 18.2282 6.64992 18.5304 6.88996 18.7756C7.13 19.0207 7.42857 19.2007 7.75746 19.2984L7.77139 19.3017C9.01128 19.6394 14.0073 19.6394 14.0073 19.6394C14.0073 19.6394 18.9888 19.6394 20.2433 19.3017C20.5729 19.2065 20.8728 19.0289 21.1147 18.7856C21.3566 18.5423 21.5325 18.2414 21.6258 17.9112L21.6291 17.8973C21.8401 16.7708 21.9608 15.4745 21.9608 14.1504L21.9602 14.0038L21.9608 13.8512C21.9608 12.5264 21.8401 11.2301 21.6086 9.97298ZM12.4132 16.4225V11.5844L16.57 14.0071L12.4132 16.4225Z" fill="white"/>
</g>
<defs>
<clipPath id="clip0_89_2118">
<rect width="15.9216" height="15.9216" fill="white" transform="translate(6.03906 6.03931)"/>
</clipPath>
</defs>
</svg>
